<?xml version="1.0" encoding="UTF-8" standalone="no"?>
<!DOCTYPE svg PUBLIC "-//W3C//DTD SVG 1.1//EN"
 "http://www.w3.org/Graphics/SVG/1.1/DTD/svg11.dtd">
<!-- Generated by graphviz version 14.0.2 (20251019.1705)
 -->
<!-- Title: dependency&#45;graph&#45;@siteimprove/alfa&#45;jquery Pages: 1 -->
<svg width="183pt" height="218pt"
 viewBox="0.00 0.00 183.00 218.00" xmlns="http://www.w3.org/2000/svg" xmlns:xlink="http://www.w3.org/1999/xlink">
<g id="graph0" class="graph" transform="scale(1 1) rotate(0) translate(21.6 196.85)">
<title>dependency&#45;graph&#45;@siteimprove/alfa&#45;jquery</title>
<polygon fill="#ffffff" stroke="none" points="-21.6,21.6 -21.6,-196.85 161.6,-196.85 161.6,21.6 -21.6,21.6"/>
<g id="clust1" class="cluster">
<title>cluster_src</title>
<polygon fill="#ffffff" stroke="#000000" points="8,-8 8,-167.25 132,-167.25 132,-8 8,-8"/>
</g>
<!-- src/jquery.ts -->
<g id="node1" class="node">
<title>src/jquery.ts</title>
<path fill="none" stroke="#000000" d="M96.08,-99.5C96.08,-99.5 23.92,-99.5 23.92,-99.5 19.96,-99.5 16,-95.54 16,-91.58 16,-91.58 16,-83.67 16,-83.67 16,-79.71 19.96,-75.75 23.92,-75.75 23.92,-75.75 96.08,-75.75 96.08,-75.75 100.04,-75.75 104,-79.71 104,-83.67 104,-83.67 104,-91.58 104,-91.58 104,-95.54 100.04,-99.5 96.08,-99.5"/>
<text xml:space="preserve" text-anchor="middle" x="60" y="-82.2" font-family="Arial" font-size="14.00" fill="#000000">src/jquery.ts</text>
</g>
<!-- exit_src -->
<!-- src/jquery.ts&#45;&gt;exit_src -->
<!-- src/index.ts -->
<g id="node2" class="node">
<title>src/index.ts</title>
<path fill="none" stroke="#ff0000" stroke-width="5" d="M94.21,-159.25C94.21,-159.25 25.79,-159.25 25.79,-159.25 21.83,-159.25 17.88,-155.29 17.88,-151.33 17.88,-151.33 17.88,-143.42 17.88,-143.42 17.88,-139.46 21.83,-135.5 25.79,-135.5 25.79,-135.5 94.21,-135.5 94.21,-135.5 98.17,-135.5 102.12,-139.46 102.12,-143.42 102.12,-143.42 102.12,-151.33 102.12,-151.33 102.12,-155.29 98.17,-159.25 94.21,-159.25"/>
<text xml:space="preserve" text-anchor="middle" x="60" y="-141.95" font-family="Arial" font-size="14.00" fill="#000000">src/index.ts</text>
</g>
<!-- src/index.ts&#45;&gt;src/jquery.ts -->
<!-- src/index.ts&#45;&gt;src/jquery.ts -->
<g id="edge4" class="edge">
<title>src/index.ts&#45;&gt;src/jquery.ts</title>
<path fill="none" stroke="black" d="M65.76,-133.27C66.68,-126.71 66.96,-118.58 66.6,-111.07"/>
<polygon fill="black" stroke="black" points="70.09,-110.84 65.61,-101.24 63.13,-111.54 70.09,-110.84"/>
</g>
<!-- src/index.ts&#45;&gt;exit_src -->
</g>
</svg>
