<?xml version="1.0" encoding="UTF-8" standalone="no"?>
<!DOCTYPE svg PUBLIC "-//W3C//DTD SVG 1.1//EN"
 "http://www.w3.org/Graphics/SVG/1.1/DTD/svg11.dtd">
<!-- Generated by graphviz version 2.43.0 (0)
 -->
<!-- Title: dependency&#45;graph&#45;[object Object] Pages: 1 -->
<svg width="421pt" height="267pt"
 viewBox="0.00 0.00 420.70 267.20" xmlns="http://www.w3.org/2000/svg" xmlns:xlink="http://www.w3.org/1999/xlink">
<g id="graph0" class="graph" transform="scale(1 1) rotate(0) translate(21.6 245.6)">
<title>dependency&#45;graph&#45;[object Object]</title>
<polygon fill="#ffffff" stroke="transparent" points="-21.6,21.6 -21.6,-245.6 399.1,-245.6 399.1,21.6 -21.6,21.6"/>
<g id="clust1" class="cluster">
<title>cluster_src</title>
<polygon fill="#ffffff" stroke="#000000" points="57.5,-43 57.5,-216 329.5,-216 329.5,-43 57.5,-43"/>
</g>
<g id="clust2" class="cluster">
<title>cluster_src</title>
<polygon fill="#ffffff" stroke="#000000" points="169.5,-51 169.5,-208 321.5,-208 321.5,-51 169.5,-51"/>
</g>
<!-- dependency&#45;graph&#45;[object Object] -->
<!-- package.json -->
<g id="node2" class="node">
<title>package.json</title>
<path fill="none" stroke="#000000" d="M153.83,-141C153.83,-141 73.17,-141 73.17,-141 69.33,-141 65.5,-137.17 65.5,-133.33 65.5,-133.33 65.5,-125.67 65.5,-125.67 65.5,-121.83 69.33,-118 73.17,-118 73.17,-118 153.83,-118 153.83,-118 157.67,-118 161.5,-121.83 161.5,-125.67 161.5,-125.67 161.5,-133.33 161.5,-133.33 161.5,-137.17 157.67,-141 153.83,-141"/>
<text text-anchor="middle" x="113.5" y="-125.8" font-family="Arial" font-size="14.00" fill="#000000">package.json</text>
</g>
<!-- exit_src -->
<!-- package.json&#45;&gt;exit_src -->
<!-- exit_src&#45;&gt;dependency&#45;graph&#45;[object Object] -->
<!-- exit_src&#45;&gt;exit_src -->
<!-- exit_src&#45;&gt;exit_src -->
<!-- name_package.json -->
<g id="node4" class="node">
<title>name_package.json</title>
<path fill="none" stroke="#000000" d="M369.83,-23C369.83,-23 247.17,-23 247.17,-23 243.33,-23 239.5,-19.17 239.5,-15.33 239.5,-15.33 239.5,-7.67 239.5,-7.67 239.5,-3.83 243.33,0 247.17,0 247.17,0 369.83,0 369.83,0 373.67,0 377.5,-3.83 377.5,-7.67 377.5,-7.67 377.5,-15.33 377.5,-15.33 377.5,-19.17 373.67,-23 369.83,-23"/>
<text text-anchor="middle" x="308.5" y="-7.8" font-family="Arial" font-size="14.00" fill="#000000">name_package.json</text>
</g>
<!-- exit_src&#45;&gt;name_package.json -->
<g id="edge7" class="edge">
<title>exit_src&#45;&gt;name_package.json</title>
<path fill="none" stroke="#ff0000" d="M255.52,-43C264.27,-37.97 273.16,-32.85 281.1,-28.28"/>
<polygon fill="#ff0000" stroke="#ff0000" points="283.04,-31.2 289.96,-23.17 279.55,-25.13 283.04,-31.2"/>
</g>
<!-- src/earl.ts -->
<g id="node5" class="node">
<title>src/earl.ts</title>
<path fill="none" stroke="#000000" d="M245.83,-141C245.83,-141 207.17,-141 207.17,-141 203.33,-141 199.5,-137.17 199.5,-133.33 199.5,-133.33 199.5,-125.67 199.5,-125.67 199.5,-121.83 203.33,-118 207.17,-118 207.17,-118 245.83,-118 245.83,-118 249.67,-118 253.5,-121.83 253.5,-125.67 253.5,-125.67 253.5,-133.33 253.5,-133.33 253.5,-137.17 249.67,-141 245.83,-141"/>
<text text-anchor="middle" x="226.5" y="-125.8" font-family="Arial" font-size="14.00" fill="#000000">earl.ts</text>
</g>
<!-- src/earl.ts&#45;&gt;exit_src -->
<!-- name_src -->
<g id="node6" class="node">
<title>name_src</title>
<path fill="none" stroke="#ff0000" stroke-width="5" d="M305.83,-200C305.83,-200 267.17,-200 267.17,-200 263.33,-200 259.5,-196.17 259.5,-192.33 259.5,-192.33 259.5,-184.67 259.5,-184.67 259.5,-180.83 263.33,-177 267.17,-177 267.17,-177 305.83,-177 305.83,-177 309.67,-177 313.5,-180.83 313.5,-184.67 313.5,-184.67 313.5,-192.33 313.5,-192.33 313.5,-196.17 309.67,-200 305.83,-200"/>
<text text-anchor="middle" x="286.5" y="-184.8" font-family="Arial" font-size="14.00" fill="#000000">src</text>
</g>
<!-- src/index.ts -->
<g id="node7" class="node">
<title>src/index.ts</title>
<path fill="none" stroke="#ff0000" stroke-width="5" d="M233.33,-200C233.33,-200 185.67,-200 185.67,-200 181.83,-200 178,-196.17 178,-192.33 178,-192.33 178,-184.67 178,-184.67 178,-180.83 181.83,-177 185.67,-177 185.67,-177 233.33,-177 233.33,-177 237.17,-177 241,-180.83 241,-184.67 241,-184.67 241,-192.33 241,-192.33 241,-196.17 237.17,-200 233.33,-200"/>
<text text-anchor="middle" x="209.5" y="-184.8" font-family="Arial" font-size="14.00" fill="#000000">index.ts</text>
</g>
<!-- src/index.ts&#45;&gt;exit_src -->
<!-- src/index.ts&#45;&gt;src/earl.ts -->
<!-- src/index.ts&#45;&gt;src/earl.ts -->
<g id="edge9" class="edge">
<title>src/index.ts&#45;&gt;src/earl.ts</title>
<path fill="none" stroke="black" d="M218.11,-176.78C221.54,-169.53 224.83,-159.74 226.89,-151.02"/>
<polygon fill="black" stroke="black" points="230.33,-151.64 228.72,-141.17 223.45,-150.36 230.33,-151.64"/>
</g>
</g>
</svg>
