<?xml version="1.0" encoding="UTF-8" standalone="no"?>
<!DOCTYPE svg PUBLIC "-//W3C//DTD SVG 1.1//EN"
 "http://www.w3.org/Graphics/SVG/1.1/DTD/svg11.dtd">
<!-- Generated by graphviz version 14.0.2 (20251019.1705)
 -->
<!-- Title: dependency&#45;graph&#45;@siteimprove/alfa&#45;formatter&#45;earl Pages: 1 -->
<svg width="169pt" height="218pt"
 viewBox="0.00 0.00 169.00 218.00" xmlns="http://www.w3.org/2000/svg" xmlns:xlink="http://www.w3.org/1999/xlink">
<g id="graph0" class="graph" transform="scale(1 1) rotate(0) translate(21.6 196.85)">
<title>dependency&#45;graph&#45;@siteimprove/alfa&#45;formatter&#45;earl</title>
<polygon fill="#ffffff" stroke="none" points="-21.6,21.6 -21.6,-196.85 147.6,-196.85 147.6,21.6 -21.6,21.6"/>
<g id="clust1" class="cluster">
<title>cluster_src</title>
<polygon fill="#ffffff" stroke="#000000" points="8,-8 8,-167.25 118,-167.25 118,-8 8,-8"/>
</g>
<!-- src/earl.ts -->
<g id="node1" class="node">
<title>src/earl.ts</title>
<path fill="none" stroke="#000000" d="M82.33,-99.5C82.33,-99.5 23.67,-99.5 23.67,-99.5 19.71,-99.5 15.75,-95.54 15.75,-91.58 15.75,-91.58 15.75,-83.67 15.75,-83.67 15.75,-79.71 19.71,-75.75 23.67,-75.75 23.67,-75.75 82.33,-75.75 82.33,-75.75 86.29,-75.75 90.25,-79.71 90.25,-83.67 90.25,-83.67 90.25,-91.58 90.25,-91.58 90.25,-95.54 86.29,-99.5 82.33,-99.5"/>
<text xml:space="preserve" text-anchor="middle" x="53" y="-82.2" font-family="Arial" font-size="14.00" fill="#000000">src/earl.ts</text>
</g>
<!-- exit_src -->
<!-- src/earl.ts&#45;&gt;exit_src -->
<!-- src/index.ts -->
<g id="node3" class="node">
<title>src/index.ts</title>
<path fill="none" stroke="#ff0000" stroke-width="5" d="M92.21,-159.25C92.21,-159.25 23.79,-159.25 23.79,-159.25 19.83,-159.25 15.88,-155.29 15.88,-151.33 15.88,-151.33 15.88,-143.42 15.88,-143.42 15.88,-139.46 19.83,-135.5 23.79,-135.5 23.79,-135.5 92.21,-135.5 92.21,-135.5 96.17,-135.5 100.12,-139.46 100.12,-143.42 100.12,-143.42 100.12,-151.33 100.12,-151.33 100.12,-155.29 96.17,-159.25 92.21,-159.25"/>
<text xml:space="preserve" text-anchor="middle" x="58" y="-141.95" font-family="Arial" font-size="14.00" fill="#000000">src/index.ts</text>
</g>
<!-- src/index.ts&#45;&gt;src/earl.ts -->
<!-- src/index.ts&#45;&gt;src/earl.ts -->
<g id="edge4" class="edge">
<title>src/index.ts&#45;&gt;src/earl.ts</title>
<path fill="none" stroke="black" d="M62.63,-133.27C62.98,-126.63 62.54,-118.39 61.51,-110.8"/>
<polygon fill="black" stroke="black" points="64.99,-110.4 59.7,-101.22 58.11,-111.7 64.99,-110.4"/>
</g>
<!-- src/index.ts&#45;&gt;exit_src -->
</g>
</svg>
