<?xml version="1.0" encoding="UTF-8" standalone="no"?>
<!DOCTYPE svg PUBLIC "-//W3C//DTD SVG 1.1//EN"
 "http://www.w3.org/Graphics/SVG/1.1/DTD/svg11.dtd">
<!-- Generated by graphviz version 14.0.2 (20251019.1705)
 -->
<!-- Title: dependency&#45;graph&#45;@siteimprove/alfa&#45;interviewer Pages: 1 -->
<svg width="211pt" height="218pt"
 viewBox="0.00 0.00 211.00 218.00" xmlns="http://www.w3.org/2000/svg" xmlns:xlink="http://www.w3.org/1999/xlink">
<g id="graph0" class="graph" transform="scale(1 1) rotate(0) translate(21.6 196.85)">
<title>dependency&#45;graph&#45;@siteimprove/alfa&#45;interviewer</title>
<polygon fill="#ffffff" stroke="none" points="-21.6,21.6 -21.6,-196.85 189.6,-196.85 189.6,21.6 -21.6,21.6"/>
<g id="clust1" class="cluster">
<title>cluster_src</title>
<polygon fill="#ffffff" stroke="#000000" points="8,-8 8,-167.25 160,-167.25 160,-8 8,-8"/>
</g>
<!-- src/interviewer.ts -->
<g id="node1" class="node">
<title>src/interviewer.ts</title>
<path fill="none" stroke="#000000" d="M124.33,-99.5C124.33,-99.5 23.67,-99.5 23.67,-99.5 19.71,-99.5 15.75,-95.54 15.75,-91.58 15.75,-91.58 15.75,-83.67 15.75,-83.67 15.75,-79.71 19.71,-75.75 23.67,-75.75 23.67,-75.75 124.33,-75.75 124.33,-75.75 128.29,-75.75 132.25,-79.71 132.25,-83.67 132.25,-83.67 132.25,-91.58 132.25,-91.58 132.25,-95.54 128.29,-99.5 124.33,-99.5"/>
<text xml:space="preserve" text-anchor="middle" x="74" y="-82.2" font-family="Arial" font-size="14.00" fill="#000000">src/interviewer.ts</text>
</g>
<!-- exit_src -->
<!-- src/interviewer.ts&#45;&gt;exit_src -->
<!-- src/index.ts -->
<g id="node2" class="node">
<title>src/index.ts</title>
<path fill="none" stroke="#ff0000" stroke-width="5" d="M108.21,-159.25C108.21,-159.25 39.79,-159.25 39.79,-159.25 35.83,-159.25 31.88,-155.29 31.88,-151.33 31.88,-151.33 31.88,-143.42 31.88,-143.42 31.88,-139.46 35.83,-135.5 39.79,-135.5 39.79,-135.5 108.21,-135.5 108.21,-135.5 112.17,-135.5 116.12,-139.46 116.12,-143.42 116.12,-143.42 116.12,-151.33 116.12,-151.33 116.12,-155.29 112.17,-159.25 108.21,-159.25"/>
<text xml:space="preserve" text-anchor="middle" x="74" y="-141.95" font-family="Arial" font-size="14.00" fill="#000000">src/index.ts</text>
</g>
<!-- src/index.ts&#45;&gt;src/interviewer.ts -->
<!-- src/index.ts&#45;&gt;src/interviewer.ts -->
<g id="edge4" class="edge">
<title>src/index.ts&#45;&gt;src/interviewer.ts</title>
<path fill="none" stroke="black" d="M79.76,-133.27C80.68,-126.71 80.96,-118.58 80.6,-111.07"/>
<polygon fill="black" stroke="black" points="84.09,-110.84 79.61,-101.24 77.13,-111.54 84.09,-110.84"/>
</g>
<!-- src/index.ts&#45;&gt;exit_src -->
</g>
</svg>
