<?xml version="1.0" encoding="UTF-8" standalone="no"?>
<!DOCTYPE svg PUBLIC "-//W3C//DTD SVG 1.1//EN"
 "http://www.w3.org/Graphics/SVG/1.1/DTD/svg11.dtd">
<!-- Generated by graphviz version 2.43.0 (0)
 -->
<!-- Title: dependency&#45;graph&#45;@siteimprove/alfa&#45;command Pages: 1 -->
<svg width="364pt" height="291pt"
 viewBox="0.00 0.00 364.20 291.20" xmlns="http://www.w3.org/2000/svg" xmlns:xlink="http://www.w3.org/1999/xlink">
<g id="graph0" class="graph" transform="scale(1 1) rotate(0) translate(21.6 269.6)">
<title>dependency&#45;graph&#45;@siteimprove/alfa&#45;command</title>
<polygon fill="#ffffff" stroke="transparent" points="-21.6,21.6 -21.6,-269.6 342.6,-269.6 342.6,21.6 -21.6,21.6"/>
<g id="clust1" class="cluster">
<title>cluster_src</title>
<polygon fill="#ffffff" stroke="#000000" points="8,-8 8,-240 313,-240 313,-8 8,-8"/>
</g>
<g id="clust2" class="cluster">
<title>cluster_src</title>
<polygon fill="#ffffff" stroke="#000000" points="16,-16 16,-232 305,-232 305,-16 16,-16"/>
</g>
<!-- src/argument.ts -->
<g id="node1" class="node">
<title>src/argument.ts</title>
<path fill="none" stroke="#000000" d="M104.83,-106C104.83,-106 31.17,-106 31.17,-106 27.33,-106 23.5,-102.17 23.5,-98.33 23.5,-98.33 23.5,-90.67 23.5,-90.67 23.5,-86.83 27.33,-83 31.17,-83 31.17,-83 104.83,-83 104.83,-83 108.67,-83 112.5,-86.83 112.5,-90.67 112.5,-90.67 112.5,-98.33 112.5,-98.33 112.5,-102.17 108.67,-106 104.83,-106"/>
<text text-anchor="middle" x="68" y="-90.8" font-family="Arial" font-size="14.00" fill="#000000">argument.ts</text>
</g>
<!-- exit_src -->
<!-- src/argument.ts&#45;&gt;exit_src -->
<!-- src/flag.ts -->
<g id="node2" class="node">
<title>src/flag.ts</title>
<path fill="none" stroke="#000000" d="M177.33,-106C177.33,-106 138.67,-106 138.67,-106 134.83,-106 131,-102.17 131,-98.33 131,-98.33 131,-90.67 131,-90.67 131,-86.83 134.83,-83 138.67,-83 138.67,-83 177.33,-83 177.33,-83 181.17,-83 185,-86.83 185,-90.67 185,-90.67 185,-98.33 185,-98.33 185,-102.17 181.17,-106 177.33,-106"/>
<text text-anchor="middle" x="158" y="-90.8" font-family="Arial" font-size="14.00" fill="#000000">flag.ts</text>
</g>
<!-- src/flag.ts&#45;&gt;exit_src -->
<!-- src/text.ts -->
<g id="node3" class="node">
<title>src/text.ts</title>
<path fill="none" stroke="#000000" d="M269.33,-106C269.33,-106 230.67,-106 230.67,-106 226.83,-106 223,-102.17 223,-98.33 223,-98.33 223,-90.67 223,-90.67 223,-86.83 226.83,-83 230.67,-83 230.67,-83 269.33,-83 269.33,-83 273.17,-83 277,-86.83 277,-90.67 277,-90.67 277,-98.33 277,-98.33 277,-102.17 273.17,-106 269.33,-106"/>
<text text-anchor="middle" x="250" y="-90.8" font-family="Arial" font-size="14.00" fill="#000000">text.ts</text>
</g>
<!-- src/text.ts&#45;&gt;exit_src -->
<!-- src/command.ts -->
<g id="node4" class="node">
<title>src/command.ts</title>
<path fill="none" stroke="#000000" d="M223.33,-165C223.33,-165 146.67,-165 146.67,-165 142.83,-165 139,-161.17 139,-157.33 139,-157.33 139,-149.67 139,-149.67 139,-145.83 142.83,-142 146.67,-142 146.67,-142 223.33,-142 223.33,-142 227.17,-142 231,-145.83 231,-149.67 231,-149.67 231,-157.33 231,-157.33 231,-161.17 227.17,-165 223.33,-165"/>
<text text-anchor="middle" x="185" y="-149.8" font-family="Arial" font-size="14.00" fill="#000000">command.ts</text>
</g>
<!-- src/command.ts&#45;&gt;src/argument.ts -->
<!-- src/command.ts&#45;&gt;src/argument.ts -->
<g id="edge12" class="edge">
<title>src/command.ts&#45;&gt;src/argument.ts</title>
<path fill="none" stroke="black" stroke-dasharray="1,5" d="M168.4,-141.78C151.74,-132.9 125.85,-120.19 104.47,-110.34"/>
<polygon fill="black" stroke="black" points="105.86,-107.13 95.31,-106.17 102.96,-113.5 105.86,-107.13"/>
</g>
<!-- src/command.ts&#45;&gt;src/flag.ts -->
<!-- src/command.ts&#45;&gt;src/flag.ts -->
<g id="edge14" class="edge">
<title>src/command.ts&#45;&gt;src/flag.ts</title>
<path fill="none" stroke="black" d="M185.33,-141.78C183.08,-134.22 178.52,-123.87 173.61,-114.88"/>
<polygon fill="black" stroke="black" points="176.56,-113 168.46,-106.17 170.54,-116.56 176.56,-113"/>
</g>
<!-- src/command.ts&#45;&gt;src/text.ts -->
<!-- src/command.ts&#45;&gt;src/text.ts -->
<g id="edge16" class="edge">
<title>src/command.ts&#45;&gt;src/text.ts</title>
<path fill="none" stroke="black" d="M202.64,-141.78C213.11,-133.82 226.01,-122.77 235.83,-113.47"/>
<polygon fill="black" stroke="black" points="238.57,-115.69 243.23,-106.17 233.65,-110.7 238.57,-115.69"/>
</g>
<!-- src/command.ts&#45;&gt;exit_src -->
<!-- exit_src&#45;&gt;exit_src -->
<!-- exit_src&#45;&gt;exit_src -->
<!-- exit_src&#45;&gt;exit_src -->
<!-- exit_src&#45;&gt;exit_src -->
<!-- exit_src&#45;&gt;exit_src -->
<!-- name_src -->
<g id="node6" class="node">
<title>name_src</title>
<path fill="none" stroke="#ff0000" stroke-width="5" d="M285.33,-224C285.33,-224 246.67,-224 246.67,-224 242.83,-224 239,-220.17 239,-216.33 239,-216.33 239,-208.67 239,-208.67 239,-204.83 242.83,-201 246.67,-201 246.67,-201 285.33,-201 285.33,-201 289.17,-201 293,-204.83 293,-208.67 293,-208.67 293,-216.33 293,-216.33 293,-220.17 289.17,-224 285.33,-224"/>
<text text-anchor="middle" x="266" y="-208.8" font-family="Arial" font-size="14.00" fill="#000000">src</text>
</g>
<!-- src/index.ts -->
<g id="node7" class="node">
<title>src/index.ts</title>
<path fill="none" stroke="#ff0000" stroke-width="5" d="M208.83,-224C208.83,-224 161.17,-224 161.17,-224 157.33,-224 153.5,-220.17 153.5,-216.33 153.5,-216.33 153.5,-208.67 153.5,-208.67 153.5,-204.83 157.33,-201 161.17,-201 161.17,-201 208.83,-201 208.83,-201 212.67,-201 216.5,-204.83 216.5,-208.67 216.5,-208.67 216.5,-216.33 216.5,-216.33 216.5,-220.17 212.67,-224 208.83,-224"/>
<text text-anchor="middle" x="185" y="-208.8" font-family="Arial" font-size="14.00" fill="#000000">index.ts</text>
</g>
<!-- src/index.ts&#45;&gt;src/argument.ts -->
<!-- src/index.ts&#45;&gt;src/argument.ts -->
<g id="edge18" class="edge">
<title>src/index.ts&#45;&gt;src/argument.ts</title>
<path fill="none" stroke="black" d="M175.62,-200.72C164.26,-191.91 146.07,-178.71 132,-165 115.79,-149.2 100.04,-128.61 87.88,-113.95"/>
<polygon fill="black" stroke="black" points="90.31,-111.41 81.15,-106.08 84.99,-115.96 90.31,-111.41"/>
</g>
<!-- src/index.ts&#45;&gt;src/flag.ts -->
<!-- src/index.ts&#45;&gt;src/flag.ts -->
<g id="edge22" class="edge">
<title>src/index.ts&#45;&gt;src/flag.ts</title>
<path fill="none" stroke="black" d="M172.94,-200.95C161.68,-192.94 146.26,-180.65 139,-165 131.26,-148.32 140.61,-128.87 149.01,-114.79"/>
<polygon fill="black" stroke="black" points="152.17,-116.35 154.46,-106 146.22,-112.66 152.17,-116.35"/>
</g>
<!-- src/index.ts&#45;&gt;src/text.ts -->
<!-- src/index.ts&#45;&gt;src/text.ts -->
<g id="edge24" class="edge">
<title>src/index.ts&#45;&gt;src/text.ts</title>
<path fill="none" stroke="black" d="M210.95,-200.94C224.86,-192.78 240.52,-180.31 249,-165 257.29,-150.04 259.49,-130.62 258.32,-116.1"/>
<polygon fill="black" stroke="black" points="261.76,-115.48 256.8,-106.12 254.84,-116.53 261.76,-115.48"/>
</g>
<!-- src/index.ts&#45;&gt;src/command.ts -->
<!-- src/index.ts&#45;&gt;src/command.ts -->
<g id="edge20" class="edge">
<title>src/index.ts&#45;&gt;src/command.ts</title>
<path fill="none" stroke="black" d="M190.41,-200.78C191.67,-193.61 192.04,-183.95 191.53,-175.31"/>
<polygon fill="black" stroke="black" points="194.98,-174.73 190.4,-165.17 188.03,-175.5 194.98,-174.73"/>
</g>
<!-- src/index.ts&#45;&gt;exit_src -->
</g>
</svg>
