<?xml version="1.0" encoding="UTF-8" standalone="no"?>
<!DOCTYPE svg PUBLIC "-//W3C//DTD SVG 1.1//EN"
 "http://www.w3.org/Graphics/SVG/1.1/DTD/svg11.dtd">
<!-- Generated by graphviz version 2.43.0 (0)
 -->
<!-- Title: dependency&#45;graph&#45;[object Object] Pages: 1 -->
<svg width="364pt" height="326pt"
 viewBox="0.00 0.00 364.20 326.20" xmlns="http://www.w3.org/2000/svg" xmlns:xlink="http://www.w3.org/1999/xlink">
<g id="graph0" class="graph" transform="scale(1 1) rotate(0) translate(21.6 304.6)">
<title>dependency&#45;graph&#45;[object Object]</title>
<polygon fill="#ffffff" stroke="transparent" points="-21.6,21.6 -21.6,-304.6 342.6,-304.6 342.6,21.6 -21.6,21.6"/>
<g id="clust1" class="cluster">
<title>cluster_src</title>
<polygon fill="#ffffff" stroke="#000000" points="8,-43 8,-275 313,-275 313,-43 8,-43"/>
</g>
<g id="clust2" class="cluster">
<title>cluster_src</title>
<polygon fill="#ffffff" stroke="#000000" points="16,-51 16,-267 305,-267 305,-51 16,-51"/>
</g>
<!-- dependency&#45;graph&#45;[object Object] -->
<!-- src/argument.ts -->
<g id="node2" class="node">
<title>src/argument.ts</title>
<path fill="none" stroke="#000000" d="M104.83,-141C104.83,-141 31.17,-141 31.17,-141 27.33,-141 23.5,-137.17 23.5,-133.33 23.5,-133.33 23.5,-125.67 23.5,-125.67 23.5,-121.83 27.33,-118 31.17,-118 31.17,-118 104.83,-118 104.83,-118 108.67,-118 112.5,-121.83 112.5,-125.67 112.5,-125.67 112.5,-133.33 112.5,-133.33 112.5,-137.17 108.67,-141 104.83,-141"/>
<text text-anchor="middle" x="68" y="-125.8" font-family="Arial" font-size="14.00" fill="#000000">argument.ts</text>
</g>
<!-- exit_src -->
<!-- src/argument.ts&#45;&gt;exit_src -->
<!-- src/flag.ts -->
<g id="node3" class="node">
<title>src/flag.ts</title>
<path fill="none" stroke="#000000" d="M177.33,-141C177.33,-141 138.67,-141 138.67,-141 134.83,-141 131,-137.17 131,-133.33 131,-133.33 131,-125.67 131,-125.67 131,-121.83 134.83,-118 138.67,-118 138.67,-118 177.33,-118 177.33,-118 181.17,-118 185,-121.83 185,-125.67 185,-125.67 185,-133.33 185,-133.33 185,-137.17 181.17,-141 177.33,-141"/>
<text text-anchor="middle" x="158" y="-125.8" font-family="Arial" font-size="14.00" fill="#000000">flag.ts</text>
</g>
<!-- src/flag.ts&#45;&gt;exit_src -->
<!-- src/text.ts -->
<g id="node4" class="node">
<title>src/text.ts</title>
<path fill="none" stroke="#000000" d="M269.33,-141C269.33,-141 230.67,-141 230.67,-141 226.83,-141 223,-137.17 223,-133.33 223,-133.33 223,-125.67 223,-125.67 223,-121.83 226.83,-118 230.67,-118 230.67,-118 269.33,-118 269.33,-118 273.17,-118 277,-121.83 277,-125.67 277,-125.67 277,-133.33 277,-133.33 277,-137.17 273.17,-141 269.33,-141"/>
<text text-anchor="middle" x="250" y="-125.8" font-family="Arial" font-size="14.00" fill="#000000">text.ts</text>
</g>
<!-- src/text.ts&#45;&gt;exit_src -->
<!-- src/command.ts -->
<g id="node5" class="node">
<title>src/command.ts</title>
<path fill="none" stroke="#000000" d="M223.33,-200C223.33,-200 146.67,-200 146.67,-200 142.83,-200 139,-196.17 139,-192.33 139,-192.33 139,-184.67 139,-184.67 139,-180.83 142.83,-177 146.67,-177 146.67,-177 223.33,-177 223.33,-177 227.17,-177 231,-180.83 231,-184.67 231,-184.67 231,-192.33 231,-192.33 231,-196.17 227.17,-200 223.33,-200"/>
<text text-anchor="middle" x="185" y="-184.8" font-family="Arial" font-size="14.00" fill="#000000">command.ts</text>
</g>
<!-- src/command.ts&#45;&gt;src/argument.ts -->
<!-- src/command.ts&#45;&gt;src/argument.ts -->
<g id="edge13" class="edge">
<title>src/command.ts&#45;&gt;src/argument.ts</title>
<path fill="none" stroke="black" d="M168.4,-176.78C151.74,-167.9 125.85,-155.19 104.47,-145.34"/>
<polygon fill="black" stroke="black" points="105.86,-142.13 95.31,-141.17 102.96,-148.5 105.86,-142.13"/>
</g>
<!-- src/command.ts&#45;&gt;src/flag.ts -->
<!-- src/command.ts&#45;&gt;src/flag.ts -->
<g id="edge15" class="edge">
<title>src/command.ts&#45;&gt;src/flag.ts</title>
<path fill="none" stroke="black" d="M185.33,-176.78C183.08,-169.22 178.52,-158.87 173.61,-149.88"/>
<polygon fill="black" stroke="black" points="176.56,-148 168.46,-141.17 170.54,-151.56 176.56,-148"/>
</g>
<!-- src/command.ts&#45;&gt;src/text.ts -->
<!-- src/command.ts&#45;&gt;src/text.ts -->
<g id="edge17" class="edge">
<title>src/command.ts&#45;&gt;src/text.ts</title>
<path fill="none" stroke="black" d="M202.64,-176.78C213.11,-168.82 226.01,-157.77 235.83,-148.47"/>
<polygon fill="black" stroke="black" points="238.57,-150.69 243.23,-141.17 233.65,-145.7 238.57,-150.69"/>
</g>
<!-- src/command.ts&#45;&gt;exit_src -->
<!-- name_src -->
<g id="node6" class="node">
<title>name_src</title>
<path fill="none" stroke="#ff0000" stroke-width="5" d="M285.33,-259C285.33,-259 246.67,-259 246.67,-259 242.83,-259 239,-255.17 239,-251.33 239,-251.33 239,-243.67 239,-243.67 239,-239.83 242.83,-236 246.67,-236 246.67,-236 285.33,-236 285.33,-236 289.17,-236 293,-239.83 293,-243.67 293,-243.67 293,-251.33 293,-251.33 293,-255.17 289.17,-259 285.33,-259"/>
<text text-anchor="middle" x="266" y="-243.8" font-family="Arial" font-size="14.00" fill="#000000">src</text>
</g>
<!-- exit_src&#45;&gt;dependency&#45;graph&#45;[object Object] -->
<!-- exit_src&#45;&gt;exit_src -->
<!-- exit_src&#45;&gt;exit_src -->
<!-- exit_src&#45;&gt;exit_src -->
<!-- exit_src&#45;&gt;exit_src -->
<!-- exit_src&#45;&gt;exit_src -->
<!-- src/index.ts -->
<g id="node8" class="node">
<title>src/index.ts</title>
<path fill="none" stroke="#ff0000" stroke-width="5" d="M208.83,-259C208.83,-259 161.17,-259 161.17,-259 157.33,-259 153.5,-255.17 153.5,-251.33 153.5,-251.33 153.5,-243.67 153.5,-243.67 153.5,-239.83 157.33,-236 161.17,-236 161.17,-236 208.83,-236 208.83,-236 212.67,-236 216.5,-239.83 216.5,-243.67 216.5,-243.67 216.5,-251.33 216.5,-251.33 216.5,-255.17 212.67,-259 208.83,-259"/>
<text text-anchor="middle" x="185" y="-243.8" font-family="Arial" font-size="14.00" fill="#000000">index.ts</text>
</g>
<!-- src/index.ts&#45;&gt;src/argument.ts -->
<!-- src/index.ts&#45;&gt;src/argument.ts -->
<g id="edge19" class="edge">
<title>src/index.ts&#45;&gt;src/argument.ts</title>
<path fill="none" stroke="black" d="M175.62,-235.72C164.26,-226.91 146.07,-213.71 132,-200 115.79,-184.2 100.04,-163.61 87.88,-148.95"/>
<polygon fill="black" stroke="black" points="90.31,-146.41 81.15,-141.08 84.99,-150.96 90.31,-146.41"/>
</g>
<!-- src/index.ts&#45;&gt;src/flag.ts -->
<!-- src/index.ts&#45;&gt;src/flag.ts -->
<g id="edge23" class="edge">
<title>src/index.ts&#45;&gt;src/flag.ts</title>
<path fill="none" stroke="black" d="M172.94,-235.95C161.68,-227.94 146.26,-215.65 139,-200 131.26,-183.32 140.61,-163.87 149.01,-149.79"/>
<polygon fill="black" stroke="black" points="152.17,-151.35 154.46,-141 146.22,-147.66 152.17,-151.35"/>
</g>
<!-- src/index.ts&#45;&gt;src/text.ts -->
<!-- src/index.ts&#45;&gt;src/text.ts -->
<g id="edge25" class="edge">
<title>src/index.ts&#45;&gt;src/text.ts</title>
<path fill="none" stroke="black" d="M210.95,-235.94C224.86,-227.78 240.52,-215.31 249,-200 257.29,-185.04 259.49,-165.62 258.32,-151.1"/>
<polygon fill="black" stroke="black" points="261.76,-150.48 256.8,-141.12 254.84,-151.53 261.76,-150.48"/>
</g>
<!-- src/index.ts&#45;&gt;src/command.ts -->
<!-- src/index.ts&#45;&gt;src/command.ts -->
<g id="edge21" class="edge">
<title>src/index.ts&#45;&gt;src/command.ts</title>
<path fill="none" stroke="black" d="M190.41,-235.78C191.67,-228.61 192.04,-218.95 191.53,-210.31"/>
<polygon fill="black" stroke="black" points="194.98,-209.73 190.4,-200.17 188.03,-210.5 194.98,-209.73"/>
</g>
<!-- src/index.ts&#45;&gt;exit_src -->
</g>
</svg>
