<?xml version="1.0" encoding="UTF-8" standalone="no"?>
<!DOCTYPE svg PUBLIC "-//W3C//DTD SVG 1.1//EN"
 "http://www.w3.org/Graphics/SVG/1.1/DTD/svg11.dtd">
<!-- Generated by graphviz version 14.0.2 (20251019.1705)
 -->
<!-- Title: dependency&#45;graph&#45;@siteimprove/alfa&#45;command Pages: 1 -->
<svg width="409pt" height="278pt"
 viewBox="0.00 0.00 409.00 278.00" xmlns="http://www.w3.org/2000/svg" xmlns:xlink="http://www.w3.org/1999/xlink">
<g id="graph0" class="graph" transform="scale(1 1) rotate(0) translate(21.6 256.6)">
<title>dependency&#45;graph&#45;@siteimprove/alfa&#45;command</title>
<polygon fill="#ffffff" stroke="none" points="-21.6,21.6 -21.6,-256.6 387.6,-256.6 387.6,21.6 -21.6,21.6"/>
<g id="clust1" class="cluster">
<title>cluster_src</title>
<polygon fill="#ffffff" stroke="#000000" points="8,-8 8,-227 358,-227 358,-8 8,-8"/>
</g>
<!-- src/argument.ts -->
<g id="node1" class="node">
<title>src/argument.ts</title>
<path fill="none" stroke="#000000" d="M117.96,-99.5C117.96,-99.5 24.04,-99.5 24.04,-99.5 20.08,-99.5 16.12,-95.54 16.12,-91.58 16.12,-91.58 16.12,-83.67 16.12,-83.67 16.12,-79.71 20.08,-75.75 24.04,-75.75 24.04,-75.75 117.96,-75.75 117.96,-75.75 121.92,-75.75 125.88,-79.71 125.88,-83.67 125.88,-83.67 125.88,-91.58 125.88,-91.58 125.88,-95.54 121.92,-99.5 117.96,-99.5"/>
<text xml:space="preserve" text-anchor="middle" x="71" y="-82.2" font-family="Arial" font-size="14.00" fill="#000000">src/argument.ts</text>
</g>
<!-- exit_src -->
<!-- src/argument.ts&#45;&gt;exit_src -->
<!-- src/flag.ts -->
<g id="node2" class="node">
<title>src/flag.ts</title>
<path fill="none" stroke="#000000" d="M209.96,-99.5C209.96,-99.5 152.04,-99.5 152.04,-99.5 148.08,-99.5 144.12,-95.54 144.12,-91.58 144.12,-91.58 144.12,-83.67 144.12,-83.67 144.12,-79.71 148.08,-75.75 152.04,-75.75 152.04,-75.75 209.96,-75.75 209.96,-75.75 213.92,-75.75 217.88,-79.71 217.88,-83.67 217.88,-83.67 217.88,-91.58 217.88,-91.58 217.88,-95.54 213.92,-99.5 209.96,-99.5"/>
<text xml:space="preserve" text-anchor="middle" x="181" y="-82.2" font-family="Arial" font-size="14.00" fill="#000000">src/flag.ts</text>
</g>
<!-- src/flag.ts&#45;&gt;exit_src -->
<!-- src/text.ts -->
<g id="node3" class="node">
<title>src/text.ts</title>
<path fill="none" stroke="#000000" d="M321.96,-99.5C321.96,-99.5 264.04,-99.5 264.04,-99.5 260.08,-99.5 256.12,-95.54 256.12,-91.58 256.12,-91.58 256.12,-83.67 256.12,-83.67 256.12,-79.71 260.08,-75.75 264.04,-75.75 264.04,-75.75 321.96,-75.75 321.96,-75.75 325.92,-75.75 329.88,-79.71 329.88,-83.67 329.88,-83.67 329.88,-91.58 329.88,-91.58 329.88,-95.54 325.92,-99.5 321.96,-99.5"/>
<text xml:space="preserve" text-anchor="middle" x="293" y="-82.2" font-family="Arial" font-size="14.00" fill="#000000">src/text.ts</text>
</g>
<!-- src/text.ts&#45;&gt;exit_src -->
<!-- src/command.ts -->
<g id="node4" class="node">
<title>src/command.ts</title>
<path fill="none" stroke="#000000" d="M266.46,-159.25C266.46,-159.25 169.54,-159.25 169.54,-159.25 165.58,-159.25 161.62,-155.29 161.62,-151.33 161.62,-151.33 161.62,-143.42 161.62,-143.42 161.62,-139.46 165.58,-135.5 169.54,-135.5 169.54,-135.5 266.46,-135.5 266.46,-135.5 270.42,-135.5 274.38,-139.46 274.38,-143.42 274.38,-143.42 274.38,-151.33 274.38,-151.33 274.38,-155.29 270.42,-159.25 266.46,-159.25"/>
<text xml:space="preserve" text-anchor="middle" x="218" y="-141.95" font-family="Arial" font-size="14.00" fill="#000000">src/command.ts</text>
</g>
<!-- src/command.ts&#45;&gt;src/argument.ts -->
<!-- src/command.ts&#45;&gt;src/argument.ts -->
<g id="edge7" class="edge">
<title>src/command.ts&#45;&gt;src/argument.ts</title>
<path fill="none" stroke="black" stroke-dasharray="1,5" d="M194.79,-135.1C173.68,-126.23 142.14,-113.77 116.13,-103.98"/>
<polygon fill="black" stroke="black" points="117.37,-100.71 106.78,-100.5 114.93,-107.27 117.37,-100.71"/>
</g>
<!-- src/command.ts&#45;&gt;src/flag.ts -->
<!-- src/command.ts&#45;&gt;src/flag.ts -->
<g id="edge9" class="edge">
<title>src/command.ts&#45;&gt;src/flag.ts</title>
<path fill="none" stroke="black" d="M216.32,-135.24C212.78,-127.73 206.63,-117.61 200.33,-108.71"/>
<polygon fill="black" stroke="black" points="203.29,-106.82 194.47,-100.93 197.7,-111.03 203.29,-106.82"/>
</g>
<!-- src/command.ts&#45;&gt;src/text.ts -->
<!-- src/command.ts&#45;&gt;src/text.ts -->
<g id="edge11" class="edge">
<title>src/command.ts&#45;&gt;src/text.ts</title>
<path fill="none" stroke="black" d="M237.92,-135.24C249.64,-127.25 264.15,-116.3 275.44,-107.03"/>
<polygon fill="black" stroke="black" points="277.53,-109.85 282.88,-100.71 272.99,-104.51 277.53,-109.85"/>
</g>
<!-- src/command.ts&#45;&gt;exit_src -->
<!-- src/index.ts -->
<g id="node6" class="node">
<title>src/index.ts</title>
<path fill="none" stroke="#ff0000" stroke-width="5" d="M252.21,-219C252.21,-219 183.79,-219 183.79,-219 179.83,-219 175.88,-215.04 175.88,-211.08 175.88,-211.08 175.88,-203.17 175.88,-203.17 175.88,-199.21 179.83,-195.25 183.79,-195.25 183.79,-195.25 252.21,-195.25 252.21,-195.25 256.17,-195.25 260.12,-199.21 260.12,-203.17 260.12,-203.17 260.12,-211.08 260.12,-211.08 260.12,-215.04 256.17,-219 252.21,-219"/>
<text xml:space="preserve" text-anchor="middle" x="218" y="-201.7" font-family="Arial" font-size="14.00" fill="#000000">src/index.ts</text>
</g>
<!-- src/index.ts&#45;&gt;src/argument.ts -->
<!-- src/index.ts&#45;&gt;src/argument.ts -->
<g id="edge13" class="edge">
<title>src/index.ts&#45;&gt;src/argument.ts</title>
<path fill="none" stroke="black" d="M202.94,-192.75C189.7,-183.87 170.71,-171.6 155,-159.25 134.36,-143.02 112.72,-122.18 96.33,-107.35"/>
<polygon fill="black" stroke="black" points="98.74,-104.81 88.93,-100.8 94.1,-110.05 98.74,-104.81"/>
</g>
<!-- src/index.ts&#45;&gt;src/flag.ts -->
<!-- src/index.ts&#45;&gt;src/flag.ts -->
<g id="edge17" class="edge">
<title>src/index.ts&#45;&gt;src/flag.ts</title>
<path fill="none" stroke="black" d="M196.65,-192.88C184.12,-185.15 169.54,-173.99 162,-159.25 153.68,-143 162.54,-123.68 171.02,-109.35"/>
<polygon fill="black" stroke="black" points="173.77,-111.55 176.07,-101.21 167.82,-107.86 173.77,-111.55"/>
</g>
<!-- src/index.ts&#45;&gt;src/text.ts -->
<!-- src/index.ts&#45;&gt;src/text.ts -->
<g id="edge19" class="edge">
<title>src/index.ts&#45;&gt;src/text.ts</title>
<path fill="none" stroke="black" d="M253.95,-192.79C268.3,-184.92 283.3,-173.66 292,-159.25 300.75,-144.76 303.01,-125.6 301.84,-110.9"/>
<polygon fill="black" stroke="black" points="305.34,-110.63 300.35,-101.29 298.42,-111.7 305.34,-110.63"/>
</g>
<!-- src/index.ts&#45;&gt;src/command.ts -->
<!-- src/index.ts&#45;&gt;src/command.ts -->
<g id="edge15" class="edge">
<title>src/index.ts&#45;&gt;src/command.ts</title>
<path fill="none" stroke="black" d="M223.76,-193.02C224.68,-186.46 224.96,-178.33 224.6,-170.82"/>
<polygon fill="black" stroke="black" points="228.09,-170.59 223.61,-160.99 221.13,-171.29 228.09,-170.59"/>
</g>
<!-- src/index.ts&#45;&gt;exit_src -->
</g>
</svg>
