<?xml version="1.0" encoding="UTF-8" standalone="no"?>
<!DOCTYPE svg PUBLIC "-//W3C//DTD SVG 1.1//EN"
 "http://www.w3.org/Graphics/SVG/1.1/DTD/svg11.dtd">
<!-- Generated by graphviz version 2.43.0 (0)
 -->
<!-- Title: dependency&#45;graph&#45;[object Object] Pages: 1 -->
<svg width="581pt" height="798pt"
 viewBox="0.00 0.00 581.20 798.20" xmlns="http://www.w3.org/2000/svg" xmlns:xlink="http://www.w3.org/1999/xlink">
<g id="graph0" class="graph" transform="scale(1 1) rotate(0) translate(21.6 776.6)">
<title>dependency&#45;graph&#45;[object Object]</title>
<polygon fill="#ffffff" stroke="transparent" points="-21.6,21.6 -21.6,-776.6 559.6,-776.6 559.6,21.6 -21.6,21.6"/>
<g id="clust1" class="cluster">
<title>cluster_src</title>
<polygon fill="#ffffff" stroke="#000000" points="8,-43 8,-747 530,-747 530,-43 8,-43"/>
</g>
<g id="clust2" class="cluster">
<title>cluster_src</title>
<polygon fill="#ffffff" stroke="#000000" points="16,-51 16,-739 522,-739 522,-51 16,-51"/>
</g>
<g id="clust3" class="cluster">
<title>cluster_src/alfa</title>
<polygon fill="#ffffff" stroke="#000000" points="24,-110 24,-688 432,-688 432,-110 24,-110"/>
</g>
<g id="clust4" class="cluster">
<title>cluster_src/alfa/command</title>
<polygon fill="#ffffff" stroke="#000000" points="94,-228 94,-680 412,-680 412,-228 94,-228"/>
</g>
<g id="clust5" class="cluster">
<title>cluster_src/alfa/command/audit</title>
<polygon fill="#ffffff" stroke="#000000" points="182,-464 182,-621 392,-621 392,-464 182,-464"/>
</g>
<g id="clust6" class="cluster">
<title>cluster_src/alfa/command/scrape</title>
<polygon fill="#ffffff" stroke="#000000" points="114,-287 114,-444 328,-444 328,-287 114,-287"/>
</g>
<!-- dependency&#45;graph&#45;[object Object] -->
<!-- src/alfa/command/audit.ts -->
<g id="node2" class="node">
<title>src/alfa/command/audit.ts</title>
<path fill="none" stroke="#000000" d="M379.33,-672C379.33,-672 334.67,-672 334.67,-672 330.83,-672 327,-668.17 327,-664.33 327,-664.33 327,-656.67 327,-656.67 327,-652.83 330.83,-649 334.67,-649 334.67,-649 379.33,-649 379.33,-649 383.17,-649 387,-652.83 387,-656.67 387,-656.67 387,-664.33 387,-664.33 387,-668.17 383.17,-672 379.33,-672"/>
<text text-anchor="middle" x="357" y="-656.8" font-family="Arial" font-size="14.00" fill="#000000">audit.ts</text>
</g>
<!-- name_src/alfa/command/audit -->
<g id="node7" class="node">
<title>name_src/alfa/command/audit</title>
<path fill="none" stroke="#ff0000" stroke-width="5" d="M376.33,-613C376.33,-613 337.67,-613 337.67,-613 333.83,-613 330,-609.17 330,-605.33 330,-605.33 330,-597.67 330,-597.67 330,-593.83 333.83,-590 337.67,-590 337.67,-590 376.33,-590 376.33,-590 380.17,-590 384,-593.83 384,-597.67 384,-597.67 384,-605.33 384,-605.33 384,-609.17 380.17,-613 376.33,-613"/>
<text text-anchor="middle" x="357" y="-597.8" font-family="Arial" font-size="14.00" fill="#000000">audit</text>
</g>
<!-- src/alfa/command/audit.ts&#45;&gt;name_src/alfa/command/audit -->
<g id="edge51" class="edge">
<title>src/alfa/command/audit.ts&#45;&gt;name_src/alfa/command/audit</title>
<path fill="none" stroke="#ccff00" d="M346.18,-648.78C343.64,-641.53 342.9,-631.74 343.98,-623.02"/>
<polygon fill="#ccff00" stroke="#ccff00" points="343.05,-631.38 345.19,-621 337.05,-627.78 343.05,-631.38"/>
</g>
<!-- src/alfa/command/audit.ts&#45;&gt;name_src/alfa/command/audit -->
<!-- src/alfa/command/audit.ts&#45;&gt;name_src/alfa/command/audit -->
<!-- exit_src/alfa/command -->
<!-- src/alfa/command/audit.ts&#45;&gt;exit_src/alfa/command -->
<!-- name_src/alfa -->
<g id="node3" class="node">
<title>name_src/alfa</title>
<path fill="none" stroke="#cc00ff" stroke-width="5" d="M78.33,-672C78.33,-672 39.67,-672 39.67,-672 35.83,-672 32,-668.17 32,-664.33 32,-664.33 32,-656.67 32,-656.67 32,-652.83 35.83,-649 39.67,-649 39.67,-649 78.33,-649 78.33,-649 82.17,-649 86,-652.83 86,-656.67 86,-656.67 86,-664.33 86,-664.33 86,-668.17 82.17,-672 78.33,-672"/>
<text text-anchor="middle" x="59" y="-656.8" font-family="Arial" font-size="14.00" fill="#000000">alfa</text>
</g>
<!-- src/alfa/command/scrape.ts -->
<g id="node4" class="node">
<title>src/alfa/command/scrape.ts</title>
<path fill="none" stroke="#000000" d="M165.83,-495C165.83,-495 110.17,-495 110.17,-495 106.33,-495 102.5,-491.17 102.5,-487.33 102.5,-487.33 102.5,-479.67 102.5,-479.67 102.5,-475.83 106.33,-472 110.17,-472 110.17,-472 165.83,-472 165.83,-472 169.67,-472 173.5,-475.83 173.5,-479.67 173.5,-479.67 173.5,-487.33 173.5,-487.33 173.5,-491.17 169.67,-495 165.83,-495"/>
<text text-anchor="middle" x="138" y="-479.8" font-family="Arial" font-size="14.00" fill="#000000">scrape.ts</text>
</g>
<!-- name_src/alfa/command/scrape -->
<g id="node12" class="node">
<title>name_src/alfa/command/scrape</title>
<path fill="none" stroke="#0066ff" stroke-width="5" d="M277.83,-436C277.83,-436 236.17,-436 236.17,-436 232.33,-436 228.5,-432.17 228.5,-428.33 228.5,-428.33 228.5,-420.67 228.5,-420.67 228.5,-416.83 232.33,-413 236.17,-413 236.17,-413 277.83,-413 277.83,-413 281.67,-413 285.5,-416.83 285.5,-420.67 285.5,-420.67 285.5,-428.33 285.5,-428.33 285.5,-432.17 281.67,-436 277.83,-436"/>
<text text-anchor="middle" x="257" y="-420.8" font-family="Arial" font-size="14.00" fill="#000000">scrape</text>
</g>
<!-- src/alfa/command/scrape.ts&#45;&gt;name_src/alfa/command/scrape -->
<g id="edge62" class="edge">
<title>src/alfa/command/scrape.ts&#45;&gt;name_src/alfa/command/scrape</title>
<path fill="none" stroke="#ccff00" d="M145.38,-471.93C156.58,-465.43 174.39,-456.79 191.57,-448.53"/>
<polygon fill="#ccff00" stroke="#ccff00" points="193.5,-451.49 201,-444 190.47,-445.18 193.5,-451.49"/>
</g>
<!-- src/alfa/command/scrape.ts&#45;&gt;name_src/alfa/command/scrape -->
<!-- src/alfa/command/scrape.ts&#45;&gt;name_src/alfa/command/scrape -->
<!-- src/alfa/command/scrape.ts&#45;&gt;exit_src/alfa/command -->
<!-- src/pkg.ts -->
<g id="node5" class="node">
<title>src/pkg.ts</title>
<path fill="none" stroke="#000000" d="M486.33,-672C486.33,-672 447.67,-672 447.67,-672 443.83,-672 440,-668.17 440,-664.33 440,-664.33 440,-656.67 440,-656.67 440,-652.83 443.83,-649 447.67,-649 447.67,-649 486.33,-649 486.33,-649 490.17,-649 494,-652.83 494,-656.67 494,-656.67 494,-664.33 494,-664.33 494,-668.17 490.17,-672 486.33,-672"/>
<text text-anchor="middle" x="467" y="-656.8" font-family="Arial" font-size="14.00" fill="#000000">pkg.ts</text>
</g>
<!-- exit_src -->
<!-- src/pkg.ts&#45;&gt;exit_src -->
<!-- src/alfa/command/audit/arguments.ts -->
<g id="node6" class="node">
<title>src/alfa/command/audit/arguments.ts</title>
<path fill="none" stroke="#000000" d="M375.83,-554C375.83,-554 296.17,-554 296.17,-554 292.33,-554 288.5,-550.17 288.5,-546.33 288.5,-546.33 288.5,-538.67 288.5,-538.67 288.5,-534.83 292.33,-531 296.17,-531 296.17,-531 375.83,-531 375.83,-531 379.67,-531 383.5,-534.83 383.5,-538.67 383.5,-538.67 383.5,-546.33 383.5,-546.33 383.5,-550.17 379.67,-554 375.83,-554"/>
<text text-anchor="middle" x="336" y="-538.8" font-family="Arial" font-size="14.00" fill="#000000">arguments.ts</text>
</g>
<!-- exit_src/alfa/command/audit -->
<!-- src/alfa/command/audit/arguments.ts&#45;&gt;exit_src/alfa/command/audit -->
<!-- src/alfa/command/audit/flags.ts -->
<g id="node8" class="node">
<title>src/alfa/command/audit/flags.ts</title>
<path fill="none" stroke="#000000" d="M241.83,-554C241.83,-554 198.17,-554 198.17,-554 194.33,-554 190.5,-550.17 190.5,-546.33 190.5,-546.33 190.5,-538.67 190.5,-538.67 190.5,-534.83 194.33,-531 198.17,-531 198.17,-531 241.83,-531 241.83,-531 245.67,-531 249.5,-534.83 249.5,-538.67 249.5,-538.67 249.5,-546.33 249.5,-546.33 249.5,-550.17 245.67,-554 241.83,-554"/>
<text text-anchor="middle" x="220" y="-538.8" font-family="Arial" font-size="14.00" fill="#000000">flags.ts</text>
</g>
<!-- src/alfa/command/audit/flags.ts&#45;&gt;exit_src/alfa/command/audit -->
<!-- src/alfa/command/audit/run.ts -->
<g id="node9" class="node">
<title>src/alfa/command/audit/run.ts</title>
<path fill="none" stroke="#000000" d="M296.33,-613C296.33,-613 257.67,-613 257.67,-613 253.83,-613 250,-609.17 250,-605.33 250,-605.33 250,-597.67 250,-597.67 250,-593.83 253.83,-590 257.67,-590 257.67,-590 296.33,-590 296.33,-590 300.17,-590 304,-593.83 304,-597.67 304,-597.67 304,-605.33 304,-605.33 304,-609.17 300.17,-613 296.33,-613"/>
<text text-anchor="middle" x="277" y="-597.8" font-family="Arial" font-size="14.00" fill="#000000">run.ts</text>
</g>
<!-- src/alfa/command/audit/run.ts&#45;&gt;src/alfa/command/audit/arguments.ts -->
<!-- src/alfa/command/audit/run.ts&#45;&gt;src/alfa/command/audit/arguments.ts -->
<g id="edge56" class="edge">
<title>src/alfa/command/audit/run.ts&#45;&gt;src/alfa/command/audit/arguments.ts</title>
<path fill="none" stroke="black" stroke-dasharray="1,5" d="M293.51,-589.78C303.05,-581.9 314.65,-570.99 323.45,-561.75"/>
<polygon fill="black" stroke="black" points="326.21,-563.92 330.36,-554.17 321.03,-559.21 326.21,-563.92"/>
</g>
<!-- src/alfa/command/audit/run.ts&#45;&gt;src/alfa/command/audit/flags.ts -->
<!-- src/alfa/command/audit/run.ts&#45;&gt;src/alfa/command/audit/flags.ts -->
<g id="edge58" class="edge">
<title>src/alfa/command/audit/run.ts&#45;&gt;src/alfa/command/audit/flags.ts</title>
<path fill="none" stroke="black" stroke-dasharray="1,5" d="M271.69,-589.78C264.99,-581.66 253.95,-570.33 243.69,-560.92"/>
<polygon fill="black" stroke="black" points="245.88,-558.18 236.08,-554.17 241.24,-563.42 245.88,-558.18"/>
</g>
<!-- src/alfa/command/audit/run.ts&#45;&gt;exit_src/alfa/command/audit -->
<!-- src/alfa/profiler.ts -->
<g id="node14" class="node">
<title>src/alfa/profiler.ts</title>
<path fill="none" stroke="#000000" d="M366.83,-200C366.83,-200 311.17,-200 311.17,-200 307.33,-200 303.5,-196.17 303.5,-192.33 303.5,-192.33 303.5,-184.67 303.5,-184.67 303.5,-180.83 307.33,-177 311.17,-177 311.17,-177 366.83,-177 366.83,-177 370.67,-177 374.5,-180.83 374.5,-184.67 374.5,-184.67 374.5,-192.33 374.5,-192.33 374.5,-196.17 370.67,-200 366.83,-200"/>
<text text-anchor="middle" x="339" y="-184.8" font-family="Arial" font-size="14.00" fill="#000000">profiler.ts</text>
</g>
<!-- src/alfa/command/audit/run.ts&#45;&gt;src/alfa/profiler.ts -->
<!-- src/alfa/command/scrape/flags.ts -->
<g id="node10" class="node">
<title>src/alfa/command/scrape/flags.ts</title>
<path fill="none" stroke="#000000" d="M173.83,-377C173.83,-377 130.17,-377 130.17,-377 126.33,-377 122.5,-373.17 122.5,-369.33 122.5,-369.33 122.5,-361.67 122.5,-361.67 122.5,-357.83 126.33,-354 130.17,-354 130.17,-354 173.83,-354 173.83,-354 177.67,-354 181.5,-357.83 181.5,-361.67 181.5,-361.67 181.5,-369.33 181.5,-369.33 181.5,-373.17 177.67,-377 173.83,-377"/>
<text text-anchor="middle" x="152" y="-361.8" font-family="Arial" font-size="14.00" fill="#000000">flags.ts</text>
</g>
<!-- exit_src/alfa/command/scrape -->
<!-- src/alfa/command/scrape/flags.ts&#45;&gt;exit_src/alfa/command/scrape -->
<!-- exit_src/alfa/command/audit&#45;&gt;name_src/alfa/command/scrape -->
<g id="edge54" class="edge">
<title>exit_src/alfa/command/audit&#45;&gt;name_src/alfa/command/scrape</title>
<path fill="none" stroke="#ff0000" d="M271.57,-464C267.87,-458.07 264.25,-451.48 261.38,-445.45"/>
<polygon fill="#ff0000" stroke="#ff0000" points="268.89,-450.34 260.4,-444 263.08,-454.25 268.89,-450.34"/>
</g>
<!-- exit_src/alfa/command/audit&#45;&gt;name_src/alfa/command/scrape -->
<!-- exit_src/alfa/command/audit&#45;&gt;exit_src/alfa/command -->
<!-- exit_src/alfa/command/audit&#45;&gt;exit_src/alfa/command -->
<!-- exit_src/alfa/command/audit&#45;&gt;exit_src/alfa/command -->
<!-- src/alfa/command/scrape/run.ts -->
<g id="node13" class="node">
<title>src/alfa/command/scrape/run.ts</title>
<path fill="none" stroke="#000000" d="M202.33,-436C202.33,-436 163.67,-436 163.67,-436 159.83,-436 156,-432.17 156,-428.33 156,-428.33 156,-420.67 156,-420.67 156,-416.83 159.83,-413 163.67,-413 163.67,-413 202.33,-413 202.33,-413 206.17,-413 210,-416.83 210,-420.67 210,-420.67 210,-428.33 210,-428.33 210,-432.17 206.17,-436 202.33,-436"/>
<text text-anchor="middle" x="183" y="-420.8" font-family="Arial" font-size="14.00" fill="#000000">run.ts</text>
</g>
<!-- src/alfa/command/scrape/run.ts&#45;&gt;src/alfa/command/scrape/flags.ts -->
<!-- src/alfa/command/scrape/run.ts&#45;&gt;src/alfa/command/scrape/flags.ts -->
<g id="edge68" class="edge">
<title>src/alfa/command/scrape/run.ts&#45;&gt;src/alfa/command/scrape/flags.ts</title>
<path fill="none" stroke="black" stroke-dasharray="1,5" d="M182.58,-412.78C179.76,-405.14 174.4,-394.65 168.8,-385.6"/>
<polygon fill="black" stroke="black" points="171.65,-383.57 163.21,-377.17 165.82,-387.44 171.65,-383.57"/>
</g>
<!-- src/alfa/command/scrape/arguments.ts -->
<g id="node16" class="node">
<title>src/alfa/command/scrape/arguments.ts</title>
<path fill="none" stroke="#000000" d="M286.83,-377C286.83,-377 207.17,-377 207.17,-377 203.33,-377 199.5,-373.17 199.5,-369.33 199.5,-369.33 199.5,-361.67 199.5,-361.67 199.5,-357.83 203.33,-354 207.17,-354 207.17,-354 286.83,-354 286.83,-354 290.67,-354 294.5,-357.83 294.5,-361.67 294.5,-361.67 294.5,-369.33 294.5,-369.33 294.5,-373.17 290.67,-377 286.83,-377"/>
<text text-anchor="middle" x="247" y="-361.8" font-family="Arial" font-size="14.00" fill="#000000">arguments.ts</text>
</g>
<!-- src/alfa/command/scrape/run.ts&#45;&gt;src/alfa/command/scrape/arguments.ts -->
<!-- src/alfa/command/scrape/run.ts&#45;&gt;src/alfa/command/scrape/arguments.ts -->
<g id="edge66" class="edge">
<title>src/alfa/command/scrape/run.ts&#45;&gt;src/alfa/command/scrape/arguments.ts</title>
<path fill="none" stroke="black" stroke-dasharray="1,5" d="M200.45,-412.78C210.79,-404.82 223.49,-393.77 233.14,-384.47"/>
<polygon fill="black" stroke="black" points="235.84,-386.73 240.42,-377.17 230.88,-381.78 235.84,-386.73"/>
</g>
<!-- src/alfa/command/scrape/run.ts&#45;&gt;exit_src/alfa/command/scrape -->
<!-- exit_src/alfa -->
<!-- src/alfa/profiler.ts&#45;&gt;exit_src/alfa -->
<!-- exit_src/alfa/command&#45;&gt;src/alfa/profiler.ts -->
<g id="edge61" class="edge">
<title>exit_src/alfa/command&#45;&gt;src/alfa/profiler.ts</title>
<path fill="none" stroke="#ccff00" d="M301.85,-228C308.2,-221.42 315.35,-214.01 321.66,-207.47"/>
<polygon fill="#ccff00" stroke="#ccff00" points="324.28,-209.8 328.7,-200.17 319.24,-204.94 324.28,-209.8"/>
</g>
<!-- exit_src/alfa/command&#45;&gt;exit_src/alfa -->
<!-- exit_src/alfa/command&#45;&gt;exit_src/alfa -->
<!-- exit_src/alfa/command&#45;&gt;exit_src/alfa -->
<!-- exit_src/alfa/command&#45;&gt;exit_src/alfa -->
<!-- exit_src/alfa/command&#45;&gt;exit_src/alfa -->
<!-- exit_src/alfa/command&#45;&gt;exit_src/alfa -->
<!-- exit_src/alfa/command&#45;&gt;exit_src/alfa -->
<!-- exit_src/alfa/command&#45;&gt;exit_src/alfa -->
<!-- src/alfa/command/scrape/arguments.ts&#45;&gt;exit_src/alfa/command/scrape -->
<!-- name_src -->
<g id="node17" class="node">
<title>name_src</title>
<path fill="none" stroke="#00ff66" stroke-width="5" d="M506.33,-731C506.33,-731 467.67,-731 467.67,-731 463.83,-731 460,-727.17 460,-723.33 460,-723.33 460,-715.67 460,-715.67 460,-711.83 463.83,-708 467.67,-708 467.67,-708 506.33,-708 506.33,-708 510.17,-708 514,-711.83 514,-715.67 514,-715.67 514,-723.33 514,-723.33 514,-727.17 510.17,-731 506.33,-731"/>
<text text-anchor="middle" x="487" y="-715.8" font-family="Arial" font-size="14.00" fill="#000000">src</text>
</g>
<!-- exit_src&#45;&gt;dependency&#45;graph&#45;[object Object] -->
<!-- exit_src&#45;&gt;exit_src -->
<!-- exit_src&#45;&gt;exit_src -->
<!-- exit_src&#45;&gt;exit_src -->
<!-- exit_src&#45;&gt;exit_src -->
<!-- exit_src&#45;&gt;exit_src -->
<!-- exit_src&#45;&gt;exit_src -->
<!-- exit_src&#45;&gt;exit_src -->
<!-- exit_src&#45;&gt;exit_src -->
<!-- exit_src&#45;&gt;exit_src -->
<!-- exit_src&#45;&gt;exit_src -->
<!-- exit_src&#45;&gt;exit_src -->
<!-- src/alfa.ts -->
<g id="node19" class="node">
<title>src/alfa.ts</title>
<path fill="none" stroke="#000000" d="M434.33,-731C434.33,-731 395.67,-731 395.67,-731 391.83,-731 388,-727.17 388,-723.33 388,-723.33 388,-715.67 388,-715.67 388,-711.83 391.83,-708 395.67,-708 395.67,-708 434.33,-708 434.33,-708 438.17,-708 442,-711.83 442,-715.67 442,-715.67 442,-723.33 442,-723.33 442,-727.17 438.17,-731 434.33,-731"/>
<text text-anchor="middle" x="415" y="-715.8" font-family="Arial" font-size="14.00" fill="#000000">alfa.ts</text>
</g>
<!-- src/alfa.ts&#45;&gt;name_src/alfa -->
<g id="edge47" class="edge">
<title>src/alfa.ts&#45;&gt;name_src/alfa</title>
<path fill="none" stroke="#00ff66" d="M387.57,-718.13C321.33,-716.88 154.43,-711.68 90.66,-691.51"/>
<polygon fill="#00ff66" stroke="#00ff66" points="91.59,-688.13 81,-688 89.2,-694.7 91.59,-688.13"/>
</g>
<!-- src/alfa.ts&#45;&gt;name_src/alfa -->
<!-- src/alfa.ts&#45;&gt;src/pkg.ts -->
<!-- src/alfa.ts&#45;&gt;src/pkg.ts -->
<g id="edge50" class="edge">
<title>src/alfa.ts&#45;&gt;src/pkg.ts</title>
<path fill="none" stroke="black" d="M430.19,-707.78C438.68,-699.98 448.82,-689.21 456.46,-680.03"/>
<polygon fill="black" stroke="black" points="459.22,-682.19 462.67,-672.17 453.72,-677.85 459.22,-682.19"/>
</g>
<!-- src/alfa.ts&#45;&gt;exit_src -->
<!-- exit_src/alfa&#45;&gt;exit_src -->
<!-- exit_src/alfa&#45;&gt;exit_src -->
<!-- exit_src/alfa&#45;&gt;exit_src -->
<!-- exit_src/alfa&#45;&gt;exit_src -->
<!-- exit_src/alfa&#45;&gt;exit_src -->
<!-- exit_src/alfa&#45;&gt;exit_src -->
<!-- exit_src/alfa&#45;&gt;exit_src -->
<!-- exit_src/alfa&#45;&gt;exit_src -->
<!-- exit_src/alfa&#45;&gt;exit_src -->
<!-- name_src/alfa/command -->
<g id="node21" class="node">
<title>name_src/alfa/command</title>
<path fill="none" stroke="#ccff00" stroke-width="5" d="M237.83,-672C237.83,-672 176.17,-672 176.17,-672 172.33,-672 168.5,-668.17 168.5,-664.33 168.5,-664.33 168.5,-656.67 168.5,-656.67 168.5,-652.83 172.33,-649 176.17,-649 176.17,-649 237.83,-649 237.83,-649 241.67,-649 245.5,-652.83 245.5,-656.67 245.5,-656.67 245.5,-664.33 245.5,-664.33 245.5,-668.17 241.67,-672 237.83,-672"/>
<text text-anchor="middle" x="207" y="-656.8" font-family="Arial" font-size="14.00" fill="#000000">command</text>
</g>
<!-- exit_src/alfa/command/scrape&#45;&gt;exit_src/alfa/command -->
<!-- exit_src/alfa/command/scrape&#45;&gt;exit_src/alfa/command -->
<!-- exit_src/alfa/command/scrape&#45;&gt;exit_src/alfa/command -->
</g>
</svg>
