<?xml version="1.0" encoding="UTF-8" standalone="no"?>
<!DOCTYPE svg PUBLIC "-//W3C//DTD SVG 1.1//EN"
 "http://www.w3.org/Graphics/SVG/1.1/DTD/svg11.dtd">
<!-- Generated by graphviz version 2.43.0 (0)
 -->
<!-- Title: dependency&#45;graph&#45;@siteimprove/alfa&#45;cli Pages: 1 -->
<svg width="581pt" height="763pt"
 viewBox="0.00 0.00 581.20 763.20" xmlns="http://www.w3.org/2000/svg" xmlns:xlink="http://www.w3.org/1999/xlink">
<g id="graph0" class="graph" transform="scale(1 1) rotate(0) translate(21.6 741.6)">
<title>dependency&#45;graph&#45;@siteimprove/alfa&#45;cli</title>
<polygon fill="#ffffff" stroke="transparent" points="-21.6,21.6 -21.6,-741.6 559.6,-741.6 559.6,21.6 -21.6,21.6"/>
<g id="clust1" class="cluster">
<title>cluster_src</title>
<polygon fill="#ffffff" stroke="#000000" points="8,-8 8,-712 530,-712 530,-8 8,-8"/>
</g>
<g id="clust2" class="cluster">
<title>cluster_src</title>
<polygon fill="#ffffff" stroke="#000000" points="16,-16 16,-704 522,-704 522,-16 16,-16"/>
</g>
<g id="clust3" class="cluster">
<title>cluster_src/alfa</title>
<polygon fill="#ffffff" stroke="#000000" points="24,-75 24,-653 432,-653 432,-75 24,-75"/>
</g>
<g id="clust4" class="cluster">
<title>cluster_src/alfa/command</title>
<polygon fill="#ffffff" stroke="#000000" points="94,-193 94,-645 412,-645 412,-193 94,-193"/>
</g>
<g id="clust5" class="cluster">
<title>cluster_src/alfa/command/scrape</title>
<polygon fill="#ffffff" stroke="#000000" points="114,-252 114,-409 328,-409 328,-252 114,-252"/>
</g>
<g id="clust6" class="cluster">
<title>cluster_src/alfa/command/audit</title>
<polygon fill="#ffffff" stroke="#000000" points="182,-429 182,-586 392,-586 392,-429 182,-429"/>
</g>
<!-- src/alfa/command/audit/arguments.ts -->
<g id="node1" class="node">
<title>src/alfa/command/audit/arguments.ts</title>
<path fill="none" stroke="#000000" d="M375.83,-519C375.83,-519 296.17,-519 296.17,-519 292.33,-519 288.5,-515.17 288.5,-511.33 288.5,-511.33 288.5,-503.67 288.5,-503.67 288.5,-499.83 292.33,-496 296.17,-496 296.17,-496 375.83,-496 375.83,-496 379.67,-496 383.5,-499.83 383.5,-503.67 383.5,-503.67 383.5,-511.33 383.5,-511.33 383.5,-515.17 379.67,-519 375.83,-519"/>
<text text-anchor="middle" x="336" y="-503.8" font-family="Arial" font-size="14.00" fill="#000000">arguments.ts</text>
</g>
<!-- exit_src/alfa/command/audit -->
<!-- src/alfa/command/audit/arguments.ts&#45;&gt;exit_src/alfa/command/audit -->
<!-- name_src/alfa/command/audit -->
<g id="node2" class="node">
<title>name_src/alfa/command/audit</title>
<path fill="none" stroke="#ff0000" stroke-width="5" d="M376.33,-578C376.33,-578 337.67,-578 337.67,-578 333.83,-578 330,-574.17 330,-570.33 330,-570.33 330,-562.67 330,-562.67 330,-558.83 333.83,-555 337.67,-555 337.67,-555 376.33,-555 376.33,-555 380.17,-555 384,-558.83 384,-562.67 384,-562.67 384,-570.33 384,-570.33 384,-574.17 380.17,-578 376.33,-578"/>
<text text-anchor="middle" x="357" y="-562.8" font-family="Arial" font-size="14.00" fill="#000000">audit</text>
</g>
<!-- src/alfa/command/audit/flags.ts -->
<g id="node3" class="node">
<title>src/alfa/command/audit/flags.ts</title>
<path fill="none" stroke="#000000" d="M241.83,-519C241.83,-519 198.17,-519 198.17,-519 194.33,-519 190.5,-515.17 190.5,-511.33 190.5,-511.33 190.5,-503.67 190.5,-503.67 190.5,-499.83 194.33,-496 198.17,-496 198.17,-496 241.83,-496 241.83,-496 245.67,-496 249.5,-499.83 249.5,-503.67 249.5,-503.67 249.5,-511.33 249.5,-511.33 249.5,-515.17 245.67,-519 241.83,-519"/>
<text text-anchor="middle" x="220" y="-503.8" font-family="Arial" font-size="14.00" fill="#000000">flags.ts</text>
</g>
<!-- src/alfa/command/audit/flags.ts&#45;&gt;exit_src/alfa/command/audit -->
<!-- src/alfa/command/audit/run.ts -->
<g id="node4" class="node">
<title>src/alfa/command/audit/run.ts</title>
<path fill="none" stroke="#000000" d="M296.33,-578C296.33,-578 257.67,-578 257.67,-578 253.83,-578 250,-574.17 250,-570.33 250,-570.33 250,-562.67 250,-562.67 250,-558.83 253.83,-555 257.67,-555 257.67,-555 296.33,-555 296.33,-555 300.17,-555 304,-558.83 304,-562.67 304,-562.67 304,-570.33 304,-570.33 304,-574.17 300.17,-578 296.33,-578"/>
<text text-anchor="middle" x="277" y="-562.8" font-family="Arial" font-size="14.00" fill="#000000">run.ts</text>
</g>
<!-- src/alfa/command/audit/run.ts&#45;&gt;src/alfa/command/audit/arguments.ts -->
<!-- src/alfa/command/audit/run.ts&#45;&gt;src/alfa/command/audit/arguments.ts -->
<g id="edge58" class="edge">
<title>src/alfa/command/audit/run.ts&#45;&gt;src/alfa/command/audit/arguments.ts</title>
<path fill="none" stroke="black" stroke-dasharray="1,5" d="M293.51,-554.78C303.05,-546.9 314.65,-535.99 323.45,-526.75"/>
<polygon fill="black" stroke="black" points="326.21,-528.92 330.36,-519.17 321.03,-524.21 326.21,-528.92"/>
</g>
<!-- src/alfa/command/audit/run.ts&#45;&gt;src/alfa/command/audit/flags.ts -->
<!-- src/alfa/command/audit/run.ts&#45;&gt;src/alfa/command/audit/flags.ts -->
<g id="edge60" class="edge">
<title>src/alfa/command/audit/run.ts&#45;&gt;src/alfa/command/audit/flags.ts</title>
<path fill="none" stroke="black" stroke-dasharray="1,5" d="M271.69,-554.78C264.99,-546.66 253.95,-535.33 243.69,-525.92"/>
<polygon fill="black" stroke="black" points="245.88,-523.18 236.08,-519.17 241.24,-528.42 245.88,-523.18"/>
</g>
<!-- src/alfa/command/audit/run.ts&#45;&gt;exit_src/alfa/command/audit -->
<!-- src/alfa/profiler.ts -->
<g id="node10" class="node">
<title>src/alfa/profiler.ts</title>
<path fill="none" stroke="#000000" d="M366.83,-165C366.83,-165 311.17,-165 311.17,-165 307.33,-165 303.5,-161.17 303.5,-157.33 303.5,-157.33 303.5,-149.67 303.5,-149.67 303.5,-145.83 307.33,-142 311.17,-142 311.17,-142 366.83,-142 366.83,-142 370.67,-142 374.5,-145.83 374.5,-149.67 374.5,-149.67 374.5,-157.33 374.5,-157.33 374.5,-161.17 370.67,-165 366.83,-165"/>
<text text-anchor="middle" x="339" y="-149.8" font-family="Arial" font-size="14.00" fill="#000000">profiler.ts</text>
</g>
<!-- src/alfa/command/audit/run.ts&#45;&gt;src/alfa/profiler.ts -->
<!-- src/alfa/command/scrape/arguments.ts -->
<g id="node5" class="node">
<title>src/alfa/command/scrape/arguments.ts</title>
<path fill="none" stroke="#000000" d="M209.83,-342C209.83,-342 130.17,-342 130.17,-342 126.33,-342 122.5,-338.17 122.5,-334.33 122.5,-334.33 122.5,-326.67 122.5,-326.67 122.5,-322.83 126.33,-319 130.17,-319 130.17,-319 209.83,-319 209.83,-319 213.67,-319 217.5,-322.83 217.5,-326.67 217.5,-326.67 217.5,-334.33 217.5,-334.33 217.5,-338.17 213.67,-342 209.83,-342"/>
<text text-anchor="middle" x="170" y="-326.8" font-family="Arial" font-size="14.00" fill="#000000">arguments.ts</text>
</g>
<!-- exit_src/alfa/command/scrape -->
<!-- src/alfa/command/scrape/arguments.ts&#45;&gt;exit_src/alfa/command/scrape -->
<!-- name_src/alfa/command/scrape -->
<g id="node6" class="node">
<title>name_src/alfa/command/scrape</title>
<path fill="none" stroke="#0066ff" stroke-width="5" d="M286.83,-401C286.83,-401 245.17,-401 245.17,-401 241.33,-401 237.5,-397.17 237.5,-393.33 237.5,-393.33 237.5,-385.67 237.5,-385.67 237.5,-381.83 241.33,-378 245.17,-378 245.17,-378 286.83,-378 286.83,-378 290.67,-378 294.5,-381.83 294.5,-385.67 294.5,-385.67 294.5,-393.33 294.5,-393.33 294.5,-397.17 290.67,-401 286.83,-401"/>
<text text-anchor="middle" x="266" y="-385.8" font-family="Arial" font-size="14.00" fill="#000000">scrape</text>
</g>
<!-- src/alfa/command/scrape/flags.ts -->
<g id="node7" class="node">
<title>src/alfa/command/scrape/flags.ts</title>
<path fill="none" stroke="#000000" d="M286.83,-342C286.83,-342 243.17,-342 243.17,-342 239.33,-342 235.5,-338.17 235.5,-334.33 235.5,-334.33 235.5,-326.67 235.5,-326.67 235.5,-322.83 239.33,-319 243.17,-319 243.17,-319 286.83,-319 286.83,-319 290.67,-319 294.5,-322.83 294.5,-326.67 294.5,-326.67 294.5,-334.33 294.5,-334.33 294.5,-338.17 290.67,-342 286.83,-342"/>
<text text-anchor="middle" x="265" y="-326.8" font-family="Arial" font-size="14.00" fill="#000000">flags.ts</text>
</g>
<!-- src/alfa/command/scrape/flags.ts&#45;&gt;exit_src/alfa/command/scrape -->
<!-- src/alfa/command/scrape/run.ts -->
<g id="node8" class="node">
<title>src/alfa/command/scrape/run.ts</title>
<path fill="none" stroke="#000000" d="M211.33,-401C211.33,-401 172.67,-401 172.67,-401 168.83,-401 165,-397.17 165,-393.33 165,-393.33 165,-385.67 165,-385.67 165,-381.83 168.83,-378 172.67,-378 172.67,-378 211.33,-378 211.33,-378 215.17,-378 219,-381.83 219,-385.67 219,-385.67 219,-393.33 219,-393.33 219,-397.17 215.17,-401 211.33,-401"/>
<text text-anchor="middle" x="192" y="-385.8" font-family="Arial" font-size="14.00" fill="#000000">run.ts</text>
</g>
<!-- src/alfa/command/scrape/run.ts&#45;&gt;src/alfa/command/scrape/arguments.ts -->
<!-- src/alfa/command/scrape/run.ts&#45;&gt;src/alfa/command/scrape/arguments.ts -->
<g id="edge53" class="edge">
<title>src/alfa/command/scrape/run.ts&#45;&gt;src/alfa/command/scrape/arguments.ts</title>
<path fill="none" stroke="black" stroke-dasharray="1,5" d="M193.27,-377.78C191.7,-370.29 188.11,-360.09 184.04,-351.16"/>
<polygon fill="black" stroke="black" points="187.14,-349.54 179.52,-342.17 180.89,-352.68 187.14,-349.54"/>
</g>
<!-- src/alfa/command/scrape/run.ts&#45;&gt;src/alfa/command/scrape/flags.ts -->
<!-- src/alfa/command/scrape/run.ts&#45;&gt;src/alfa/command/scrape/flags.ts -->
<g id="edge55" class="edge">
<title>src/alfa/command/scrape/run.ts&#45;&gt;src/alfa/command/scrape/flags.ts</title>
<path fill="none" stroke="black" stroke-dasharray="1,5" d="M211.14,-377.78C222.97,-369.66 237.76,-358.33 248.97,-348.92"/>
<polygon fill="black" stroke="black" points="251.48,-351.37 256.73,-342.17 246.89,-346.09 251.48,-351.37"/>
</g>
<!-- src/alfa/command/scrape/run.ts&#45;&gt;exit_src/alfa/command/scrape -->
<!-- exit_src/alfa/command/audit&#45;&gt;name_src/alfa/command/scrape -->
<g id="edge56" class="edge">
<title>exit_src/alfa/command/audit&#45;&gt;name_src/alfa/command/scrape</title>
<path fill="none" stroke="#ff0000" d="M274.49,-429C271.82,-423.26 269.31,-416.89 267.41,-411.02"/>
<polygon fill="#ff0000" stroke="#ff0000" points="273.28,-417.32 266.72,-409 266.66,-419.59 273.28,-417.32"/>
</g>
<!-- exit_src/alfa/command/audit&#45;&gt;name_src/alfa/command/scrape -->
<!-- exit_src/alfa/command -->
<!-- exit_src/alfa/command/audit&#45;&gt;exit_src/alfa/command -->
<!-- exit_src/alfa/command/audit&#45;&gt;exit_src/alfa/command -->
<!-- exit_src/alfa/command/audit&#45;&gt;exit_src/alfa/command -->
<!-- exit_src/alfa -->
<!-- src/alfa/profiler.ts&#45;&gt;exit_src/alfa -->
<!-- exit_src/alfa/command&#45;&gt;src/alfa/profiler.ts -->
<g id="edge63" class="edge">
<title>exit_src/alfa/command&#45;&gt;src/alfa/profiler.ts</title>
<path fill="none" stroke="#ccff00" d="M301.85,-193C308.2,-186.42 315.35,-179.01 321.66,-172.47"/>
<polygon fill="#ccff00" stroke="#ccff00" points="324.28,-174.8 328.7,-165.17 319.24,-169.94 324.28,-174.8"/>
</g>
<!-- exit_src/alfa/command&#45;&gt;exit_src/alfa -->
<!-- exit_src/alfa/command&#45;&gt;exit_src/alfa -->
<!-- exit_src/alfa/command&#45;&gt;exit_src/alfa -->
<!-- exit_src/alfa/command&#45;&gt;exit_src/alfa -->
<!-- exit_src/alfa/command&#45;&gt;exit_src/alfa -->
<!-- exit_src/alfa/command&#45;&gt;exit_src/alfa -->
<!-- exit_src/alfa/command&#45;&gt;exit_src/alfa -->
<!-- exit_src/alfa/command&#45;&gt;exit_src/alfa -->
<!-- src/alfa/command/audit.ts -->
<g id="node12" class="node">
<title>src/alfa/command/audit.ts</title>
<path fill="none" stroke="#000000" d="M379.33,-637C379.33,-637 334.67,-637 334.67,-637 330.83,-637 327,-633.17 327,-629.33 327,-629.33 327,-621.67 327,-621.67 327,-617.83 330.83,-614 334.67,-614 334.67,-614 379.33,-614 379.33,-614 383.17,-614 387,-617.83 387,-621.67 387,-621.67 387,-629.33 387,-629.33 387,-633.17 383.17,-637 379.33,-637"/>
<text text-anchor="middle" x="357" y="-621.8" font-family="Arial" font-size="14.00" fill="#000000">audit.ts</text>
</g>
<!-- src/alfa/command/audit.ts&#45;&gt;name_src/alfa/command/audit -->
<g id="edge46" class="edge">
<title>src/alfa/command/audit.ts&#45;&gt;name_src/alfa/command/audit</title>
<path fill="none" stroke="#ccff00" d="M346.18,-613.78C343.64,-606.53 342.9,-596.74 343.98,-588.02"/>
<polygon fill="#ccff00" stroke="#ccff00" points="343.05,-596.38 345.19,-586 337.05,-592.78 343.05,-596.38"/>
</g>
<!-- src/alfa/command/audit.ts&#45;&gt;name_src/alfa/command/audit -->
<!-- src/alfa/command/audit.ts&#45;&gt;name_src/alfa/command/audit -->
<!-- src/alfa/command/audit.ts&#45;&gt;exit_src/alfa/command -->
<!-- name_src/alfa -->
<g id="node13" class="node">
<title>name_src/alfa</title>
<path fill="none" stroke="#cc00ff" stroke-width="5" d="M78.33,-637C78.33,-637 39.67,-637 39.67,-637 35.83,-637 32,-633.17 32,-629.33 32,-629.33 32,-621.67 32,-621.67 32,-617.83 35.83,-614 39.67,-614 39.67,-614 78.33,-614 78.33,-614 82.17,-614 86,-617.83 86,-621.67 86,-621.67 86,-629.33 86,-629.33 86,-633.17 82.17,-637 78.33,-637"/>
<text text-anchor="middle" x="59" y="-621.8" font-family="Arial" font-size="14.00" fill="#000000">alfa</text>
</g>
<!-- src/alfa/command/scrape.ts -->
<g id="node14" class="node">
<title>src/alfa/command/scrape.ts</title>
<path fill="none" stroke="#000000" d="M165.83,-460C165.83,-460 110.17,-460 110.17,-460 106.33,-460 102.5,-456.17 102.5,-452.33 102.5,-452.33 102.5,-444.67 102.5,-444.67 102.5,-440.83 106.33,-437 110.17,-437 110.17,-437 165.83,-437 165.83,-437 169.67,-437 173.5,-440.83 173.5,-444.67 173.5,-444.67 173.5,-452.33 173.5,-452.33 173.5,-456.17 169.67,-460 165.83,-460"/>
<text text-anchor="middle" x="138" y="-444.8" font-family="Arial" font-size="14.00" fill="#000000">scrape.ts</text>
</g>
<!-- src/alfa/command/scrape.ts&#45;&gt;name_src/alfa/command/scrape -->
<g id="edge49" class="edge">
<title>src/alfa/command/scrape.ts&#45;&gt;name_src/alfa/command/scrape</title>
<path fill="none" stroke="#ccff00" d="M142.92,-436.92C148.06,-434.27 154.24,-431.48 160,-429 178.55,-421.01 185.81,-419.16 200.77,-412.96"/>
<polygon fill="#ccff00" stroke="#ccff00" points="202.19,-416.16 210,-409 199.43,-409.73 202.19,-416.16"/>
</g>
<!-- src/alfa/command/scrape.ts&#45;&gt;name_src/alfa/command/scrape -->
<!-- src/alfa/command/scrape.ts&#45;&gt;name_src/alfa/command/scrape -->
<!-- src/alfa/command/scrape.ts&#45;&gt;exit_src/alfa/command -->
<!-- src/pkg.ts -->
<g id="node15" class="node">
<title>src/pkg.ts</title>
<path fill="none" stroke="#000000" d="M486.33,-637C486.33,-637 447.67,-637 447.67,-637 443.83,-637 440,-633.17 440,-629.33 440,-629.33 440,-621.67 440,-621.67 440,-617.83 443.83,-614 447.67,-614 447.67,-614 486.33,-614 486.33,-614 490.17,-614 494,-617.83 494,-621.67 494,-621.67 494,-629.33 494,-629.33 494,-633.17 490.17,-637 486.33,-637"/>
<text text-anchor="middle" x="467" y="-621.8" font-family="Arial" font-size="14.00" fill="#000000">pkg.ts</text>
</g>
<!-- exit_src -->
<!-- src/pkg.ts&#45;&gt;exit_src -->
<!-- exit_src&#45;&gt;exit_src -->
<!-- exit_src&#45;&gt;exit_src -->
<!-- exit_src&#45;&gt;exit_src -->
<!-- exit_src&#45;&gt;exit_src -->
<!-- exit_src&#45;&gt;exit_src -->
<!-- exit_src&#45;&gt;exit_src -->
<!-- exit_src&#45;&gt;exit_src -->
<!-- exit_src&#45;&gt;exit_src -->
<!-- exit_src&#45;&gt;exit_src -->
<!-- exit_src&#45;&gt;exit_src -->
<!-- exit_src&#45;&gt;exit_src -->
<!-- name_src -->
<g id="node17" class="node">
<title>name_src</title>
<path fill="none" stroke="#00ff66" stroke-width="5" d="M506.33,-696C506.33,-696 467.67,-696 467.67,-696 463.83,-696 460,-692.17 460,-688.33 460,-688.33 460,-680.67 460,-680.67 460,-676.83 463.83,-673 467.67,-673 467.67,-673 506.33,-673 506.33,-673 510.17,-673 514,-676.83 514,-680.67 514,-680.67 514,-688.33 514,-688.33 514,-692.17 510.17,-696 506.33,-696"/>
<text text-anchor="middle" x="487" y="-680.8" font-family="Arial" font-size="14.00" fill="#000000">src</text>
</g>
<!-- src/alfa.ts -->
<g id="node18" class="node">
<title>src/alfa.ts</title>
<path fill="none" stroke="#000000" d="M434.33,-696C434.33,-696 395.67,-696 395.67,-696 391.83,-696 388,-692.17 388,-688.33 388,-688.33 388,-680.67 388,-680.67 388,-676.83 391.83,-673 395.67,-673 395.67,-673 434.33,-673 434.33,-673 438.17,-673 442,-676.83 442,-680.67 442,-680.67 442,-688.33 442,-688.33 442,-692.17 438.17,-696 434.33,-696"/>
<text text-anchor="middle" x="415" y="-680.8" font-family="Arial" font-size="14.00" fill="#000000">alfa.ts</text>
</g>
<!-- src/alfa.ts&#45;&gt;name_src/alfa -->
<g id="edge64" class="edge">
<title>src/alfa.ts&#45;&gt;name_src/alfa</title>
<path fill="none" stroke="#00ff66" d="M387.57,-683.13C321.33,-681.88 154.43,-676.68 90.66,-656.51"/>
<polygon fill="#00ff66" stroke="#00ff66" points="91.59,-653.13 81,-653 89.2,-659.7 91.59,-653.13"/>
</g>
<!-- src/alfa.ts&#45;&gt;name_src/alfa -->
<!-- src/alfa.ts&#45;&gt;src/pkg.ts -->
<!-- src/alfa.ts&#45;&gt;src/pkg.ts -->
<g id="edge67" class="edge">
<title>src/alfa.ts&#45;&gt;src/pkg.ts</title>
<path fill="none" stroke="black" d="M430.19,-672.78C438.68,-664.98 448.82,-654.21 456.46,-645.03"/>
<polygon fill="black" stroke="black" points="459.22,-647.19 462.67,-637.17 453.72,-642.85 459.22,-647.19"/>
</g>
<!-- src/alfa.ts&#45;&gt;exit_src -->
<!-- exit_src/alfa&#45;&gt;exit_src -->
<!-- exit_src/alfa&#45;&gt;exit_src -->
<!-- exit_src/alfa&#45;&gt;exit_src -->
<!-- exit_src/alfa&#45;&gt;exit_src -->
<!-- exit_src/alfa&#45;&gt;exit_src -->
<!-- exit_src/alfa&#45;&gt;exit_src -->
<!-- exit_src/alfa&#45;&gt;exit_src -->
<!-- exit_src/alfa&#45;&gt;exit_src -->
<!-- exit_src/alfa&#45;&gt;exit_src -->
<!-- name_src/alfa/command -->
<g id="node20" class="node">
<title>name_src/alfa/command</title>
<path fill="none" stroke="#ccff00" stroke-width="5" d="M237.83,-637C237.83,-637 176.17,-637 176.17,-637 172.33,-637 168.5,-633.17 168.5,-629.33 168.5,-629.33 168.5,-621.67 168.5,-621.67 168.5,-617.83 172.33,-614 176.17,-614 176.17,-614 237.83,-614 237.83,-614 241.67,-614 245.5,-617.83 245.5,-621.67 245.5,-621.67 245.5,-629.33 245.5,-629.33 245.5,-633.17 241.67,-637 237.83,-637"/>
<text text-anchor="middle" x="207" y="-621.8" font-family="Arial" font-size="14.00" fill="#000000">command</text>
</g>
<!-- exit_src/alfa/command/scrape&#45;&gt;exit_src/alfa/command -->
<!-- exit_src/alfa/command/scrape&#45;&gt;exit_src/alfa/command -->
<!-- exit_src/alfa/command/scrape&#45;&gt;exit_src/alfa/command -->
</g>
</svg>
