<?xml version="1.0" encoding="UTF-8" standalone="no"?>
<!DOCTYPE svg PUBLIC "-//W3C//DTD SVG 1.1//EN"
 "http://www.w3.org/Graphics/SVG/1.1/DTD/svg11.dtd">
<!-- Generated by graphviz version 14.0.2 (20251019.1705)
 -->
<!-- Title: dependency&#45;graph&#45;@siteimprove/alfa&#45;cli Pages: 1 -->
<svg width="1037pt" height="398pt"
 viewBox="0.00 0.00 1037.00 398.00" xmlns="http://www.w3.org/2000/svg" xmlns:xlink="http://www.w3.org/1999/xlink">
<g id="graph0" class="graph" transform="scale(1 1) rotate(0) translate(21.6 376.1)">
<title>dependency&#45;graph&#45;@siteimprove/alfa&#45;cli</title>
<polygon fill="#ffffff" stroke="none" points="-21.6,21.6 -21.6,-376.1 1015.6,-376.1 1015.6,21.6 -21.6,21.6"/>
<g id="clust1" class="cluster">
<title>cluster_src</title>
<polygon fill="#ffffff" stroke="#000000" points="8,-8 8,-346.5 986,-346.5 986,-8 8,-8"/>
</g>
<!-- src/alfa/command/audit/arguments.ts -->
<g id="node1" class="node">
<title>src/alfa/command/audit/arguments.ts</title>
<path fill="none" stroke="#000000" d="M267.83,-159.25C267.83,-159.25 44.17,-159.25 44.17,-159.25 40.21,-159.25 36.25,-155.29 36.25,-151.33 36.25,-151.33 36.25,-143.42 36.25,-143.42 36.25,-139.46 40.21,-135.5 44.17,-135.5 44.17,-135.5 267.83,-135.5 267.83,-135.5 271.79,-135.5 275.75,-139.46 275.75,-143.42 275.75,-143.42 275.75,-151.33 275.75,-151.33 275.75,-155.29 271.79,-159.25 267.83,-159.25"/>
<text xml:space="preserve" text-anchor="middle" x="156" y="-141.95" font-family="Arial" font-size="14.00" fill="#000000">src/alfa/command/audit/arguments.ts</text>
</g>
<!-- exit_src -->
<!-- src/alfa/command/audit/arguments.ts&#45;&gt;exit_src -->
<!-- src/alfa/command/audit/flags.ts -->
<g id="node2" class="node">
<title>src/alfa/command/audit/flags.ts</title>
<path fill="none" stroke="#000000" d="M645.83,-159.25C645.83,-159.25 458.17,-159.25 458.17,-159.25 454.21,-159.25 450.25,-155.29 450.25,-151.33 450.25,-151.33 450.25,-143.42 450.25,-143.42 450.25,-139.46 454.21,-135.5 458.17,-135.5 458.17,-135.5 645.83,-135.5 645.83,-135.5 649.79,-135.5 653.75,-139.46 653.75,-143.42 653.75,-143.42 653.75,-151.33 653.75,-151.33 653.75,-155.29 649.79,-159.25 645.83,-159.25"/>
<text xml:space="preserve" text-anchor="middle" x="552" y="-141.95" font-family="Arial" font-size="14.00" fill="#000000">src/alfa/command/audit/flags.ts</text>
</g>
<!-- src/alfa/command/scrape/flags.ts -->
<g id="node5" class="node">
<title>src/alfa/command/scrape/flags.ts</title>
<path fill="none" stroke="#000000" d="M622.46,-99.5C622.46,-99.5 423.54,-99.5 423.54,-99.5 419.58,-99.5 415.62,-95.54 415.62,-91.58 415.62,-91.58 415.62,-83.67 415.62,-83.67 415.62,-79.71 419.58,-75.75 423.54,-75.75 423.54,-75.75 622.46,-75.75 622.46,-75.75 626.42,-75.75 630.38,-79.71 630.38,-83.67 630.38,-83.67 630.38,-91.58 630.38,-91.58 630.38,-95.54 626.42,-99.5 622.46,-99.5"/>
<text xml:space="preserve" text-anchor="middle" x="523" y="-82.2" font-family="Arial" font-size="14.00" fill="#000000">src/alfa/command/scrape/flags.ts</text>
</g>
<!-- src/alfa/command/audit/flags.ts&#45;&gt;src/alfa/command/scrape/flags.ts -->
<!-- src/alfa/command/audit/flags.ts&#45;&gt;src/alfa/command/scrape/flags.ts -->
<g id="edge29" class="edge">
<title>src/alfa/command/audit/flags.ts&#45;&gt;src/alfa/command/scrape/flags.ts</title>
<path fill="none" stroke="black" d="M551.87,-135.24C549.42,-127.89 544.81,-118.04 539.87,-109.28"/>
<polygon fill="black" stroke="black" points="543.02,-107.72 534.82,-101.02 537.05,-111.37 543.02,-107.72"/>
</g>
<!-- src/alfa/command/audit/flags.ts&#45;&gt;exit_src -->
<!-- src/alfa/command/audit/run.ts -->
<g id="node3" class="node">
<title>src/alfa/command/audit/run.ts</title>
<path fill="none" stroke="#000000" d="M522.33,-219C522.33,-219 343.67,-219 343.67,-219 339.71,-219 335.75,-215.04 335.75,-211.08 335.75,-211.08 335.75,-203.17 335.75,-203.17 335.75,-199.21 339.71,-195.25 343.67,-195.25 343.67,-195.25 522.33,-195.25 522.33,-195.25 526.29,-195.25 530.25,-199.21 530.25,-203.17 530.25,-203.17 530.25,-211.08 530.25,-211.08 530.25,-215.04 526.29,-219 522.33,-219"/>
<text xml:space="preserve" text-anchor="middle" x="433" y="-201.7" font-family="Arial" font-size="14.00" fill="#000000">src/alfa/command/audit/run.ts</text>
</g>
<!-- src/alfa/command/audit/run.ts&#45;&gt;src/alfa/command/audit/arguments.ts -->
<!-- src/alfa/command/audit/run.ts&#45;&gt;src/alfa/command/audit/arguments.ts -->
<g id="edge31" class="edge">
<title>src/alfa/command/audit/run.ts&#45;&gt;src/alfa/command/audit/arguments.ts</title>
<path fill="none" stroke="black" stroke-dasharray="1,5" d="M384.1,-194.78C340.49,-185.37 276.22,-171.95 226.98,-161.96"/>
<polygon fill="black" stroke="black" points="227.74,-158.54 217.24,-159.99 226.35,-165.4 227.74,-158.54"/>
</g>
<!-- src/alfa/command/audit/run.ts&#45;&gt;src/alfa/command/audit/flags.ts -->
<!-- src/alfa/command/audit/run.ts&#45;&gt;src/alfa/command/audit/flags.ts -->
<g id="edge33" class="edge">
<title>src/alfa/command/audit/run.ts&#45;&gt;src/alfa/command/audit/flags.ts</title>
<path fill="none" stroke="black" stroke-dasharray="1,5" d="M461.71,-194.85C480.74,-186.31 505.43,-174.43 524.26,-164.83"/>
<polygon fill="black" stroke="black" points="525.7,-168.02 532.96,-160.31 522.48,-161.81 525.7,-168.02"/>
</g>
<!-- src/alfa/command/scrape/run.ts -->
<g id="node6" class="node">
<title>src/alfa/command/scrape/run.ts</title>
<path fill="none" stroke="#000000" d="M889.96,-159.25C889.96,-159.25 700.04,-159.25 700.04,-159.25 696.08,-159.25 692.12,-155.29 692.12,-151.33 692.12,-151.33 692.12,-143.42 692.12,-143.42 692.12,-139.46 696.08,-135.5 700.04,-135.5 700.04,-135.5 889.96,-135.5 889.96,-135.5 893.92,-135.5 897.88,-139.46 897.88,-143.42 897.88,-143.42 897.88,-151.33 897.88,-151.33 897.88,-155.29 893.92,-159.25 889.96,-159.25"/>
<text xml:space="preserve" text-anchor="middle" x="795" y="-141.95" font-family="Arial" font-size="14.00" fill="#000000">src/alfa/command/scrape/run.ts</text>
</g>
<!-- src/alfa/command/audit/run.ts&#45;&gt;src/alfa/command/scrape/run.ts -->
<!-- src/alfa/command/audit/run.ts&#45;&gt;src/alfa/command/scrape/run.ts -->
<g id="edge35" class="edge">
<title>src/alfa/command/audit/run.ts&#45;&gt;src/alfa/command/scrape/run.ts</title>
<path fill="none" stroke="black" d="M509.58,-194.78C570.96,-185.24 656.61,-171.59 718.08,-161.57"/>
<polygon fill="black" stroke="black" points="718.46,-165.05 727.77,-159.98 717.33,-158.14 718.46,-165.05"/>
</g>
<!-- src/alfa/profiler.ts -->
<g id="node7" class="node">
<title>src/alfa/profiler.ts</title>
<path fill="none" stroke="#000000" d="M404.08,-159.25C404.08,-159.25 301.92,-159.25 301.92,-159.25 297.96,-159.25 294,-155.29 294,-151.33 294,-151.33 294,-143.42 294,-143.42 294,-139.46 297.96,-135.5 301.92,-135.5 301.92,-135.5 404.08,-135.5 404.08,-135.5 408.04,-135.5 412,-139.46 412,-143.42 412,-143.42 412,-151.33 412,-151.33 412,-155.29 408.04,-159.25 404.08,-159.25"/>
<text xml:space="preserve" text-anchor="middle" x="353" y="-141.95" font-family="Arial" font-size="14.00" fill="#000000">src/alfa/profiler.ts</text>
</g>
<!-- src/alfa/command/audit/run.ts&#45;&gt;src/alfa/profiler.ts -->
<!-- src/alfa/command/audit/run.ts&#45;&gt;src/alfa/profiler.ts -->
<g id="edge37" class="edge">
<title>src/alfa/command/audit/run.ts&#45;&gt;src/alfa/profiler.ts</title>
<path fill="none" stroke="black" d="M423.03,-194.99C412.99,-186.73 397.44,-175.32 383.47,-165.85"/>
<polygon fill="black" stroke="black" points="385.67,-163.11 375.4,-160.51 381.8,-168.95 385.67,-163.11"/>
</g>
<!-- src/alfa/command/audit/run.ts&#45;&gt;exit_src -->
<!-- src/alfa/command/scrape/arguments.ts -->
<g id="node4" class="node">
<title>src/alfa/command/scrape/arguments.ts</title>
<path fill="none" stroke="#000000" d="M910.46,-99.5C910.46,-99.5 675.54,-99.5 675.54,-99.5 671.58,-99.5 667.62,-95.54 667.62,-91.58 667.62,-91.58 667.62,-83.67 667.62,-83.67 667.62,-79.71 671.58,-75.75 675.54,-75.75 675.54,-75.75 910.46,-75.75 910.46,-75.75 914.42,-75.75 918.38,-79.71 918.38,-83.67 918.38,-83.67 918.38,-91.58 918.38,-91.58 918.38,-95.54 914.42,-99.5 910.46,-99.5"/>
<text xml:space="preserve" text-anchor="middle" x="793" y="-82.2" font-family="Arial" font-size="14.00" fill="#000000">src/alfa/command/scrape/arguments.ts</text>
</g>
<!-- src/alfa/command/scrape/arguments.ts&#45;&gt;exit_src -->
<!-- src/alfa/command/scrape/flags.ts&#45;&gt;exit_src -->
<!-- src/alfa/command/scrape/run.ts&#45;&gt;src/alfa/command/scrape/arguments.ts -->
<!-- src/alfa/command/scrape/run.ts&#45;&gt;src/alfa/command/scrape/arguments.ts -->
<g id="edge25" class="edge">
<title>src/alfa/command/scrape/run.ts&#45;&gt;src/alfa/command/scrape/arguments.ts</title>
<path fill="none" stroke="black" stroke-dasharray="1,5" d="M800.07,-135.24C800.99,-128.37 801.06,-119.31 800.37,-111.01"/>
<polygon fill="black" stroke="black" points="803.86,-110.66 799.04,-101.23 796.92,-111.61 803.86,-110.66"/>
</g>
<!-- src/alfa/command/scrape/run.ts&#45;&gt;src/alfa/command/scrape/flags.ts -->
<!-- src/alfa/command/scrape/run.ts&#45;&gt;src/alfa/command/scrape/flags.ts -->
<g id="edge27" class="edge">
<title>src/alfa/command/scrape/run.ts&#45;&gt;src/alfa/command/scrape/flags.ts</title>
<path fill="none" stroke="black" stroke-dasharray="1,5" d="M747.08,-135.03C704.28,-125.62 641.18,-112.2 592.8,-102.21"/>
<polygon fill="black" stroke="black" points="593.76,-98.83 583.26,-100.24 592.35,-105.69 593.76,-98.83"/>
</g>
<!-- src/alfa/command/scrape/run.ts&#45;&gt;exit_src -->
<!-- src/alfa/profiler.ts&#45;&gt;exit_src -->
<!-- src/alfa/command/audit.ts -->
<g id="node8" class="node">
<title>src/alfa/command/audit.ts</title>
<path fill="none" stroke="#000000" d="M510.71,-278.75C510.71,-278.75 355.29,-278.75 355.29,-278.75 351.33,-278.75 347.38,-274.79 347.38,-270.83 347.38,-270.83 347.38,-262.92 347.38,-262.92 347.38,-258.96 351.33,-255 355.29,-255 355.29,-255 510.71,-255 510.71,-255 514.67,-255 518.62,-258.96 518.62,-262.92 518.62,-262.92 518.62,-270.83 518.62,-270.83 518.62,-274.79 514.67,-278.75 510.71,-278.75"/>
<text xml:space="preserve" text-anchor="middle" x="433" y="-261.45" font-family="Arial" font-size="14.00" fill="#000000">src/alfa/command/audit.ts</text>
</g>
<!-- src/alfa/command/audit.ts&#45;&gt;src/alfa/command/audit/arguments.ts -->
<!-- src/alfa/command/audit.ts&#45;&gt;src/alfa/command/audit/arguments.ts -->
<g id="edge13" class="edge">
<title>src/alfa/command/audit.ts&#45;&gt;src/alfa/command/audit/arguments.ts</title>
<path fill="none" stroke="black" d="M410.62,-254.61C364,-233.47 256.58,-187.82 197.16,-163.82"/>
<polygon fill="black" stroke="black" points="198.64,-160.65 188.06,-160.17 196.04,-167.14 198.64,-160.65"/>
</g>
<!-- src/alfa/command/audit.ts&#45;&gt;src/alfa/command/audit/flags.ts -->
<!-- src/alfa/command/audit.ts&#45;&gt;src/alfa/command/audit/flags.ts -->
<g id="edge15" class="edge">
<title>src/alfa/command/audit.ts&#45;&gt;src/alfa/command/audit/flags.ts</title>
<path fill="none" stroke="black" d="M491.73,-254.57C512.59,-247.57 534.22,-236.45 548,-219 558.73,-205.41 561.64,-185.78 560.63,-170.66"/>
<polygon fill="black" stroke="black" points="564.15,-170.6 559.26,-161.21 557.23,-171.61 564.15,-170.6"/>
</g>
<!-- src/alfa/command/audit.ts&#45;&gt;src/alfa/command/audit/run.ts -->
<!-- src/alfa/command/audit.ts&#45;&gt;src/alfa/command/audit/run.ts -->
<g id="edge17" class="edge">
<title>src/alfa/command/audit.ts&#45;&gt;src/alfa/command/audit/run.ts</title>
<path fill="none" stroke="black" d="M438.46,-254.74C439.62,-247.87 440,-238.81 439.6,-230.51"/>
<polygon fill="black" stroke="black" points="443.1,-230.33 438.6,-220.73 436.13,-231.03 443.1,-230.33"/>
</g>
<!-- src/alfa/command/audit.ts&#45;&gt;exit_src -->
<!-- src/alfa/command/scrape.ts -->
<g id="node9" class="node">
<title>src/alfa/command/scrape.ts</title>
<path fill="none" stroke="#000000" d="M878.33,-219C878.33,-219 711.67,-219 711.67,-219 707.71,-219 703.75,-215.04 703.75,-211.08 703.75,-211.08 703.75,-203.17 703.75,-203.17 703.75,-199.21 707.71,-195.25 711.67,-195.25 711.67,-195.25 878.33,-195.25 878.33,-195.25 882.29,-195.25 886.25,-199.21 886.25,-203.17 886.25,-203.17 886.25,-211.08 886.25,-211.08 886.25,-215.04 882.29,-219 878.33,-219"/>
<text xml:space="preserve" text-anchor="middle" x="795" y="-201.7" font-family="Arial" font-size="14.00" fill="#000000">src/alfa/command/scrape.ts</text>
</g>
<!-- src/alfa/command/scrape.ts&#45;&gt;src/alfa/command/scrape/arguments.ts -->
<!-- src/alfa/command/scrape.ts&#45;&gt;src/alfa/command/scrape/arguments.ts -->
<g id="edge19" class="edge">
<title>src/alfa/command/scrape.ts&#45;&gt;src/alfa/command/scrape/arguments.ts</title>
<path fill="none" stroke="black" d="M852.97,-194.78C892.88,-183.73 935.32,-164.34 916,-135.5 906.18,-120.85 890.88,-110.78 874.33,-103.85"/>
<polygon fill="black" stroke="black" points="875.91,-100.7 865.32,-100.46 873.45,-107.26 875.91,-100.7"/>
</g>
<!-- src/alfa/command/scrape.ts&#45;&gt;src/alfa/command/scrape/flags.ts -->
<!-- src/alfa/command/scrape.ts&#45;&gt;src/alfa/command/scrape/flags.ts -->
<g id="edge21" class="edge">
<title>src/alfa/command/scrape.ts&#45;&gt;src/alfa/command/scrape/flags.ts</title>
<path fill="none" stroke="black" d="M763.68,-194.85C742.18,-187.13 713.91,-175.35 692,-159.25 680.88,-151.08 683.41,-143.26 672,-135.5 650.21,-120.69 623.35,-110.21 598.42,-102.98"/>
<polygon fill="black" stroke="black" points="599.53,-99.66 588.96,-100.38 597.67,-106.41 599.53,-99.66"/>
</g>
<!-- src/alfa/command/scrape.ts&#45;&gt;src/alfa/command/scrape/run.ts -->
<!-- src/alfa/command/scrape.ts&#45;&gt;src/alfa/command/scrape/run.ts -->
<g id="edge23" class="edge">
<title>src/alfa/command/scrape.ts&#45;&gt;src/alfa/command/scrape/run.ts</title>
<path fill="none" stroke="black" d="M800.46,-194.99C801.62,-188.12 802,-179.06 801.6,-170.76"/>
<polygon fill="black" stroke="black" points="805.1,-170.58 800.6,-160.98 798.13,-171.28 805.1,-170.58"/>
</g>
<!-- src/alfa/command/scrape.ts&#45;&gt;exit_src -->
<!-- src/pkg.ts -->
<g id="node10" class="node">
<title>src/pkg.ts</title>
<path fill="none" stroke="#000000" d="M879.96,-278.75C879.96,-278.75 822.04,-278.75 822.04,-278.75 818.08,-278.75 814.12,-274.79 814.12,-270.83 814.12,-270.83 814.12,-262.92 814.12,-262.92 814.12,-258.96 818.08,-255 822.04,-255 822.04,-255 879.96,-255 879.96,-255 883.92,-255 887.88,-258.96 887.88,-262.92 887.88,-262.92 887.88,-270.83 887.88,-270.83 887.88,-274.79 883.92,-278.75 879.96,-278.75"/>
<text xml:space="preserve" text-anchor="middle" x="851" y="-261.45" font-family="Arial" font-size="14.00" fill="#000000">src/pkg.ts</text>
</g>
<!-- src/pkg.ts&#45;&gt;exit_src -->
<!-- src/alfa.ts -->
<g id="node12" class="node">
<title>src/alfa.ts</title>
<path fill="none" stroke="#000000" d="M823.96,-338.5C823.96,-338.5 766.04,-338.5 766.04,-338.5 762.08,-338.5 758.12,-334.54 758.12,-330.58 758.12,-330.58 758.12,-322.67 758.12,-322.67 758.12,-318.71 762.08,-314.75 766.04,-314.75 766.04,-314.75 823.96,-314.75 823.96,-314.75 827.92,-314.75 831.88,-318.71 831.88,-322.67 831.88,-322.67 831.88,-330.58 831.88,-330.58 831.88,-334.54 827.92,-338.5 823.96,-338.5"/>
<text xml:space="preserve" text-anchor="middle" x="795" y="-321.2" font-family="Arial" font-size="14.00" fill="#000000">src/alfa.ts</text>
</g>
<!-- src/alfa.ts&#45;&gt;src/alfa/command/audit.ts -->
<!-- src/alfa.ts&#45;&gt;src/alfa/command/audit.ts -->
<g id="edge39" class="edge">
<title>src/alfa.ts&#45;&gt;src/alfa/command/audit.ts</title>
<path fill="none" stroke="black" d="M757.63,-318.94C702.03,-309.68 596.2,-292.73 520.44,-280.91"/>
<polygon fill="black" stroke="black" points="521.41,-277.52 510.99,-279.44 520.33,-284.43 521.41,-277.52"/>
</g>
<!-- src/alfa.ts&#45;&gt;src/alfa/command/scrape.ts -->
<!-- src/alfa.ts&#45;&gt;src/alfa/command/scrape.ts -->
<g id="edge41" class="edge">
<title>src/alfa.ts&#45;&gt;src/alfa/command/scrape.ts</title>
<path fill="none" stroke="black" d="M799.18,-314.36C802.12,-295.1 802.54,-255.49 800.43,-230.46"/>
<polygon fill="black" stroke="black" points="803.93,-230.23 799.32,-220.69 796.97,-231.02 803.93,-230.23"/>
</g>
<!-- src/alfa.ts&#45;&gt;src/pkg.ts -->
<!-- src/alfa.ts&#45;&gt;src/pkg.ts -->
<g id="edge43" class="edge">
<title>src/alfa.ts&#45;&gt;src/pkg.ts</title>
<path fill="none" stroke="black" d="M811.26,-314.49C819.9,-306.9 830.17,-296.64 838.24,-287.68"/>
<polygon fill="black" stroke="black" points="840.86,-290 844.7,-280.13 835.54,-285.45 840.86,-290"/>
</g>
<!-- src/alfa.ts&#45;&gt;exit_src -->
</g>
</svg>
