<?xml version="1.0" encoding="UTF-8" standalone="no"?>
<!DOCTYPE svg PUBLIC "-//W3C//DTD SVG 1.1//EN"
 "http://www.w3.org/Graphics/SVG/1.1/DTD/svg11.dtd">
<!-- Generated by graphviz version 14.0.2 (20251019.1705)
 -->
<!-- Title: dependency&#45;graph&#45;@siteimprove/alfa&#45;jasmine Pages: 1 -->
<svg width="333pt" height="278pt"
 viewBox="0.00 0.00 333.00 278.00" xmlns="http://www.w3.org/2000/svg" xmlns:xlink="http://www.w3.org/1999/xlink">
<g id="graph0" class="graph" transform="scale(1 1) rotate(0) translate(21.6 256.6)">
<title>dependency&#45;graph&#45;@siteimprove/alfa&#45;jasmine</title>
<polygon fill="#ffffff" stroke="none" points="-21.6,21.6 -21.6,-256.6 311.6,-256.6 311.6,21.6 -21.6,21.6"/>
<g id="clust1" class="cluster">
<title>cluster_src</title>
<polygon fill="#ffffff" stroke="#000000" points="8,-8 8,-227 282,-227 282,-8 8,-8"/>
</g>
<!-- src/jasmine/add&#45;async&#45;matcher.ts -->
<g id="node1" class="node">
<title>src/jasmine/add&#45;async&#45;matcher.ts</title>
<path fill="none" stroke="#000000" d="M226.33,-99.5C226.33,-99.5 23.67,-99.5 23.67,-99.5 19.71,-99.5 15.75,-95.54 15.75,-91.58 15.75,-91.58 15.75,-83.67 15.75,-83.67 15.75,-79.71 19.71,-75.75 23.67,-75.75 23.67,-75.75 226.33,-75.75 226.33,-75.75 230.29,-75.75 234.25,-79.71 234.25,-83.67 234.25,-83.67 234.25,-91.58 234.25,-91.58 234.25,-95.54 230.29,-99.5 226.33,-99.5"/>
<text xml:space="preserve" text-anchor="middle" x="125" y="-82.2" font-family="Arial" font-size="14.00" fill="#000000">src/jasmine/add&#45;async&#45;matcher.ts</text>
</g>
<!-- exit_src -->
<!-- src/jasmine/add&#45;async&#45;matcher.ts&#45;&gt;exit_src -->
<!-- src/jasmine.ts -->
<g id="node2" class="node">
<title>src/jasmine.ts</title>
<path fill="none" stroke="#000000" d="M205.71,-159.25C205.71,-159.25 122.29,-159.25 122.29,-159.25 118.33,-159.25 114.38,-155.29 114.38,-151.33 114.38,-151.33 114.38,-143.42 114.38,-143.42 114.38,-139.46 118.33,-135.5 122.29,-135.5 122.29,-135.5 205.71,-135.5 205.71,-135.5 209.67,-135.5 213.62,-139.46 213.62,-143.42 213.62,-143.42 213.62,-151.33 213.62,-151.33 213.62,-155.29 209.67,-159.25 205.71,-159.25"/>
<text xml:space="preserve" text-anchor="middle" x="164" y="-141.95" font-family="Arial" font-size="14.00" fill="#000000">src/jasmine.ts</text>
</g>
<!-- src/jasmine.ts&#45;&gt;src/jasmine/add&#45;async&#45;matcher.ts -->
<!-- src/jasmine.ts&#45;&gt;src/jasmine/add&#45;async&#45;matcher.ts -->
<g id="edge5" class="edge">
<title>src/jasmine.ts&#45;&gt;src/jasmine/add&#45;async&#45;matcher.ts</title>
<path fill="none" stroke="black" d="M161.94,-135.24C158.13,-127.73 151.63,-117.61 145.03,-108.71"/>
<polygon fill="black" stroke="black" points="147.82,-106.6 138.89,-100.91 142.33,-110.94 147.82,-106.6"/>
</g>
<!-- src/jasmine.ts&#45;&gt;exit_src -->
<!-- src/index.ts -->
<g id="node4" class="node">
<title>src/index.ts</title>
<path fill="none" stroke="#ff0000" stroke-width="5" d="M198.21,-219C198.21,-219 129.79,-219 129.79,-219 125.83,-219 121.88,-215.04 121.88,-211.08 121.88,-211.08 121.88,-203.17 121.88,-203.17 121.88,-199.21 125.83,-195.25 129.79,-195.25 129.79,-195.25 198.21,-195.25 198.21,-195.25 202.17,-195.25 206.12,-199.21 206.12,-203.17 206.12,-203.17 206.12,-211.08 206.12,-211.08 206.12,-215.04 202.17,-219 198.21,-219"/>
<text xml:space="preserve" text-anchor="middle" x="164" y="-201.7" font-family="Arial" font-size="14.00" fill="#000000">src/index.ts</text>
</g>
<!-- src/index.ts&#45;&gt;src/jasmine.ts -->
<!-- src/index.ts&#45;&gt;src/jasmine.ts -->
<g id="edge7" class="edge">
<title>src/index.ts&#45;&gt;src/jasmine.ts</title>
<path fill="none" stroke="black" d="M169.76,-193.02C170.68,-186.46 170.96,-178.33 170.6,-170.82"/>
<polygon fill="black" stroke="black" points="174.09,-170.59 169.61,-160.99 167.13,-171.29 174.09,-170.59"/>
</g>
<!-- src/index.ts&#45;&gt;exit_src -->
</g>
</svg>
