<?xml version="1.0" encoding="UTF-8" standalone="no"?>
<!DOCTYPE svg PUBLIC "-//W3C//DTD SVG 1.1//EN"
 "http://www.w3.org/Graphics/SVG/1.1/DTD/svg11.dtd">
<!-- Generated by graphviz version 2.43.0 (0)
 -->
<!-- Title: dependency&#45;graph&#45;@siteimprove/alfa&#45;jasmine Pages: 1 -->
<svg width="367pt" height="350pt"
 viewBox="0.00 0.00 367.20 350.20" xmlns="http://www.w3.org/2000/svg" xmlns:xlink="http://www.w3.org/1999/xlink">
<g id="graph0" class="graph" transform="scale(1 1) rotate(0) translate(21.6 328.6)">
<title>dependency&#45;graph&#45;@siteimprove/alfa&#45;jasmine</title>
<polygon fill="#ffffff" stroke="transparent" points="-21.6,21.6 -21.6,-328.6 345.6,-328.6 345.6,21.6 -21.6,21.6"/>
<g id="clust1" class="cluster">
<title>cluster_src</title>
<polygon fill="#ffffff" stroke="#000000" points="8,-8 8,-299 316,-299 316,-8 8,-8"/>
</g>
<g id="clust2" class="cluster">
<title>cluster_src</title>
<polygon fill="#ffffff" stroke="#000000" points="16,-16 16,-291 308,-291 308,-16 16,-16"/>
</g>
<g id="clust3" class="cluster">
<title>cluster_src/jasmine</title>
<polygon fill="#ffffff" stroke="#000000" points="24,-75 24,-173 268,-173 268,-75 24,-75"/>
</g>
<!-- src/jasmine/add&#45;async&#45;matcher.ts -->
<g id="node1" class="node">
<title>src/jasmine/add&#45;async&#45;matcher.ts</title>
<path fill="none" stroke="#000000" d="M252.33,-165C252.33,-165 121.67,-165 121.67,-165 117.83,-165 114,-161.17 114,-157.33 114,-157.33 114,-149.67 114,-149.67 114,-145.83 117.83,-142 121.67,-142 121.67,-142 252.33,-142 252.33,-142 256.17,-142 260,-145.83 260,-149.67 260,-149.67 260,-157.33 260,-157.33 260,-161.17 256.17,-165 252.33,-165"/>
<text text-anchor="middle" x="187" y="-149.8" font-family="Arial" font-size="14.00" fill="#000000">add&#45;async&#45;matcher.ts</text>
</g>
<!-- exit_src/jasmine -->
<!-- src/jasmine/add&#45;async&#45;matcher.ts&#45;&gt;exit_src/jasmine -->
<!-- name_src/jasmine -->
<g id="node2" class="node">
<title>name_src/jasmine</title>
<path fill="none" stroke="#00ffff" stroke-width="5" d="M88.33,-165C88.33,-165 39.67,-165 39.67,-165 35.83,-165 32,-161.17 32,-157.33 32,-157.33 32,-149.67 32,-149.67 32,-145.83 35.83,-142 39.67,-142 39.67,-142 88.33,-142 88.33,-142 92.17,-142 96,-145.83 96,-149.67 96,-149.67 96,-157.33 96,-157.33 96,-161.17 92.17,-165 88.33,-165"/>
<text text-anchor="middle" x="64" y="-149.8" font-family="Arial" font-size="14.00" fill="#000000">jasmine</text>
</g>
<!-- src/jasmine.ts -->
<g id="node3" class="node">
<title>src/jasmine.ts</title>
<path fill="none" stroke="#000000" d="M227.33,-224C227.33,-224 164.67,-224 164.67,-224 160.83,-224 157,-220.17 157,-216.33 157,-216.33 157,-208.67 157,-208.67 157,-204.83 160.83,-201 164.67,-201 164.67,-201 227.33,-201 227.33,-201 231.17,-201 235,-204.83 235,-208.67 235,-208.67 235,-216.33 235,-216.33 235,-220.17 231.17,-224 227.33,-224"/>
<text text-anchor="middle" x="196" y="-208.8" font-family="Arial" font-size="14.00" fill="#000000">jasmine.ts</text>
</g>
<!-- src/jasmine.ts&#45;&gt;name_src/jasmine -->
<g id="edge8" class="edge">
<title>src/jasmine.ts&#45;&gt;name_src/jasmine</title>
<path fill="none" stroke="#ff0000" d="M170.43,-200.87C154.66,-194.28 133.76,-185.46 114.18,-176.99"/>
<polygon fill="#ff0000" stroke="#ff0000" points="115.57,-173.78 105,-173 112.77,-180.2 115.57,-173.78"/>
</g>
<!-- exit_src -->
<!-- src/jasmine.ts&#45;&gt;exit_src -->
<!-- exit_src&#45;&gt;exit_src -->
<!-- exit_src&#45;&gt;exit_src -->
<!-- exit_src&#45;&gt;exit_src -->
<!-- name_src -->
<g id="node5" class="node">
<title>name_src</title>
<path fill="none" stroke="#ff0000" stroke-width="5" d="M292.33,-283C292.33,-283 253.67,-283 253.67,-283 249.83,-283 246,-279.17 246,-275.33 246,-275.33 246,-267.67 246,-267.67 246,-263.83 249.83,-260 253.67,-260 253.67,-260 292.33,-260 292.33,-260 296.17,-260 300,-263.83 300,-267.67 300,-267.67 300,-275.33 300,-275.33 300,-279.17 296.17,-283 292.33,-283"/>
<text text-anchor="middle" x="273" y="-267.8" font-family="Arial" font-size="14.00" fill="#000000">src</text>
</g>
<!-- src/index.ts -->
<g id="node6" class="node">
<title>src/index.ts</title>
<path fill="none" stroke="#ff0000" stroke-width="5" d="M219.83,-283C219.83,-283 172.17,-283 172.17,-283 168.33,-283 164.5,-279.17 164.5,-275.33 164.5,-275.33 164.5,-267.67 164.5,-267.67 164.5,-263.83 168.33,-260 172.17,-260 172.17,-260 219.83,-260 219.83,-260 223.67,-260 227.5,-263.83 227.5,-267.67 227.5,-267.67 227.5,-275.33 227.5,-275.33 227.5,-279.17 223.67,-283 219.83,-283"/>
<text text-anchor="middle" x="196" y="-267.8" font-family="Arial" font-size="14.00" fill="#000000">index.ts</text>
</g>
<!-- src/index.ts&#45;&gt;src/jasmine.ts -->
<!-- src/index.ts&#45;&gt;src/jasmine.ts -->
<g id="edge10" class="edge">
<title>src/index.ts&#45;&gt;src/jasmine.ts</title>
<path fill="none" stroke="black" d="M201.41,-259.78C202.67,-252.61 203.04,-242.95 202.53,-234.31"/>
<polygon fill="black" stroke="black" points="205.98,-233.73 201.4,-224.17 199.03,-234.5 205.98,-233.73"/>
</g>
<!-- src/index.ts&#45;&gt;exit_src -->
<!-- exit_src/jasmine&#45;&gt;exit_src -->
</g>
</svg>
