<?xml version="1.0" encoding="UTF-8" standalone="no"?>
<!DOCTYPE svg PUBLIC "-//W3C//DTD SVG 1.1//EN"
 "http://www.w3.org/Graphics/SVG/1.1/DTD/svg11.dtd">
<!-- Generated by graphviz version 2.43.0 (0)
 -->
<!-- Title: dependency&#45;graph&#45;[object Object] Pages: 1 -->
<svg width="368pt" height="385pt"
 viewBox="0.00 0.00 367.70 385.20" xmlns="http://www.w3.org/2000/svg" xmlns:xlink="http://www.w3.org/1999/xlink">
<g id="graph0" class="graph" transform="scale(1 1) rotate(0) translate(21.6 363.6)">
<title>dependency&#45;graph&#45;[object Object]</title>
<polygon fill="#ffffff" stroke="transparent" points="-21.6,21.6 -21.6,-363.6 346.1,-363.6 346.1,21.6 -21.6,21.6"/>
<g id="clust1" class="cluster">
<title>cluster_src</title>
<polygon fill="#ffffff" stroke="#000000" points="8,-43 8,-334 316,-334 316,-43 8,-43"/>
</g>
<g id="clust2" class="cluster">
<title>cluster_src</title>
<polygon fill="#ffffff" stroke="#000000" points="16,-51 16,-326 308,-326 308,-51 16,-51"/>
</g>
<g id="clust3" class="cluster">
<title>cluster_src/jasmine</title>
<polygon fill="#ffffff" stroke="#000000" points="24,-110 24,-208 268,-208 268,-110 24,-110"/>
</g>
<!-- dependency&#45;graph&#45;[object Object] -->
<!-- src/jasmine.ts -->
<g id="node2" class="node">
<title>src/jasmine.ts</title>
<path fill="none" stroke="#000000" d="M227.33,-259C227.33,-259 164.67,-259 164.67,-259 160.83,-259 157,-255.17 157,-251.33 157,-251.33 157,-243.67 157,-243.67 157,-239.83 160.83,-236 164.67,-236 164.67,-236 227.33,-236 227.33,-236 231.17,-236 235,-239.83 235,-243.67 235,-243.67 235,-251.33 235,-251.33 235,-255.17 231.17,-259 227.33,-259"/>
<text text-anchor="middle" x="196" y="-243.8" font-family="Arial" font-size="14.00" fill="#000000">jasmine.ts</text>
</g>
<!-- name_src/jasmine -->
<g id="node4" class="node">
<title>name_src/jasmine</title>
<path fill="none" stroke="#00ffff" stroke-width="5" d="M88.33,-200C88.33,-200 39.67,-200 39.67,-200 35.83,-200 32,-196.17 32,-192.33 32,-192.33 32,-184.67 32,-184.67 32,-180.83 35.83,-177 39.67,-177 39.67,-177 88.33,-177 88.33,-177 92.17,-177 96,-180.83 96,-184.67 96,-184.67 96,-192.33 96,-192.33 96,-196.17 92.17,-200 88.33,-200"/>
<text text-anchor="middle" x="64" y="-184.8" font-family="Arial" font-size="14.00" fill="#000000">jasmine</text>
</g>
<!-- src/jasmine.ts&#45;&gt;name_src/jasmine -->
<g id="edge11" class="edge">
<title>src/jasmine.ts&#45;&gt;name_src/jasmine</title>
<path fill="none" stroke="#ff0000" d="M170.43,-235.87C154.66,-229.28 133.76,-220.46 114.18,-211.99"/>
<polygon fill="#ff0000" stroke="#ff0000" points="115.57,-208.78 105,-208 112.77,-215.2 115.57,-208.78"/>
</g>
<!-- exit_src -->
<!-- src/jasmine.ts&#45;&gt;exit_src -->
<!-- src/jasmine/add&#45;async&#45;matcher.ts -->
<g id="node3" class="node">
<title>src/jasmine/add&#45;async&#45;matcher.ts</title>
<path fill="none" stroke="#000000" d="M252.33,-200C252.33,-200 121.67,-200 121.67,-200 117.83,-200 114,-196.17 114,-192.33 114,-192.33 114,-184.67 114,-184.67 114,-180.83 117.83,-177 121.67,-177 121.67,-177 252.33,-177 252.33,-177 256.17,-177 260,-180.83 260,-184.67 260,-184.67 260,-192.33 260,-192.33 260,-196.17 256.17,-200 252.33,-200"/>
<text text-anchor="middle" x="187" y="-184.8" font-family="Arial" font-size="14.00" fill="#000000">add&#45;async&#45;matcher.ts</text>
</g>
<!-- exit_src/jasmine -->
<!-- src/jasmine/add&#45;async&#45;matcher.ts&#45;&gt;exit_src/jasmine -->
<!-- name_src -->
<g id="node5" class="node">
<title>name_src</title>
<path fill="none" stroke="#ff0000" stroke-width="5" d="M292.33,-318C292.33,-318 253.67,-318 253.67,-318 249.83,-318 246,-314.17 246,-310.33 246,-310.33 246,-302.67 246,-302.67 246,-298.83 249.83,-295 253.67,-295 253.67,-295 292.33,-295 292.33,-295 296.17,-295 300,-298.83 300,-302.67 300,-302.67 300,-310.33 300,-310.33 300,-314.17 296.17,-318 292.33,-318"/>
<text text-anchor="middle" x="273" y="-302.8" font-family="Arial" font-size="14.00" fill="#000000">src</text>
</g>
<!-- exit_src&#45;&gt;dependency&#45;graph&#45;[object Object] -->
<!-- exit_src&#45;&gt;exit_src -->
<!-- exit_src&#45;&gt;exit_src -->
<!-- exit_src&#45;&gt;exit_src -->
<!-- src/index.ts -->
<g id="node7" class="node">
<title>src/index.ts</title>
<path fill="none" stroke="#ff0000" stroke-width="5" d="M219.83,-318C219.83,-318 172.17,-318 172.17,-318 168.33,-318 164.5,-314.17 164.5,-310.33 164.5,-310.33 164.5,-302.67 164.5,-302.67 164.5,-298.83 168.33,-295 172.17,-295 172.17,-295 219.83,-295 219.83,-295 223.67,-295 227.5,-298.83 227.5,-302.67 227.5,-302.67 227.5,-310.33 227.5,-310.33 227.5,-314.17 223.67,-318 219.83,-318"/>
<text text-anchor="middle" x="196" y="-302.8" font-family="Arial" font-size="14.00" fill="#000000">index.ts</text>
</g>
<!-- src/index.ts&#45;&gt;src/jasmine.ts -->
<!-- src/index.ts&#45;&gt;src/jasmine.ts -->
<g id="edge10" class="edge">
<title>src/index.ts&#45;&gt;src/jasmine.ts</title>
<path fill="none" stroke="black" d="M201.41,-294.78C202.67,-287.61 203.04,-277.95 202.53,-269.31"/>
<polygon fill="black" stroke="black" points="205.98,-268.73 201.4,-259.17 199.03,-269.5 205.98,-268.73"/>
</g>
<!-- src/index.ts&#45;&gt;exit_src -->
<!-- exit_src/jasmine&#45;&gt;exit_src -->
</g>
</svg>
