<?xml version="1.0" encoding="UTF-8" standalone="no"?>
<!DOCTYPE svg PUBLIC "-//W3C//DTD SVG 1.1//EN"
 "http://www.w3.org/Graphics/SVG/1.1/DTD/svg11.dtd">
<!-- Generated by graphviz version 14.0.2 (20251019.1705)
 -->
<!-- Title: dependency&#45;graph&#45;@siteimprove/alfa&#45;react Pages: 1 -->
<svg width="177pt" height="218pt"
 viewBox="0.00 0.00 177.00 218.00" xmlns="http://www.w3.org/2000/svg" xmlns:xlink="http://www.w3.org/1999/xlink">
<g id="graph0" class="graph" transform="scale(1 1) rotate(0) translate(21.6 196.85)">
<title>dependency&#45;graph&#45;@siteimprove/alfa&#45;react</title>
<polygon fill="#ffffff" stroke="none" points="-21.6,21.6 -21.6,-196.85 155.6,-196.85 155.6,21.6 -21.6,21.6"/>
<g id="clust1" class="cluster">
<title>cluster_src</title>
<polygon fill="#ffffff" stroke="#000000" points="8,-8 8,-167.25 126,-167.25 126,-8 8,-8"/>
</g>
<!-- src/react.ts -->
<g id="node1" class="node">
<title>src/react.ts</title>
<path fill="none" stroke="#000000" d="M90.08,-99.5C90.08,-99.5 23.92,-99.5 23.92,-99.5 19.96,-99.5 16,-95.54 16,-91.58 16,-91.58 16,-83.67 16,-83.67 16,-79.71 19.96,-75.75 23.92,-75.75 23.92,-75.75 90.08,-75.75 90.08,-75.75 94.04,-75.75 98,-79.71 98,-83.67 98,-83.67 98,-91.58 98,-91.58 98,-95.54 94.04,-99.5 90.08,-99.5"/>
<text xml:space="preserve" text-anchor="middle" x="57" y="-82.2" font-family="Arial" font-size="14.00" fill="#000000">src/react.ts</text>
</g>
<!-- exit_src -->
<!-- src/react.ts&#45;&gt;exit_src -->
<!-- src/index.ts -->
<g id="node2" class="node">
<title>src/index.ts</title>
<path fill="none" stroke="#ff0000" stroke-width="5" d="M92.21,-159.25C92.21,-159.25 23.79,-159.25 23.79,-159.25 19.83,-159.25 15.88,-155.29 15.88,-151.33 15.88,-151.33 15.88,-143.42 15.88,-143.42 15.88,-139.46 19.83,-135.5 23.79,-135.5 23.79,-135.5 92.21,-135.5 92.21,-135.5 96.17,-135.5 100.12,-139.46 100.12,-143.42 100.12,-143.42 100.12,-151.33 100.12,-151.33 100.12,-155.29 96.17,-159.25 92.21,-159.25"/>
<text xml:space="preserve" text-anchor="middle" x="58" y="-141.95" font-family="Arial" font-size="14.00" fill="#000000">src/index.ts</text>
</g>
<!-- src/index.ts&#45;&gt;src/react.ts -->
<!-- src/index.ts&#45;&gt;src/react.ts -->
<g id="edge4" class="edge">
<title>src/index.ts&#45;&gt;src/react.ts</title>
<path fill="none" stroke="black" d="M63.53,-133.27C64.34,-126.71 64.48,-118.58 63.99,-111.07"/>
<polygon fill="black" stroke="black" points="67.48,-110.76 62.82,-101.24 60.52,-111.58 67.48,-110.76"/>
</g>
<!-- src/index.ts&#45;&gt;exit_src -->
</g>
</svg>
