<?xml version="1.0" encoding="UTF-8" standalone="no"?>
<!DOCTYPE svg PUBLIC "-//W3C//DTD SVG 1.1//EN"
 "http://www.w3.org/Graphics/SVG/1.1/DTD/svg11.dtd">
<!-- Generated by graphviz version 2.43.0 (0)
 -->
<!-- Title: dependency&#45;graph&#45;@siteimprove/alfa&#45;scraper Pages: 1 -->
<svg width="527pt" height="291pt"
 viewBox="0.00 0.00 527.20 291.20" xmlns="http://www.w3.org/2000/svg" xmlns:xlink="http://www.w3.org/1999/xlink">
<g id="graph0" class="graph" transform="scale(1 1) rotate(0) translate(21.6 269.6)">
<title>dependency&#45;graph&#45;@siteimprove/alfa&#45;scraper</title>
<polygon fill="#ffffff" stroke="transparent" points="-21.6,21.6 -21.6,-269.6 505.6,-269.6 505.6,21.6 -21.6,21.6"/>
<g id="clust1" class="cluster">
<title>cluster_src</title>
<polygon fill="#ffffff" stroke="#000000" points="8,-8 8,-240 476,-240 476,-8 8,-8"/>
</g>
<g id="clust2" class="cluster">
<title>cluster_src</title>
<polygon fill="#ffffff" stroke="#000000" points="16,-16 16,-232 468,-232 468,-16 16,-16"/>
</g>
<!-- src/archive.ts -->
<g id="node1" class="node">
<title>src/archive.ts</title>
<path fill="none" stroke="#000000" d="M90.33,-106C90.33,-106 31.67,-106 31.67,-106 27.83,-106 24,-102.17 24,-98.33 24,-98.33 24,-90.67 24,-90.67 24,-86.83 27.83,-83 31.67,-83 31.67,-83 90.33,-83 90.33,-83 94.17,-83 98,-86.83 98,-90.67 98,-90.67 98,-98.33 98,-98.33 98,-102.17 94.17,-106 90.33,-106"/>
<text text-anchor="middle" x="61" y="-90.8" font-family="Arial" font-size="14.00" fill="#000000">archive.ts</text>
</g>
<!-- exit_src -->
<!-- src/archive.ts&#45;&gt;exit_src -->
<!-- src/awaiter.ts -->
<g id="node2" class="node">
<title>src/awaiter.ts</title>
<path fill="none" stroke="#000000" d="M182.33,-106C182.33,-106 123.67,-106 123.67,-106 119.83,-106 116,-102.17 116,-98.33 116,-98.33 116,-90.67 116,-90.67 116,-86.83 119.83,-83 123.67,-83 123.67,-83 182.33,-83 182.33,-83 186.17,-83 190,-86.83 190,-90.67 190,-90.67 190,-98.33 190,-98.33 190,-102.17 186.17,-106 182.33,-106"/>
<text text-anchor="middle" x="153" y="-90.8" font-family="Arial" font-size="14.00" fill="#000000">awaiter.ts</text>
</g>
<!-- src/awaiter.ts&#45;&gt;exit_src -->
<!-- src/credentials.ts -->
<g id="node3" class="node">
<title>src/credentials.ts</title>
<path fill="none" stroke="#000000" d="M316.33,-106C316.33,-106 235.67,-106 235.67,-106 231.83,-106 228,-102.17 228,-98.33 228,-98.33 228,-90.67 228,-90.67 228,-86.83 231.83,-83 235.67,-83 235.67,-83 316.33,-83 316.33,-83 320.17,-83 324,-86.83 324,-90.67 324,-90.67 324,-98.33 324,-98.33 324,-102.17 320.17,-106 316.33,-106"/>
<text text-anchor="middle" x="276" y="-90.8" font-family="Arial" font-size="14.00" fill="#000000">credentials.ts</text>
</g>
<!-- src/credentials.ts&#45;&gt;exit_src -->
<!-- src/scraper.ts -->
<g id="node4" class="node">
<title>src/scraper.ts</title>
<path fill="none" stroke="#000000" d="M241.83,-165C241.83,-165 182.17,-165 182.17,-165 178.33,-165 174.5,-161.17 174.5,-157.33 174.5,-157.33 174.5,-149.67 174.5,-149.67 174.5,-145.83 178.33,-142 182.17,-142 182.17,-142 241.83,-142 241.83,-142 245.67,-142 249.5,-145.83 249.5,-149.67 249.5,-149.67 249.5,-157.33 249.5,-157.33 249.5,-161.17 245.67,-165 241.83,-165"/>
<text text-anchor="middle" x="212" y="-149.8" font-family="Arial" font-size="14.00" fill="#000000">scraper.ts</text>
</g>
<!-- src/scraper.ts&#45;&gt;src/archive.ts -->
<!-- src/scraper.ts&#45;&gt;src/archive.ts -->
<g id="edge24" class="edge">
<title>src/scraper.ts&#45;&gt;src/archive.ts</title>
<path fill="none" stroke="black" d="M189.34,-141.91C166.71,-132.75 131.62,-119.45 103.79,-109.43"/>
<polygon fill="black" stroke="black" points="104.87,-106.1 94.28,-106.03 102.52,-112.69 104.87,-106.1"/>
</g>
<!-- src/scraper.ts&#45;&gt;src/awaiter.ts -->
<!-- src/scraper.ts&#45;&gt;src/awaiter.ts -->
<g id="edge26" class="edge">
<title>src/scraper.ts&#45;&gt;src/awaiter.ts</title>
<path fill="none" stroke="black" d="M206.31,-141.78C199.33,-133.66 187.9,-122.33 177.3,-112.92"/>
<polygon fill="black" stroke="black" points="179.32,-110.03 169.45,-106.17 174.76,-115.34 179.32,-110.03"/>
</g>
<!-- src/scraper.ts&#45;&gt;src/credentials.ts -->
<!-- src/scraper.ts&#45;&gt;src/credentials.ts -->
<g id="edge28" class="edge">
<title>src/scraper.ts&#45;&gt;src/credentials.ts</title>
<path fill="none" stroke="black" stroke-dasharray="1,5" d="M229.45,-141.78C239.79,-133.82 252.49,-122.77 262.14,-113.47"/>
<polygon fill="black" stroke="black" points="264.84,-115.73 269.42,-106.17 259.88,-110.78 264.84,-115.73"/>
</g>
<!-- src/screenshot.ts -->
<g id="node5" class="node">
<title>src/screenshot.ts</title>
<path fill="none" stroke="#000000" d="M431.83,-106C431.83,-106 350.17,-106 350.17,-106 346.33,-106 342.5,-102.17 342.5,-98.33 342.5,-98.33 342.5,-90.67 342.5,-90.67 342.5,-86.83 346.33,-83 350.17,-83 350.17,-83 431.83,-83 431.83,-83 435.67,-83 439.5,-86.83 439.5,-90.67 439.5,-90.67 439.5,-98.33 439.5,-98.33 439.5,-102.17 435.67,-106 431.83,-106"/>
<text text-anchor="middle" x="391" y="-90.8" font-family="Arial" font-size="14.00" fill="#000000">screenshot.ts</text>
</g>
<!-- src/scraper.ts&#45;&gt;src/screenshot.ts -->
<!-- src/scraper.ts&#45;&gt;src/screenshot.ts -->
<g id="edge30" class="edge">
<title>src/scraper.ts&#45;&gt;src/screenshot.ts</title>
<path fill="none" stroke="black" stroke-dasharray="1,5" d="M249.76,-142.18C280.31,-132.98 322.97,-119.46 353.46,-109.33"/>
<polygon fill="black" stroke="black" points="354.92,-112.53 363.3,-106.03 352.7,-105.89 354.92,-112.53"/>
</g>
<!-- src/scraper.ts&#45;&gt;exit_src -->
<!-- src/screenshot.ts&#45;&gt;exit_src -->
<!-- exit_src&#45;&gt;exit_src -->
<!-- exit_src&#45;&gt;exit_src -->
<!-- exit_src&#45;&gt;exit_src -->
<!-- exit_src&#45;&gt;exit_src -->
<!-- exit_src&#45;&gt;exit_src -->
<!-- exit_src&#45;&gt;exit_src -->
<!-- name_src -->
<g id="node7" class="node">
<title>name_src</title>
<path fill="none" stroke="#ff0000" stroke-width="5" d="M381.33,-224C381.33,-224 342.67,-224 342.67,-224 338.83,-224 335,-220.17 335,-216.33 335,-216.33 335,-208.67 335,-208.67 335,-204.83 338.83,-201 342.67,-201 342.67,-201 381.33,-201 381.33,-201 385.17,-201 389,-204.83 389,-208.67 389,-208.67 389,-216.33 389,-216.33 389,-220.17 385.17,-224 381.33,-224"/>
<text text-anchor="middle" x="362" y="-208.8" font-family="Arial" font-size="14.00" fill="#000000">src</text>
</g>
<!-- src/index.ts -->
<g id="node8" class="node">
<title>src/index.ts</title>
<path fill="none" stroke="#ff0000" stroke-width="5" d="M235.83,-224C235.83,-224 188.17,-224 188.17,-224 184.33,-224 180.5,-220.17 180.5,-216.33 180.5,-216.33 180.5,-208.67 180.5,-208.67 180.5,-204.83 184.33,-201 188.17,-201 188.17,-201 235.83,-201 235.83,-201 239.67,-201 243.5,-204.83 243.5,-208.67 243.5,-208.67 243.5,-216.33 243.5,-216.33 243.5,-220.17 239.67,-224 235.83,-224"/>
<text text-anchor="middle" x="212" y="-208.8" font-family="Arial" font-size="14.00" fill="#000000">index.ts</text>
</g>
<!-- src/index.ts&#45;&gt;src/archive.ts -->
<!-- src/index.ts&#45;&gt;src/archive.ts -->
<g id="edge14" class="edge">
<title>src/index.ts&#45;&gt;src/archive.ts</title>
<path fill="none" stroke="black" d="M202.18,-200.79C179,-180.51 121.77,-136.34 87.58,-112.15"/>
<polygon fill="black" stroke="black" points="89.22,-109.03 79.01,-106.18 85.21,-114.77 89.22,-109.03"/>
</g>
<!-- src/index.ts&#45;&gt;src/awaiter.ts -->
<!-- src/index.ts&#45;&gt;src/awaiter.ts -->
<g id="edge16" class="edge">
<title>src/index.ts&#45;&gt;src/awaiter.ts</title>
<path fill="none" stroke="black" d="M205.04,-200.9C196.19,-192.39 182.59,-179.49 175,-165 167.01,-149.75 163.88,-130.35 161.19,-115.92"/>
<polygon fill="black" stroke="black" points="164.6,-115.1 159.15,-106.01 157.74,-116.51 164.6,-115.1"/>
</g>
<!-- src/index.ts&#45;&gt;src/credentials.ts -->
<!-- src/index.ts&#45;&gt;src/credentials.ts -->
<g id="edge18" class="edge">
<title>src/index.ts&#45;&gt;src/credentials.ts</title>
<path fill="none" stroke="black" d="M233.84,-200.85C246,-192.3 259.85,-179.38 268,-165 276.5,-149.99 280.78,-130.81 281.48,-116.41"/>
<polygon fill="black" stroke="black" points="284.98,-115.98 281.29,-106.05 277.98,-116.11 284.98,-115.98"/>
</g>
<!-- src/index.ts&#45;&gt;src/scraper.ts -->
<!-- src/index.ts&#45;&gt;src/scraper.ts -->
<g id="edge20" class="edge">
<title>src/index.ts&#45;&gt;src/scraper.ts</title>
<path fill="none" stroke="black" d="M217.41,-200.78C218.67,-193.61 219.04,-183.95 218.53,-175.31"/>
<polygon fill="black" stroke="black" points="221.98,-174.73 217.4,-165.17 215.03,-175.5 221.98,-174.73"/>
</g>
<!-- src/index.ts&#45;&gt;src/screenshot.ts -->
<!-- src/index.ts&#45;&gt;src/screenshot.ts -->
<g id="edge22" class="edge">
<title>src/index.ts&#45;&gt;src/screenshot.ts</title>
<path fill="none" stroke="black" d="M232.63,-200.79C267.16,-180.51 335.58,-136.34 370.21,-112.15"/>
<polygon fill="black" stroke="black" points="372.5,-114.82 378.63,-106.18 368.45,-109.11 372.5,-114.82"/>
</g>
<!-- src/index.ts&#45;&gt;exit_src -->
</g>
</svg>
