<?xml version="1.0" encoding="UTF-8" standalone="no"?>
<!DOCTYPE svg PUBLIC "-//W3C//DTD SVG 1.1//EN"
 "http://www.w3.org/Graphics/SVG/1.1/DTD/svg11.dtd">
<!-- Generated by graphviz version 2.43.0 (0)
 -->
<!-- Title: dependency&#45;graph&#45;[object Object] Pages: 1 -->
<svg width="527pt" height="326pt"
 viewBox="0.00 0.00 527.20 326.20" xmlns="http://www.w3.org/2000/svg" xmlns:xlink="http://www.w3.org/1999/xlink">
<g id="graph0" class="graph" transform="scale(1 1) rotate(0) translate(21.6 304.6)">
<title>dependency&#45;graph&#45;[object Object]</title>
<polygon fill="#ffffff" stroke="transparent" points="-21.6,21.6 -21.6,-304.6 505.6,-304.6 505.6,21.6 -21.6,21.6"/>
<g id="clust1" class="cluster">
<title>cluster_src</title>
<polygon fill="#ffffff" stroke="#000000" points="8,-43 8,-275 476,-275 476,-43 8,-43"/>
</g>
<g id="clust2" class="cluster">
<title>cluster_src</title>
<polygon fill="#ffffff" stroke="#000000" points="16,-51 16,-267 468,-267 468,-51 16,-51"/>
</g>
<!-- dependency&#45;graph&#45;[object Object] -->
<!-- src/archive.ts -->
<g id="node2" class="node">
<title>src/archive.ts</title>
<path fill="none" stroke="#000000" d="M90.33,-141C90.33,-141 31.67,-141 31.67,-141 27.83,-141 24,-137.17 24,-133.33 24,-133.33 24,-125.67 24,-125.67 24,-121.83 27.83,-118 31.67,-118 31.67,-118 90.33,-118 90.33,-118 94.17,-118 98,-121.83 98,-125.67 98,-125.67 98,-133.33 98,-133.33 98,-137.17 94.17,-141 90.33,-141"/>
<text text-anchor="middle" x="61" y="-125.8" font-family="Arial" font-size="14.00" fill="#000000">archive.ts</text>
</g>
<!-- exit_src -->
<!-- src/archive.ts&#45;&gt;exit_src -->
<!-- src/awaiter.ts -->
<g id="node3" class="node">
<title>src/awaiter.ts</title>
<path fill="none" stroke="#000000" d="M182.33,-141C182.33,-141 123.67,-141 123.67,-141 119.83,-141 116,-137.17 116,-133.33 116,-133.33 116,-125.67 116,-125.67 116,-121.83 119.83,-118 123.67,-118 123.67,-118 182.33,-118 182.33,-118 186.17,-118 190,-121.83 190,-125.67 190,-125.67 190,-133.33 190,-133.33 190,-137.17 186.17,-141 182.33,-141"/>
<text text-anchor="middle" x="153" y="-125.8" font-family="Arial" font-size="14.00" fill="#000000">awaiter.ts</text>
</g>
<!-- src/awaiter.ts&#45;&gt;exit_src -->
<!-- src/credentials.ts -->
<g id="node4" class="node">
<title>src/credentials.ts</title>
<path fill="none" stroke="#000000" d="M316.33,-141C316.33,-141 235.67,-141 235.67,-141 231.83,-141 228,-137.17 228,-133.33 228,-133.33 228,-125.67 228,-125.67 228,-121.83 231.83,-118 235.67,-118 235.67,-118 316.33,-118 316.33,-118 320.17,-118 324,-121.83 324,-125.67 324,-125.67 324,-133.33 324,-133.33 324,-137.17 320.17,-141 316.33,-141"/>
<text text-anchor="middle" x="276" y="-125.8" font-family="Arial" font-size="14.00" fill="#000000">credentials.ts</text>
</g>
<!-- src/credentials.ts&#45;&gt;exit_src -->
<!-- src/scraper.ts -->
<g id="node5" class="node">
<title>src/scraper.ts</title>
<path fill="none" stroke="#000000" d="M241.83,-200C241.83,-200 182.17,-200 182.17,-200 178.33,-200 174.5,-196.17 174.5,-192.33 174.5,-192.33 174.5,-184.67 174.5,-184.67 174.5,-180.83 178.33,-177 182.17,-177 182.17,-177 241.83,-177 241.83,-177 245.67,-177 249.5,-180.83 249.5,-184.67 249.5,-184.67 249.5,-192.33 249.5,-192.33 249.5,-196.17 245.67,-200 241.83,-200"/>
<text text-anchor="middle" x="212" y="-184.8" font-family="Arial" font-size="14.00" fill="#000000">scraper.ts</text>
</g>
<!-- src/scraper.ts&#45;&gt;src/archive.ts -->
<!-- src/scraper.ts&#45;&gt;src/archive.ts -->
<g id="edge25" class="edge">
<title>src/scraper.ts&#45;&gt;src/archive.ts</title>
<path fill="none" stroke="black" d="M189.34,-176.91C166.71,-167.75 131.62,-154.45 103.79,-144.43"/>
<polygon fill="black" stroke="black" points="104.87,-141.1 94.28,-141.03 102.52,-147.69 104.87,-141.1"/>
</g>
<!-- src/scraper.ts&#45;&gt;src/awaiter.ts -->
<!-- src/scraper.ts&#45;&gt;src/awaiter.ts -->
<g id="edge27" class="edge">
<title>src/scraper.ts&#45;&gt;src/awaiter.ts</title>
<path fill="none" stroke="black" d="M206.31,-176.78C199.33,-168.66 187.9,-157.33 177.3,-147.92"/>
<polygon fill="black" stroke="black" points="179.32,-145.03 169.45,-141.17 174.76,-150.34 179.32,-145.03"/>
</g>
<!-- src/scraper.ts&#45;&gt;src/credentials.ts -->
<!-- src/scraper.ts&#45;&gt;src/credentials.ts -->
<g id="edge29" class="edge">
<title>src/scraper.ts&#45;&gt;src/credentials.ts</title>
<path fill="none" stroke="black" d="M229.45,-176.78C239.79,-168.82 252.49,-157.77 262.14,-148.47"/>
<polygon fill="black" stroke="black" points="264.84,-150.73 269.42,-141.17 259.88,-145.78 264.84,-150.73"/>
</g>
<!-- src/screenshot.ts -->
<g id="node6" class="node">
<title>src/screenshot.ts</title>
<path fill="none" stroke="#000000" d="M431.83,-141C431.83,-141 350.17,-141 350.17,-141 346.33,-141 342.5,-137.17 342.5,-133.33 342.5,-133.33 342.5,-125.67 342.5,-125.67 342.5,-121.83 346.33,-118 350.17,-118 350.17,-118 431.83,-118 431.83,-118 435.67,-118 439.5,-121.83 439.5,-125.67 439.5,-125.67 439.5,-133.33 439.5,-133.33 439.5,-137.17 435.67,-141 431.83,-141"/>
<text text-anchor="middle" x="391" y="-125.8" font-family="Arial" font-size="14.00" fill="#000000">screenshot.ts</text>
</g>
<!-- src/scraper.ts&#45;&gt;src/screenshot.ts -->
<!-- src/scraper.ts&#45;&gt;src/screenshot.ts -->
<g id="edge31" class="edge">
<title>src/scraper.ts&#45;&gt;src/screenshot.ts</title>
<path fill="none" stroke="black" d="M249.76,-177.18C280.31,-167.98 322.97,-154.46 353.46,-144.33"/>
<polygon fill="black" stroke="black" points="354.92,-147.53 363.3,-141.03 352.7,-140.89 354.92,-147.53"/>
</g>
<!-- src/scraper.ts&#45;&gt;exit_src -->
<!-- src/screenshot.ts&#45;&gt;exit_src -->
<!-- name_src -->
<g id="node7" class="node">
<title>name_src</title>
<path fill="none" stroke="#ff0000" stroke-width="5" d="M381.33,-259C381.33,-259 342.67,-259 342.67,-259 338.83,-259 335,-255.17 335,-251.33 335,-251.33 335,-243.67 335,-243.67 335,-239.83 338.83,-236 342.67,-236 342.67,-236 381.33,-236 381.33,-236 385.17,-236 389,-239.83 389,-243.67 389,-243.67 389,-251.33 389,-251.33 389,-255.17 385.17,-259 381.33,-259"/>
<text text-anchor="middle" x="362" y="-243.8" font-family="Arial" font-size="14.00" fill="#000000">src</text>
</g>
<!-- exit_src&#45;&gt;dependency&#45;graph&#45;[object Object] -->
<!-- exit_src&#45;&gt;exit_src -->
<!-- exit_src&#45;&gt;exit_src -->
<!-- exit_src&#45;&gt;exit_src -->
<!-- exit_src&#45;&gt;exit_src -->
<!-- exit_src&#45;&gt;exit_src -->
<!-- exit_src&#45;&gt;exit_src -->
<!-- src/index.ts -->
<g id="node9" class="node">
<title>src/index.ts</title>
<path fill="none" stroke="#ff0000" stroke-width="5" d="M235.83,-259C235.83,-259 188.17,-259 188.17,-259 184.33,-259 180.5,-255.17 180.5,-251.33 180.5,-251.33 180.5,-243.67 180.5,-243.67 180.5,-239.83 184.33,-236 188.17,-236 188.17,-236 235.83,-236 235.83,-236 239.67,-236 243.5,-239.83 243.5,-243.67 243.5,-243.67 243.5,-251.33 243.5,-251.33 243.5,-255.17 239.67,-259 235.83,-259"/>
<text text-anchor="middle" x="212" y="-243.8" font-family="Arial" font-size="14.00" fill="#000000">index.ts</text>
</g>
<!-- src/index.ts&#45;&gt;src/archive.ts -->
<!-- src/index.ts&#45;&gt;src/archive.ts -->
<g id="edge15" class="edge">
<title>src/index.ts&#45;&gt;src/archive.ts</title>
<path fill="none" stroke="black" d="M202.18,-235.79C179,-215.51 121.77,-171.34 87.58,-147.15"/>
<polygon fill="black" stroke="black" points="89.22,-144.03 79.01,-141.18 85.21,-149.77 89.22,-144.03"/>
</g>
<!-- src/index.ts&#45;&gt;src/awaiter.ts -->
<!-- src/index.ts&#45;&gt;src/awaiter.ts -->
<g id="edge17" class="edge">
<title>src/index.ts&#45;&gt;src/awaiter.ts</title>
<path fill="none" stroke="black" d="M205.04,-235.9C196.19,-227.39 182.59,-214.49 175,-200 167.01,-184.75 163.88,-165.35 161.19,-150.92"/>
<polygon fill="black" stroke="black" points="164.6,-150.1 159.15,-141.01 157.74,-151.51 164.6,-150.1"/>
</g>
<!-- src/index.ts&#45;&gt;src/credentials.ts -->
<!-- src/index.ts&#45;&gt;src/credentials.ts -->
<g id="edge19" class="edge">
<title>src/index.ts&#45;&gt;src/credentials.ts</title>
<path fill="none" stroke="black" d="M233.84,-235.85C246,-227.3 259.85,-214.38 268,-200 276.5,-184.99 280.78,-165.81 281.48,-151.41"/>
<polygon fill="black" stroke="black" points="284.98,-150.98 281.29,-141.05 277.98,-151.11 284.98,-150.98"/>
</g>
<!-- src/index.ts&#45;&gt;src/scraper.ts -->
<!-- src/index.ts&#45;&gt;src/scraper.ts -->
<g id="edge21" class="edge">
<title>src/index.ts&#45;&gt;src/scraper.ts</title>
<path fill="none" stroke="black" d="M217.41,-235.78C218.67,-228.61 219.04,-218.95 218.53,-210.31"/>
<polygon fill="black" stroke="black" points="221.98,-209.73 217.4,-200.17 215.03,-210.5 221.98,-209.73"/>
</g>
<!-- src/index.ts&#45;&gt;src/screenshot.ts -->
<!-- src/index.ts&#45;&gt;src/screenshot.ts -->
<g id="edge23" class="edge">
<title>src/index.ts&#45;&gt;src/screenshot.ts</title>
<path fill="none" stroke="black" d="M232.63,-235.79C267.16,-215.51 335.58,-171.34 370.21,-147.15"/>
<polygon fill="black" stroke="black" points="372.5,-149.82 378.63,-141.18 368.45,-144.11 372.5,-149.82"/>
</g>
<!-- src/index.ts&#45;&gt;exit_src -->
</g>
</svg>
