<?xml version="1.0" encoding="UTF-8" standalone="no"?>
<!DOCTYPE svg PUBLIC "-//W3C//DTD SVG 1.1//EN"
 "http://www.w3.org/Graphics/SVG/1.1/DTD/svg11.dtd">
<!-- Generated by graphviz version 14.0.2 (20251019.1705)
 -->
<!-- Title: dependency&#45;graph&#45;@siteimprove/alfa&#45;scraper Pages: 1 -->
<svg width="595pt" height="278pt"
 viewBox="0.00 0.00 595.00 278.00" xmlns="http://www.w3.org/2000/svg" xmlns:xlink="http://www.w3.org/1999/xlink">
<g id="graph0" class="graph" transform="scale(1 1) rotate(0) translate(21.6 256.6)">
<title>dependency&#45;graph&#45;@siteimprove/alfa&#45;scraper</title>
<polygon fill="#ffffff" stroke="none" points="-21.6,21.6 -21.6,-256.6 573.6,-256.6 573.6,21.6 -21.6,21.6"/>
<g id="clust1" class="cluster">
<title>cluster_src</title>
<polygon fill="#ffffff" stroke="#000000" points="8,-8 8,-227 544,-227 544,-8 8,-8"/>
</g>
<!-- src/archive.ts -->
<g id="node1" class="node">
<title>src/archive.ts</title>
<path fill="none" stroke="#000000" d="M103.83,-99.5C103.83,-99.5 24.17,-99.5 24.17,-99.5 20.21,-99.5 16.25,-95.54 16.25,-91.58 16.25,-91.58 16.25,-83.67 16.25,-83.67 16.25,-79.71 20.21,-75.75 24.17,-75.75 24.17,-75.75 103.83,-75.75 103.83,-75.75 107.79,-75.75 111.75,-79.71 111.75,-83.67 111.75,-83.67 111.75,-91.58 111.75,-91.58 111.75,-95.54 107.79,-99.5 103.83,-99.5"/>
<text xml:space="preserve" text-anchor="middle" x="64" y="-82.2" font-family="Arial" font-size="14.00" fill="#000000">src/archive.ts</text>
</g>
<!-- exit_src -->
<!-- src/archive.ts&#45;&gt;exit_src -->
<!-- src/awaiter.ts -->
<g id="node2" class="node">
<title>src/awaiter.ts</title>
<path fill="none" stroke="#000000" d="M216.46,-99.5C216.46,-99.5 137.54,-99.5 137.54,-99.5 133.58,-99.5 129.62,-95.54 129.62,-91.58 129.62,-91.58 129.62,-83.67 129.62,-83.67 129.62,-79.71 133.58,-75.75 137.54,-75.75 137.54,-75.75 216.46,-75.75 216.46,-75.75 220.42,-75.75 224.38,-79.71 224.38,-83.67 224.38,-83.67 224.38,-91.58 224.38,-91.58 224.38,-95.54 220.42,-99.5 216.46,-99.5"/>
<text xml:space="preserve" text-anchor="middle" x="177" y="-82.2" font-family="Arial" font-size="14.00" fill="#000000">src/awaiter.ts</text>
</g>
<!-- src/awaiter.ts&#45;&gt;exit_src -->
<!-- src/credentials.ts -->
<g id="node3" class="node">
<title>src/credentials.ts</title>
<path fill="none" stroke="#000000" d="M371.71,-99.5C371.71,-99.5 270.29,-99.5 270.29,-99.5 266.33,-99.5 262.38,-95.54 262.38,-91.58 262.38,-91.58 262.38,-83.67 262.38,-83.67 262.38,-79.71 266.33,-75.75 270.29,-75.75 270.29,-75.75 371.71,-75.75 371.71,-75.75 375.67,-75.75 379.62,-79.71 379.62,-83.67 379.62,-83.67 379.62,-91.58 379.62,-91.58 379.62,-95.54 375.67,-99.5 371.71,-99.5"/>
<text xml:space="preserve" text-anchor="middle" x="321" y="-82.2" font-family="Arial" font-size="14.00" fill="#000000">src/credentials.ts</text>
</g>
<!-- src/credentials.ts&#45;&gt;exit_src -->
<!-- src/scraper.ts -->
<g id="node4" class="node">
<title>src/scraper.ts</title>
<path fill="none" stroke="#000000" d="M287.21,-159.25C287.21,-159.25 206.79,-159.25 206.79,-159.25 202.83,-159.25 198.88,-155.29 198.88,-151.33 198.88,-151.33 198.88,-143.42 198.88,-143.42 198.88,-139.46 202.83,-135.5 206.79,-135.5 206.79,-135.5 287.21,-135.5 287.21,-135.5 291.17,-135.5 295.12,-139.46 295.12,-143.42 295.12,-143.42 295.12,-151.33 295.12,-151.33 295.12,-155.29 291.17,-159.25 287.21,-159.25"/>
<text xml:space="preserve" text-anchor="middle" x="247" y="-141.95" font-family="Arial" font-size="14.00" fill="#000000">src/scraper.ts</text>
</g>
<!-- src/scraper.ts&#45;&gt;src/archive.ts -->
<!-- src/scraper.ts&#45;&gt;src/archive.ts -->
<g id="edge18" class="edge">
<title>src/scraper.ts&#45;&gt;src/archive.ts</title>
<path fill="none" stroke="black" d="M216.76,-135.1C189.4,-125.99 148.7,-113.1 116.13,-103.2"/>
<polygon fill="black" stroke="black" points="117.47,-99.95 106.88,-100.4 115.44,-106.65 117.47,-99.95"/>
</g>
<!-- src/scraper.ts&#45;&gt;src/awaiter.ts -->
<!-- src/scraper.ts&#45;&gt;src/awaiter.ts -->
<g id="edge20" class="edge">
<title>src/scraper.ts&#45;&gt;src/awaiter.ts</title>
<path fill="none" stroke="black" d="M238.96,-135.24C230.51,-127.14 217.3,-116.01 205.16,-106.65"/>
<polygon fill="black" stroke="black" points="207.49,-104.03 197.39,-100.83 203.29,-109.63 207.49,-104.03"/>
</g>
<!-- src/scraper.ts&#45;&gt;src/credentials.ts -->
<!-- src/scraper.ts&#45;&gt;src/credentials.ts -->
<g id="edge22" class="edge">
<title>src/scraper.ts&#45;&gt;src/credentials.ts</title>
<path fill="none" stroke="black" stroke-dasharray="1,5" d="M266.73,-135.24C278.31,-127.25 292.63,-116.3 303.76,-107.03"/>
<polygon fill="black" stroke="black" points="305.79,-109.89 311.08,-100.71 301.22,-104.59 305.79,-109.89"/>
</g>
<!-- src/screenshot.ts -->
<g id="node5" class="node">
<title>src/screenshot.ts</title>
<path fill="none" stroke="#000000" d="M508.08,-99.5C508.08,-99.5 405.92,-99.5 405.92,-99.5 401.96,-99.5 398,-95.54 398,-91.58 398,-91.58 398,-83.67 398,-83.67 398,-79.71 401.96,-75.75 405.92,-75.75 405.92,-75.75 508.08,-75.75 508.08,-75.75 512.04,-75.75 516,-79.71 516,-83.67 516,-83.67 516,-91.58 516,-91.58 516,-95.54 512.04,-99.5 508.08,-99.5"/>
<text xml:space="preserve" text-anchor="middle" x="457" y="-82.2" font-family="Arial" font-size="14.00" fill="#000000">src/screenshot.ts</text>
</g>
<!-- src/scraper.ts&#45;&gt;src/screenshot.ts -->
<!-- src/scraper.ts&#45;&gt;src/screenshot.ts -->
<g id="edge24" class="edge">
<title>src/scraper.ts&#45;&gt;src/screenshot.ts</title>
<path fill="none" stroke="black" stroke-dasharray="1,5" d="M293.73,-135.03C328.55,-125.88 375.78,-112.93 410.53,-103.04"/>
<polygon fill="black" stroke="black" points="411.24,-106.47 419.89,-100.36 409.31,-99.74 411.24,-106.47"/>
</g>
<!-- src/scraper.ts&#45;&gt;exit_src -->
<!-- src/screenshot.ts&#45;&gt;exit_src -->
<!-- src/index.ts -->
<g id="node7" class="node">
<title>src/index.ts</title>
<path fill="none" stroke="#ff0000" stroke-width="5" d="M281.21,-219C281.21,-219 212.79,-219 212.79,-219 208.83,-219 204.88,-215.04 204.88,-211.08 204.88,-211.08 204.88,-203.17 204.88,-203.17 204.88,-199.21 208.83,-195.25 212.79,-195.25 212.79,-195.25 281.21,-195.25 281.21,-195.25 285.17,-195.25 289.12,-199.21 289.12,-203.17 289.12,-203.17 289.12,-211.08 289.12,-211.08 289.12,-215.04 285.17,-219 281.21,-219"/>
<text xml:space="preserve" text-anchor="middle" x="247" y="-201.7" font-family="Arial" font-size="14.00" fill="#000000">src/index.ts</text>
</g>
<!-- src/index.ts&#45;&gt;src/archive.ts -->
<!-- src/index.ts&#45;&gt;src/archive.ts -->
<g id="edge8" class="edge">
<title>src/index.ts&#45;&gt;src/archive.ts</title>
<path fill="none" stroke="black" d="M230.83,-192.87C200.42,-171.5 135.03,-129.41 95.65,-105.78"/>
<polygon fill="black" stroke="black" points="97.45,-102.77 87.06,-100.68 93.87,-108.79 97.45,-102.77"/>
</g>
<!-- src/index.ts&#45;&gt;src/awaiter.ts -->
<!-- src/index.ts&#45;&gt;src/awaiter.ts -->
<g id="edge10" class="edge">
<title>src/index.ts&#45;&gt;src/awaiter.ts</title>
<path fill="none" stroke="black" d="M232.1,-192.9C221.13,-184.73 207.19,-173.16 199,-159.25 190.4,-144.65 187.27,-125.64 184.87,-111.02"/>
<polygon fill="black" stroke="black" points="188.37,-110.7 183.19,-101.46 181.48,-111.91 188.37,-110.7"/>
</g>
<!-- src/index.ts&#45;&gt;src/credentials.ts -->
<!-- src/index.ts&#45;&gt;src/credentials.ts -->
<g id="edge12" class="edge">
<title>src/index.ts&#45;&gt;src/credentials.ts</title>
<path fill="none" stroke="black" d="M277.16,-192.92C290.27,-184.69 304.37,-173.04 313,-159.25 322.1,-144.72 326.33,-125.71 326.95,-111.07"/>
<polygon fill="black" stroke="black" points="330.46,-111.41 326.68,-101.51 323.46,-111.6 330.46,-111.41"/>
</g>
<!-- src/index.ts&#45;&gt;src/scraper.ts -->
<!-- src/index.ts&#45;&gt;src/scraper.ts -->
<g id="edge14" class="edge">
<title>src/index.ts&#45;&gt;src/scraper.ts</title>
<path fill="none" stroke="black" d="M252.76,-193.02C253.68,-186.46 253.96,-178.33 253.6,-170.82"/>
<polygon fill="black" stroke="black" points="257.09,-170.59 252.61,-160.99 250.13,-171.29 257.09,-170.59"/>
</g>
<!-- src/index.ts&#45;&gt;src/screenshot.ts -->
<!-- src/index.ts&#45;&gt;src/screenshot.ts -->
<g id="edge16" class="edge">
<title>src/index.ts&#45;&gt;src/screenshot.ts</title>
<path fill="none" stroke="black" d="M275.14,-192.87C316.23,-171.5 391.6,-129.41 431.28,-105.78"/>
<polygon fill="black" stroke="black" points="432.96,-108.85 439.72,-100.69 429.35,-102.86 432.96,-108.85"/>
</g>
<!-- src/index.ts&#45;&gt;exit_src -->
</g>
</svg>
