<?xml version="1.0" encoding="UTF-8" standalone="no"?>
<!DOCTYPE svg PUBLIC "-//W3C//DTD SVG 1.1//EN"
 "http://www.w3.org/Graphics/SVG/1.1/DTD/svg11.dtd">
<!-- Generated by graphviz version 14.0.2 (20251019.1705)
 -->
<!-- Title: dependency&#45;graph&#45;@siteimprove/alfa&#45;formatter&#45;sarif Pages: 1 -->
<svg width="173pt" height="218pt"
 viewBox="0.00 0.00 173.00 218.00" xmlns="http://www.w3.org/2000/svg" xmlns:xlink="http://www.w3.org/1999/xlink">
<g id="graph0" class="graph" transform="scale(1 1) rotate(0) translate(21.6 196.85)">
<title>dependency&#45;graph&#45;@siteimprove/alfa&#45;formatter&#45;sarif</title>
<polygon fill="#ffffff" stroke="none" points="-21.6,21.6 -21.6,-196.85 151.6,-196.85 151.6,21.6 -21.6,21.6"/>
<g id="clust1" class="cluster">
<title>cluster_src</title>
<polygon fill="#ffffff" stroke="#000000" points="8,-8 8,-167.25 122,-167.25 122,-8 8,-8"/>
</g>
<!-- src/sarif.ts -->
<g id="node1" class="node">
<title>src/sarif.ts</title>
<path fill="none" stroke="#000000" d="M85.83,-99.5C85.83,-99.5 24.17,-99.5 24.17,-99.5 20.21,-99.5 16.25,-95.54 16.25,-91.58 16.25,-91.58 16.25,-83.67 16.25,-83.67 16.25,-79.71 20.21,-75.75 24.17,-75.75 24.17,-75.75 85.83,-75.75 85.83,-75.75 89.79,-75.75 93.75,-79.71 93.75,-83.67 93.75,-83.67 93.75,-91.58 93.75,-91.58 93.75,-95.54 89.79,-99.5 85.83,-99.5"/>
<text xml:space="preserve" text-anchor="middle" x="55" y="-82.2" font-family="Arial" font-size="14.00" fill="#000000">src/sarif.ts</text>
</g>
<!-- exit_src -->
<!-- src/sarif.ts&#45;&gt;exit_src -->
<!-- src/index.ts -->
<g id="node2" class="node">
<title>src/index.ts</title>
<path fill="none" stroke="#ff0000" stroke-width="5" d="M92.21,-159.25C92.21,-159.25 23.79,-159.25 23.79,-159.25 19.83,-159.25 15.88,-155.29 15.88,-151.33 15.88,-151.33 15.88,-143.42 15.88,-143.42 15.88,-139.46 19.83,-135.5 23.79,-135.5 23.79,-135.5 92.21,-135.5 92.21,-135.5 96.17,-135.5 100.12,-139.46 100.12,-143.42 100.12,-143.42 100.12,-151.33 100.12,-151.33 100.12,-155.29 96.17,-159.25 92.21,-159.25"/>
<text xml:space="preserve" text-anchor="middle" x="58" y="-141.95" font-family="Arial" font-size="14.00" fill="#000000">src/index.ts</text>
</g>
<!-- src/index.ts&#45;&gt;src/sarif.ts -->
<!-- src/index.ts&#45;&gt;src/sarif.ts -->
<g id="edge4" class="edge">
<title>src/index.ts&#45;&gt;src/sarif.ts</title>
<path fill="none" stroke="black" d="M63.08,-133.27C63.66,-126.71 63.51,-118.58 62.76,-111.07"/>
<polygon fill="black" stroke="black" points="66.23,-110.59 61.26,-101.23 59.31,-111.64 66.23,-110.59"/>
</g>
<!-- src/index.ts&#45;&gt;exit_src -->
</g>
</svg>
