<?xml version="1.0" encoding="UTF-8" standalone="no"?>
<!DOCTYPE svg PUBLIC "-//W3C//DTD SVG 1.1//EN"
 "http://www.w3.org/Graphics/SVG/1.1/DTD/svg11.dtd">
<!-- Generated by graphviz version 14.0.2 (20251019.1705)
 -->
<!-- Title: dependency&#45;graph&#45;@siteimprove/alfa&#45;formatter Pages: 1 -->
<svg width="201pt" height="218pt"
 viewBox="0.00 0.00 201.00 218.00" xmlns="http://www.w3.org/2000/svg" xmlns:xlink="http://www.w3.org/1999/xlink">
<g id="graph0" class="graph" transform="scale(1 1) rotate(0) translate(21.6 196.85)">
<title>dependency&#45;graph&#45;@siteimprove/alfa&#45;formatter</title>
<polygon fill="#ffffff" stroke="none" points="-21.6,21.6 -21.6,-196.85 179.6,-196.85 179.6,21.6 -21.6,21.6"/>
<g id="clust1" class="cluster">
<title>cluster_src</title>
<polygon fill="#ffffff" stroke="#000000" points="8,-8 8,-167.25 150,-167.25 150,-8 8,-8"/>
</g>
<!-- src/formatter.ts -->
<g id="node1" class="node">
<title>src/formatter.ts</title>
<path fill="none" stroke="#000000" d="M114.08,-99.5C114.08,-99.5 23.92,-99.5 23.92,-99.5 19.96,-99.5 16,-95.54 16,-91.58 16,-91.58 16,-83.67 16,-83.67 16,-79.71 19.96,-75.75 23.92,-75.75 23.92,-75.75 114.08,-75.75 114.08,-75.75 118.04,-75.75 122,-79.71 122,-83.67 122,-83.67 122,-91.58 122,-91.58 122,-95.54 118.04,-99.5 114.08,-99.5"/>
<text xml:space="preserve" text-anchor="middle" x="69" y="-82.2" font-family="Arial" font-size="14.00" fill="#000000">src/formatter.ts</text>
</g>
<!-- exit_src -->
<!-- src/formatter.ts&#45;&gt;exit_src -->
<!-- src/index.ts -->
<g id="node3" class="node">
<title>src/index.ts</title>
<path fill="none" stroke="#ff0000" stroke-width="5" d="M103.21,-159.25C103.21,-159.25 34.79,-159.25 34.79,-159.25 30.83,-159.25 26.88,-155.29 26.88,-151.33 26.88,-151.33 26.88,-143.42 26.88,-143.42 26.88,-139.46 30.83,-135.5 34.79,-135.5 34.79,-135.5 103.21,-135.5 103.21,-135.5 107.17,-135.5 111.12,-139.46 111.12,-143.42 111.12,-143.42 111.12,-151.33 111.12,-151.33 111.12,-155.29 107.17,-159.25 103.21,-159.25"/>
<text xml:space="preserve" text-anchor="middle" x="69" y="-141.95" font-family="Arial" font-size="14.00" fill="#000000">src/index.ts</text>
</g>
<!-- src/index.ts&#45;&gt;src/formatter.ts -->
<!-- src/index.ts&#45;&gt;src/formatter.ts -->
<g id="edge4" class="edge">
<title>src/index.ts&#45;&gt;src/formatter.ts</title>
<path fill="none" stroke="black" d="M74.76,-133.27C75.68,-126.71 75.96,-118.58 75.6,-111.07"/>
<polygon fill="black" stroke="black" points="79.09,-110.84 74.61,-101.24 72.13,-111.54 79.09,-110.84"/>
</g>
<!-- src/index.ts&#45;&gt;exit_src -->
</g>
</svg>
