<?xml version="1.0" encoding="UTF-8" standalone="no"?>
<!DOCTYPE svg PUBLIC "-//W3C//DTD SVG 1.1//EN"
 "http://www.w3.org/Graphics/SVG/1.1/DTD/svg11.dtd">
<!-- Generated by graphviz version 2.43.0 (0)
 -->
<!-- Title: dependency&#45;graph&#45;[object Object] Pages: 1 -->
<svg width="264pt" height="267pt"
 viewBox="0.00 0.00 264.20 267.20" xmlns="http://www.w3.org/2000/svg" xmlns:xlink="http://www.w3.org/1999/xlink">
<g id="graph0" class="graph" transform="scale(1 1) rotate(0) translate(21.6 245.6)">
<title>dependency&#45;graph&#45;[object Object]</title>
<polygon fill="#ffffff" stroke="transparent" points="-21.6,21.6 -21.6,-245.6 242.6,-245.6 242.6,21.6 -21.6,21.6"/>
<g id="clust1" class="cluster">
<title>cluster_src</title>
<polygon fill="#ffffff" stroke="#000000" points="37.5,-43 37.5,-216 205.5,-216 205.5,-43 37.5,-43"/>
</g>
<g id="clust2" class="cluster">
<title>cluster_src</title>
<polygon fill="#ffffff" stroke="#000000" points="45.5,-51 45.5,-208 197.5,-208 197.5,-51 45.5,-51"/>
</g>
<!-- dependency&#45;graph&#45;[object Object] -->
<!-- src/playwright.ts -->
<g id="node2" class="node">
<title>src/playwright.ts</title>
<path fill="none" stroke="#000000" d="M137.83,-141C137.83,-141 61.17,-141 61.17,-141 57.33,-141 53.5,-137.17 53.5,-133.33 53.5,-133.33 53.5,-125.67 53.5,-125.67 53.5,-121.83 57.33,-118 61.17,-118 61.17,-118 137.83,-118 137.83,-118 141.67,-118 145.5,-121.83 145.5,-125.67 145.5,-125.67 145.5,-133.33 145.5,-133.33 145.5,-137.17 141.67,-141 137.83,-141"/>
<text text-anchor="middle" x="99.5" y="-125.8" font-family="Arial" font-size="14.00" fill="#000000">playwright.ts</text>
</g>
<!-- exit_src -->
<!-- src/playwright.ts&#45;&gt;exit_src -->
<!-- name_src -->
<g id="node3" class="node">
<title>name_src</title>
<path fill="none" stroke="#ff0000" stroke-width="5" d="M181.83,-200C181.83,-200 143.17,-200 143.17,-200 139.33,-200 135.5,-196.17 135.5,-192.33 135.5,-192.33 135.5,-184.67 135.5,-184.67 135.5,-180.83 139.33,-177 143.17,-177 143.17,-177 181.83,-177 181.83,-177 185.67,-177 189.5,-180.83 189.5,-184.67 189.5,-184.67 189.5,-192.33 189.5,-192.33 189.5,-196.17 185.67,-200 181.83,-200"/>
<text text-anchor="middle" x="162.5" y="-184.8" font-family="Arial" font-size="14.00" fill="#000000">src</text>
</g>
<!-- exit_src&#45;&gt;dependency&#45;graph&#45;[object Object] -->
<!-- exit_src&#45;&gt;exit_src -->
<!-- exit_src&#45;&gt;exit_src -->
<!-- src/index.ts -->
<g id="node5" class="node">
<title>src/index.ts</title>
<path fill="none" stroke="#ff0000" stroke-width="5" d="M109.33,-200C109.33,-200 61.67,-200 61.67,-200 57.83,-200 54,-196.17 54,-192.33 54,-192.33 54,-184.67 54,-184.67 54,-180.83 57.83,-177 61.67,-177 61.67,-177 109.33,-177 109.33,-177 113.17,-177 117,-180.83 117,-184.67 117,-184.67 117,-192.33 117,-192.33 117,-196.17 113.17,-200 109.33,-200"/>
<text text-anchor="middle" x="85.5" y="-184.8" font-family="Arial" font-size="14.00" fill="#000000">index.ts</text>
</g>
<!-- src/index.ts&#45;&gt;src/playwright.ts -->
<!-- src/index.ts&#45;&gt;src/playwright.ts -->
<g id="edge7" class="edge">
<title>src/index.ts&#45;&gt;src/playwright.ts</title>
<path fill="none" stroke="black" d="M93.54,-176.78C96.56,-169.61 99.31,-159.95 100.92,-151.31"/>
<polygon fill="black" stroke="black" points="104.41,-151.55 102.28,-141.17 97.48,-150.62 104.41,-151.55"/>
</g>
<!-- src/index.ts&#45;&gt;exit_src -->
</g>
</svg>
