<?xml version="1.0" encoding="UTF-8" standalone="no"?>
<!DOCTYPE svg PUBLIC "-//W3C//DTD SVG 1.1//EN"
 "http://www.w3.org/Graphics/SVG/1.1/DTD/svg11.dtd">
<!-- Generated by graphviz version 14.0.2 (20251019.1705)
 -->
<!-- Title: dependency&#45;graph&#45;@siteimprove/alfa&#45;playwright Pages: 1 -->
<svg width="207pt" height="218pt"
 viewBox="0.00 0.00 207.00 218.00" xmlns="http://www.w3.org/2000/svg" xmlns:xlink="http://www.w3.org/1999/xlink">
<g id="graph0" class="graph" transform="scale(1 1) rotate(0) translate(21.6 196.85)">
<title>dependency&#45;graph&#45;@siteimprove/alfa&#45;playwright</title>
<polygon fill="#ffffff" stroke="none" points="-21.6,21.6 -21.6,-196.85 185.6,-196.85 185.6,21.6 -21.6,21.6"/>
<g id="clust1" class="cluster">
<title>cluster_src</title>
<polygon fill="#ffffff" stroke="#000000" points="8,-8 8,-167.25 156,-167.25 156,-8 8,-8"/>
</g>
<!-- src/playwright.ts -->
<g id="node1" class="node">
<title>src/playwright.ts</title>
<path fill="none" stroke="#000000" d="M120.46,-99.5C120.46,-99.5 23.54,-99.5 23.54,-99.5 19.58,-99.5 15.62,-95.54 15.62,-91.58 15.62,-91.58 15.62,-83.67 15.62,-83.67 15.62,-79.71 19.58,-75.75 23.54,-75.75 23.54,-75.75 120.46,-75.75 120.46,-75.75 124.42,-75.75 128.38,-79.71 128.38,-83.67 128.38,-83.67 128.38,-91.58 128.38,-91.58 128.38,-95.54 124.42,-99.5 120.46,-99.5"/>
<text xml:space="preserve" text-anchor="middle" x="72" y="-82.2" font-family="Arial" font-size="14.00" fill="#000000">src/playwright.ts</text>
</g>
<!-- exit_src -->
<!-- src/playwright.ts&#45;&gt;exit_src -->
<!-- src/index.ts -->
<g id="node3" class="node">
<title>src/index.ts</title>
<path fill="none" stroke="#ff0000" stroke-width="5" d="M106.21,-159.25C106.21,-159.25 37.79,-159.25 37.79,-159.25 33.83,-159.25 29.88,-155.29 29.88,-151.33 29.88,-151.33 29.88,-143.42 29.88,-143.42 29.88,-139.46 33.83,-135.5 37.79,-135.5 37.79,-135.5 106.21,-135.5 106.21,-135.5 110.17,-135.5 114.12,-139.46 114.12,-143.42 114.12,-143.42 114.12,-151.33 114.12,-151.33 114.12,-155.29 110.17,-159.25 106.21,-159.25"/>
<text xml:space="preserve" text-anchor="middle" x="72" y="-141.95" font-family="Arial" font-size="14.00" fill="#000000">src/index.ts</text>
</g>
<!-- src/index.ts&#45;&gt;src/playwright.ts -->
<!-- src/index.ts&#45;&gt;src/playwright.ts -->
<g id="edge4" class="edge">
<title>src/index.ts&#45;&gt;src/playwright.ts</title>
<path fill="none" stroke="black" d="M77.76,-133.27C78.68,-126.71 78.96,-118.58 78.6,-111.07"/>
<polygon fill="black" stroke="black" points="82.09,-110.84 77.61,-101.24 75.13,-111.54 82.09,-110.84"/>
</g>
<!-- src/index.ts&#45;&gt;exit_src -->
</g>
</svg>
