<?xml version="1.0" encoding="UTF-8" standalone="no"?>
<!DOCTYPE svg PUBLIC "-//W3C//DTD SVG 1.1//EN"
 "http://www.w3.org/Graphics/SVG/1.1/DTD/svg11.dtd">
<!-- Generated by graphviz version 14.0.2 (20251019.1705)
 -->
<!-- Title: dependency&#45;graph&#45;@siteimprove/alfa&#45;formatter&#45;json Pages: 1 -->
<svg width="171pt" height="218pt"
 viewBox="0.00 0.00 171.00 218.00" xmlns="http://www.w3.org/2000/svg" xmlns:xlink="http://www.w3.org/1999/xlink">
<g id="graph0" class="graph" transform="scale(1 1) rotate(0) translate(21.6 196.85)">
<title>dependency&#45;graph&#45;@siteimprove/alfa&#45;formatter&#45;json</title>
<polygon fill="#ffffff" stroke="none" points="-21.6,21.6 -21.6,-196.85 149.6,-196.85 149.6,21.6 -21.6,21.6"/>
<g id="clust1" class="cluster">
<title>cluster_src</title>
<polygon fill="#ffffff" stroke="#000000" points="8,-8 8,-167.25 120,-167.25 120,-8 8,-8"/>
</g>
<!-- src/json.ts -->
<g id="node1" class="node">
<title>src/json.ts</title>
<path fill="none" stroke="#000000" d="M84.46,-99.5C84.46,-99.5 23.54,-99.5 23.54,-99.5 19.58,-99.5 15.62,-95.54 15.62,-91.58 15.62,-91.58 15.62,-83.67 15.62,-83.67 15.62,-79.71 19.58,-75.75 23.54,-75.75 23.54,-75.75 84.46,-75.75 84.46,-75.75 88.42,-75.75 92.38,-79.71 92.38,-83.67 92.38,-83.67 92.38,-91.58 92.38,-91.58 92.38,-95.54 88.42,-99.5 84.46,-99.5"/>
<text xml:space="preserve" text-anchor="middle" x="54" y="-82.2" font-family="Arial" font-size="14.00" fill="#000000">src/json.ts</text>
</g>
<!-- exit_src -->
<!-- src/json.ts&#45;&gt;exit_src -->
<!-- src/index.ts -->
<g id="node2" class="node">
<title>src/index.ts</title>
<path fill="none" stroke="#ff0000" stroke-width="5" d="M92.21,-159.25C92.21,-159.25 23.79,-159.25 23.79,-159.25 19.83,-159.25 15.88,-155.29 15.88,-151.33 15.88,-151.33 15.88,-143.42 15.88,-143.42 15.88,-139.46 19.83,-135.5 23.79,-135.5 23.79,-135.5 92.21,-135.5 92.21,-135.5 96.17,-135.5 100.12,-139.46 100.12,-143.42 100.12,-143.42 100.12,-151.33 100.12,-151.33 100.12,-155.29 96.17,-159.25 92.21,-159.25"/>
<text xml:space="preserve" text-anchor="middle" x="58" y="-141.95" font-family="Arial" font-size="14.00" fill="#000000">src/index.ts</text>
</g>
<!-- src/index.ts&#45;&gt;src/json.ts -->
<!-- src/index.ts&#45;&gt;src/json.ts -->
<g id="edge4" class="edge">
<title>src/index.ts&#45;&gt;src/json.ts</title>
<path fill="none" stroke="black" d="M62.85,-133.27C63.32,-126.71 63.03,-118.58 62.15,-111.07"/>
<polygon fill="black" stroke="black" points="65.61,-110.5 60.48,-101.23 58.71,-111.67 65.61,-110.5"/>
</g>
<!-- src/index.ts&#45;&gt;exit_src -->
</g>
</svg>
