<?xml version="1.0" encoding="UTF-8" standalone="no"?>
<!DOCTYPE svg PUBLIC "-//W3C//DTD SVG 1.1//EN"
 "http://www.w3.org/Graphics/SVG/1.1/DTD/svg11.dtd">
<!-- Generated by graphviz version 14.0.2 (20251019.1705)
 -->
<!-- Title: dependency&#45;graph&#45;@siteimprove/alfa&#45;enzyme Pages: 1 -->
<svg width="195pt" height="218pt"
 viewBox="0.00 0.00 195.00 218.00" xmlns="http://www.w3.org/2000/svg" xmlns:xlink="http://www.w3.org/1999/xlink">
<g id="graph0" class="graph" transform="scale(1 1) rotate(0) translate(21.6 196.85)">
<title>dependency&#45;graph&#45;@siteimprove/alfa&#45;enzyme</title>
<polygon fill="#ffffff" stroke="none" points="-21.6,21.6 -21.6,-196.85 173.6,-196.85 173.6,21.6 -21.6,21.6"/>
<g id="clust1" class="cluster">
<title>cluster_src</title>
<polygon fill="#ffffff" stroke="#000000" points="8,-8 8,-167.25 144,-167.25 144,-8 8,-8"/>
</g>
<!-- src/enzyme.ts -->
<g id="node1" class="node">
<title>src/enzyme.ts</title>
<path fill="none" stroke="#000000" d="M108.08,-99.5C108.08,-99.5 23.92,-99.5 23.92,-99.5 19.96,-99.5 16,-95.54 16,-91.58 16,-91.58 16,-83.67 16,-83.67 16,-79.71 19.96,-75.75 23.92,-75.75 23.92,-75.75 108.08,-75.75 108.08,-75.75 112.04,-75.75 116,-79.71 116,-83.67 116,-83.67 116,-91.58 116,-91.58 116,-95.54 112.04,-99.5 108.08,-99.5"/>
<text xml:space="preserve" text-anchor="middle" x="66" y="-82.2" font-family="Arial" font-size="14.00" fill="#000000">src/enzyme.ts</text>
</g>
<!-- exit_src -->
<!-- src/enzyme.ts&#45;&gt;exit_src -->
<!-- src/index.ts -->
<g id="node2" class="node">
<title>src/index.ts</title>
<path fill="none" stroke="#ff0000" stroke-width="5" d="M100.21,-159.25C100.21,-159.25 31.79,-159.25 31.79,-159.25 27.83,-159.25 23.88,-155.29 23.88,-151.33 23.88,-151.33 23.88,-143.42 23.88,-143.42 23.88,-139.46 27.83,-135.5 31.79,-135.5 31.79,-135.5 100.21,-135.5 100.21,-135.5 104.17,-135.5 108.12,-139.46 108.12,-143.42 108.12,-143.42 108.12,-151.33 108.12,-151.33 108.12,-155.29 104.17,-159.25 100.21,-159.25"/>
<text xml:space="preserve" text-anchor="middle" x="66" y="-141.95" font-family="Arial" font-size="14.00" fill="#000000">src/index.ts</text>
</g>
<!-- src/index.ts&#45;&gt;src/enzyme.ts -->
<!-- src/index.ts&#45;&gt;src/enzyme.ts -->
<g id="edge4" class="edge">
<title>src/index.ts&#45;&gt;src/enzyme.ts</title>
<path fill="none" stroke="black" d="M71.76,-133.27C72.68,-126.71 72.96,-118.58 72.6,-111.07"/>
<polygon fill="black" stroke="black" points="76.09,-110.84 71.61,-101.24 69.13,-111.54 76.09,-110.84"/>
</g>
<!-- src/index.ts&#45;&gt;exit_src -->
</g>
</svg>
