<?xml version="1.0" encoding="UTF-8" standalone="no"?>
<!DOCTYPE svg PUBLIC "-//W3C//DTD SVG 1.1//EN"
 "http://www.w3.org/Graphics/SVG/1.1/DTD/svg11.dtd">
<!-- Generated by graphviz version 14.0.2 (20251019.1705)
 -->
<!-- Title: dependency&#45;graph&#45;@siteimprove/alfa&#45;frontier Pages: 1 -->
<svg width="189pt" height="218pt"
 viewBox="0.00 0.00 189.00 218.00" xmlns="http://www.w3.org/2000/svg" xmlns:xlink="http://www.w3.org/1999/xlink">
<g id="graph0" class="graph" transform="scale(1 1) rotate(0) translate(21.6 196.85)">
<title>dependency&#45;graph&#45;@siteimprove/alfa&#45;frontier</title>
<polygon fill="#ffffff" stroke="none" points="-21.6,21.6 -21.6,-196.85 167.6,-196.85 167.6,21.6 -21.6,21.6"/>
<g id="clust1" class="cluster">
<title>cluster_src</title>
<polygon fill="#ffffff" stroke="#000000" points="8,-8 8,-167.25 138,-167.25 138,-8 8,-8"/>
</g>
<!-- src/frontier.ts -->
<g id="node1" class="node">
<title>src/frontier.ts</title>
<path fill="none" stroke="#000000" d="M101.71,-99.5C101.71,-99.5 24.29,-99.5 24.29,-99.5 20.33,-99.5 16.38,-95.54 16.38,-91.58 16.38,-91.58 16.38,-83.67 16.38,-83.67 16.38,-79.71 20.33,-75.75 24.29,-75.75 24.29,-75.75 101.71,-75.75 101.71,-75.75 105.67,-75.75 109.62,-79.71 109.62,-83.67 109.62,-83.67 109.62,-91.58 109.62,-91.58 109.62,-95.54 105.67,-99.5 101.71,-99.5"/>
<text xml:space="preserve" text-anchor="middle" x="63" y="-82.2" font-family="Arial" font-size="14.00" fill="#000000">src/frontier.ts</text>
</g>
<!-- exit_src -->
<!-- src/frontier.ts&#45;&gt;exit_src -->
<!-- src/index.ts -->
<g id="node2" class="node">
<title>src/index.ts</title>
<path fill="none" stroke="#ff0000" stroke-width="5" d="M97.21,-159.25C97.21,-159.25 28.79,-159.25 28.79,-159.25 24.83,-159.25 20.88,-155.29 20.88,-151.33 20.88,-151.33 20.88,-143.42 20.88,-143.42 20.88,-139.46 24.83,-135.5 28.79,-135.5 28.79,-135.5 97.21,-135.5 97.21,-135.5 101.17,-135.5 105.12,-139.46 105.12,-143.42 105.12,-143.42 105.12,-151.33 105.12,-151.33 105.12,-155.29 101.17,-159.25 97.21,-159.25"/>
<text xml:space="preserve" text-anchor="middle" x="63" y="-141.95" font-family="Arial" font-size="14.00" fill="#000000">src/index.ts</text>
</g>
<!-- src/index.ts&#45;&gt;src/frontier.ts -->
<!-- src/index.ts&#45;&gt;src/frontier.ts -->
<g id="edge4" class="edge">
<title>src/index.ts&#45;&gt;src/frontier.ts</title>
<path fill="none" stroke="black" d="M68.76,-133.27C69.68,-126.71 69.96,-118.58 69.6,-111.07"/>
<polygon fill="black" stroke="black" points="73.09,-110.84 68.61,-101.24 66.13,-111.54 73.09,-110.84"/>
</g>
<!-- src/index.ts&#45;&gt;exit_src -->
</g>
</svg>
