<?xml version="1.0" encoding="UTF-8" standalone="no"?>
<!DOCTYPE svg PUBLIC "-//W3C//DTD SVG 1.1//EN"
 "http://www.w3.org/Graphics/SVG/1.1/DTD/svg11.dtd">
<!-- Generated by graphviz version 14.0.2 (20251019.1705)
 -->
<!-- Title: dependency&#45;graph&#45;@siteimprove/alfa&#45;webdriver Pages: 1 -->
<svg width="225pt" height="218pt"
 viewBox="0.00 0.00 225.00 218.00" xmlns="http://www.w3.org/2000/svg" xmlns:xlink="http://www.w3.org/1999/xlink">
<g id="graph0" class="graph" transform="scale(1 1) rotate(0) translate(21.6 196.85)">
<title>dependency&#45;graph&#45;@siteimprove/alfa&#45;webdriver</title>
<polygon fill="#ffffff" stroke="none" points="-21.6,21.6 -21.6,-196.85 203.6,-196.85 203.6,21.6 -21.6,21.6"/>
<g id="clust1" class="cluster">
<title>cluster_src</title>
<polygon fill="#ffffff" stroke="#000000" points="8,-8 8,-167.25 174,-167.25 174,-8 8,-8"/>
</g>
<!-- src/web&#45;element.ts -->
<g id="node1" class="node">
<title>src/web&#45;element.ts</title>
<path fill="none" stroke="#000000" d="M138.08,-99.5C138.08,-99.5 23.92,-99.5 23.92,-99.5 19.96,-99.5 16,-95.54 16,-91.58 16,-91.58 16,-83.67 16,-83.67 16,-79.71 19.96,-75.75 23.92,-75.75 23.92,-75.75 138.08,-75.75 138.08,-75.75 142.04,-75.75 146,-79.71 146,-83.67 146,-83.67 146,-91.58 146,-91.58 146,-95.54 142.04,-99.5 138.08,-99.5"/>
<text xml:space="preserve" text-anchor="middle" x="81" y="-82.2" font-family="Arial" font-size="14.00" fill="#000000">src/web&#45;element.ts</text>
</g>
<!-- exit_src -->
<!-- src/web&#45;element.ts&#45;&gt;exit_src -->
<!-- src/index.ts -->
<g id="node2" class="node">
<title>src/index.ts</title>
<path fill="none" stroke="#ff0000" stroke-width="5" d="M115.21,-159.25C115.21,-159.25 46.79,-159.25 46.79,-159.25 42.83,-159.25 38.88,-155.29 38.88,-151.33 38.88,-151.33 38.88,-143.42 38.88,-143.42 38.88,-139.46 42.83,-135.5 46.79,-135.5 46.79,-135.5 115.21,-135.5 115.21,-135.5 119.17,-135.5 123.12,-139.46 123.12,-143.42 123.12,-143.42 123.12,-151.33 123.12,-151.33 123.12,-155.29 119.17,-159.25 115.21,-159.25"/>
<text xml:space="preserve" text-anchor="middle" x="81" y="-141.95" font-family="Arial" font-size="14.00" fill="#000000">src/index.ts</text>
</g>
<!-- src/index.ts&#45;&gt;src/web&#45;element.ts -->
<!-- src/index.ts&#45;&gt;src/web&#45;element.ts -->
<g id="edge4" class="edge">
<title>src/index.ts&#45;&gt;src/web&#45;element.ts</title>
<path fill="none" stroke="black" d="M86.76,-133.27C87.68,-126.71 87.96,-118.58 87.6,-111.07"/>
<polygon fill="black" stroke="black" points="91.09,-110.84 86.61,-101.24 84.13,-111.54 91.09,-110.84"/>
</g>
<!-- src/index.ts&#45;&gt;exit_src -->
</g>
</svg>
