<?xml version="1.0" encoding="UTF-8" standalone="no"?>
<!DOCTYPE svg PUBLIC "-//W3C//DTD SVG 1.1//EN"
 "http://www.w3.org/Graphics/SVG/1.1/DTD/svg11.dtd">
<!-- Generated by graphviz version 2.43.0 (0)
 -->
<!-- Title: dependency&#45;graph&#45;[object Object] Pages: 1 -->
<svg width="264pt" height="267pt"
 viewBox="0.00 0.00 264.20 267.20" xmlns="http://www.w3.org/2000/svg" xmlns:xlink="http://www.w3.org/1999/xlink">
<g id="graph0" class="graph" transform="scale(1 1) rotate(0) translate(21.6 245.6)">
<title>dependency&#45;graph&#45;[object Object]</title>
<polygon fill="#ffffff" stroke="transparent" points="-21.6,21.6 -21.6,-245.6 242.6,-245.6 242.6,21.6 -21.6,21.6"/>
<g id="clust1" class="cluster">
<title>cluster_src</title>
<polygon fill="#ffffff" stroke="#000000" points="33.5,-43 33.5,-216 201.5,-216 201.5,-43 33.5,-43"/>
</g>
<g id="clust2" class="cluster">
<title>cluster_src</title>
<polygon fill="#ffffff" stroke="#000000" points="41.5,-51 41.5,-208 193.5,-208 193.5,-51 41.5,-51"/>
</g>
<!-- dependency&#45;graph&#45;[object Object] -->
<!-- src/web&#45;element.ts -->
<g id="node2" class="node">
<title>src/web&#45;element.ts</title>
<path fill="none" stroke="#000000" d="M151.33,-141C151.33,-141 57.67,-141 57.67,-141 53.83,-141 50,-137.17 50,-133.33 50,-133.33 50,-125.67 50,-125.67 50,-121.83 53.83,-118 57.67,-118 57.67,-118 151.33,-118 151.33,-118 155.17,-118 159,-121.83 159,-125.67 159,-125.67 159,-133.33 159,-133.33 159,-137.17 155.17,-141 151.33,-141"/>
<text text-anchor="middle" x="104.5" y="-125.8" font-family="Arial" font-size="14.00" fill="#000000">web&#45;element.ts</text>
</g>
<!-- exit_src -->
<!-- src/web&#45;element.ts&#45;&gt;exit_src -->
<!-- name_src -->
<g id="node3" class="node">
<title>name_src</title>
<path fill="none" stroke="#ff0000" stroke-width="5" d="M177.83,-200C177.83,-200 139.17,-200 139.17,-200 135.33,-200 131.5,-196.17 131.5,-192.33 131.5,-192.33 131.5,-184.67 131.5,-184.67 131.5,-180.83 135.33,-177 139.17,-177 139.17,-177 177.83,-177 177.83,-177 181.67,-177 185.5,-180.83 185.5,-184.67 185.5,-184.67 185.5,-192.33 185.5,-192.33 185.5,-196.17 181.67,-200 177.83,-200"/>
<text text-anchor="middle" x="158.5" y="-184.8" font-family="Arial" font-size="14.00" fill="#000000">src</text>
</g>
<!-- exit_src&#45;&gt;dependency&#45;graph&#45;[object Object] -->
<!-- exit_src&#45;&gt;exit_src -->
<!-- exit_src&#45;&gt;exit_src -->
<!-- src/index.ts -->
<g id="node5" class="node">
<title>src/index.ts</title>
<path fill="none" stroke="#ff0000" stroke-width="5" d="M105.33,-200C105.33,-200 57.67,-200 57.67,-200 53.83,-200 50,-196.17 50,-192.33 50,-192.33 50,-184.67 50,-184.67 50,-180.83 53.83,-177 57.67,-177 57.67,-177 105.33,-177 105.33,-177 109.17,-177 113,-180.83 113,-184.67 113,-184.67 113,-192.33 113,-192.33 113,-196.17 109.17,-200 105.33,-200"/>
<text text-anchor="middle" x="81.5" y="-184.8" font-family="Arial" font-size="14.00" fill="#000000">index.ts</text>
</g>
<!-- src/index.ts&#45;&gt;src/web&#45;element.ts -->
<!-- src/index.ts&#45;&gt;src/web&#45;element.ts -->
<g id="edge7" class="edge">
<title>src/index.ts&#45;&gt;src/web&#45;element.ts</title>
<path fill="none" stroke="black" d="M91.24,-176.78C95.43,-169.53 99.75,-159.74 102.73,-151.02"/>
<polygon fill="black" stroke="black" points="106.16,-151.75 105.6,-141.17 99.44,-149.8 106.16,-151.75"/>
</g>
<!-- src/index.ts&#45;&gt;exit_src -->
</g>
</svg>
