<?xml version="1.0" encoding="UTF-8" standalone="no"?>
<!DOCTYPE svg PUBLIC "-//W3C//DTD SVG 1.1//EN"
 "http://www.w3.org/Graphics/SVG/1.1/DTD/svg11.dtd">
<!-- Generated by graphviz version 2.43.0 (0)
 -->
<!-- Title: dependency&#45;graph&#45;[object Object] Pages: 1 -->
<svg width="354pt" height="208pt"
 viewBox="0.00 0.00 354.20 208.20" xmlns="http://www.w3.org/2000/svg" xmlns:xlink="http://www.w3.org/1999/xlink">
<g id="graph0" class="graph" transform="scale(1 1) rotate(0) translate(21.6 186.6)">
<title>dependency&#45;graph&#45;[object Object]</title>
<polygon fill="#ffffff" stroke="transparent" points="-21.6,21.6 -21.6,-186.6 332.6,-186.6 332.6,21.6 -21.6,21.6"/>
<g id="clust1" class="cluster">
<title>cluster_src</title>
<polygon fill="#ffffff" stroke="#000000" points="8,-43 8,-157 303,-157 303,-43 8,-43"/>
</g>
<g id="clust2" class="cluster">
<title>cluster_src</title>
<polygon fill="#ffffff" stroke="#000000" points="16,-51 16,-149 295,-149 295,-51 16,-51"/>
</g>
<!-- dependency&#45;graph&#45;[object Object] -->
<!-- name_src -->
<g id="node2" class="node">
<title>name_src</title>
<path fill="none" stroke="#ff0000" stroke-width="5" d="M279.33,-141C279.33,-141 240.67,-141 240.67,-141 236.83,-141 233,-137.17 233,-133.33 233,-133.33 233,-125.67 233,-125.67 233,-121.83 236.83,-118 240.67,-118 240.67,-118 279.33,-118 279.33,-118 283.17,-118 287,-121.83 287,-125.67 287,-125.67 287,-133.33 287,-133.33 287,-137.17 283.17,-141 279.33,-141"/>
<text text-anchor="middle" x="260" y="-125.8" font-family="Arial" font-size="14.00" fill="#000000">src</text>
</g>
<!-- exit_src -->
<!-- exit_src&#45;&gt;dependency&#45;graph&#45;[object Object] -->
<!-- exit_src&#45;&gt;exit_src -->
<!-- exit_src&#45;&gt;exit_src -->
<!-- src/index.ts -->
<g id="node4" class="node">
<title>src/index.ts</title>
<path fill="none" stroke="#ff0000" stroke-width="5" d="M206.83,-141C206.83,-141 159.17,-141 159.17,-141 155.33,-141 151.5,-137.17 151.5,-133.33 151.5,-133.33 151.5,-125.67 151.5,-125.67 151.5,-121.83 155.33,-118 159.17,-118 159.17,-118 206.83,-118 206.83,-118 210.67,-118 214.5,-121.83 214.5,-125.67 214.5,-125.67 214.5,-133.33 214.5,-133.33 214.5,-137.17 210.67,-141 206.83,-141"/>
<text text-anchor="middle" x="183" y="-125.8" font-family="Arial" font-size="14.00" fill="#000000">index.ts</text>
</g>
<!-- src/index.ts&#45;&gt;exit_src -->
<!-- src/web&#45;element.ts -->
<g id="node5" class="node">
<title>src/web&#45;element.ts</title>
<path fill="none" stroke="#000000" d="M125.83,-141C125.83,-141 32.17,-141 32.17,-141 28.33,-141 24.5,-137.17 24.5,-133.33 24.5,-133.33 24.5,-125.67 24.5,-125.67 24.5,-121.83 28.33,-118 32.17,-118 32.17,-118 125.83,-118 125.83,-118 129.67,-118 133.5,-121.83 133.5,-125.67 133.5,-125.67 133.5,-133.33 133.5,-133.33 133.5,-137.17 129.67,-141 125.83,-141"/>
<text text-anchor="middle" x="79" y="-125.8" font-family="Arial" font-size="14.00" fill="#000000">web&#45;element.ts</text>
</g>
<!-- src/web&#45;element.ts&#45;&gt;exit_src -->
</g>
</svg>
