<?xml version="1.0" encoding="UTF-8" standalone="no"?>
<!DOCTYPE svg PUBLIC "-//W3C//DTD SVG 1.1//EN"
 "http://www.w3.org/Graphics/SVG/1.1/DTD/svg11.dtd">
<!-- Generated by graphviz version 2.43.0 (0)
 -->
<!-- Title: dependency&#45;graph&#45;@siteimprove/alfa&#45;assert Pages: 1 -->
<svg width="257pt" height="350pt"
 viewBox="0.00 0.00 257.20 350.20" xmlns="http://www.w3.org/2000/svg" xmlns:xlink="http://www.w3.org/1999/xlink">
<g id="graph0" class="graph" transform="scale(1 1) rotate(0) translate(21.6 328.6)">
<title>dependency&#45;graph&#45;@siteimprove/alfa&#45;assert</title>
<polygon fill="#ffffff" stroke="transparent" points="-21.6,21.6 -21.6,-328.6 235.6,-328.6 235.6,21.6 -21.6,21.6"/>
<g id="clust1" class="cluster">
<title>cluster_src</title>
<polygon fill="#ffffff" stroke="#000000" points="8,-8 8,-299 206,-299 206,-8 8,-8"/>
</g>
<g id="clust2" class="cluster">
<title>cluster_src</title>
<polygon fill="#ffffff" stroke="#000000" points="16,-16 16,-291 198,-291 198,-16 16,-16"/>
</g>
<!-- src/assertion.ts -->
<g id="node1" class="node">
<title>src/assertion.ts</title>
<path fill="none" stroke="#000000" d="M142.33,-165C142.33,-165 71.67,-165 71.67,-165 67.83,-165 64,-161.17 64,-157.33 64,-157.33 64,-149.67 64,-149.67 64,-145.83 67.83,-142 71.67,-142 71.67,-142 142.33,-142 142.33,-142 146.17,-142 150,-145.83 150,-149.67 150,-149.67 150,-157.33 150,-157.33 150,-161.17 146.17,-165 142.33,-165"/>
<text text-anchor="middle" x="107" y="-149.8" font-family="Arial" font-size="14.00" fill="#000000">assertion.ts</text>
</g>
<!-- src/handler.ts -->
<g id="node2" class="node">
<title>src/handler.ts</title>
<path fill="none" stroke="#000000" d="M115.83,-106C115.83,-106 56.17,-106 56.17,-106 52.33,-106 48.5,-102.17 48.5,-98.33 48.5,-98.33 48.5,-90.67 48.5,-90.67 48.5,-86.83 52.33,-83 56.17,-83 56.17,-83 115.83,-83 115.83,-83 119.67,-83 123.5,-86.83 123.5,-90.67 123.5,-90.67 123.5,-98.33 123.5,-98.33 123.5,-102.17 119.67,-106 115.83,-106"/>
<text text-anchor="middle" x="86" y="-90.8" font-family="Arial" font-size="14.00" fill="#000000">handler.ts</text>
</g>
<!-- src/assertion.ts&#45;&gt;src/handler.ts -->
<!-- src/assertion.ts&#45;&gt;src/handler.ts -->
<g id="edge14" class="edge">
<title>src/assertion.ts&#45;&gt;src/handler.ts</title>
<path fill="none" stroke="black" stroke-dasharray="1,5" d="M108.46,-141.78C107.03,-134.37 103.68,-124.3 99.82,-115.45"/>
<polygon fill="black" stroke="black" points="102.84,-113.65 95.34,-106.17 96.54,-116.7 102.84,-113.65"/>
</g>
<!-- exit_src -->
<!-- src/assertion.ts&#45;&gt;exit_src -->
<!-- src/handler.ts&#45;&gt;exit_src -->
<!-- src/asserter.ts -->
<g id="node3" class="node">
<title>src/asserter.ts</title>
<path fill="none" stroke="#000000" d="M94.83,-224C94.83,-224 31.17,-224 31.17,-224 27.33,-224 23.5,-220.17 23.5,-216.33 23.5,-216.33 23.5,-208.67 23.5,-208.67 23.5,-204.83 27.33,-201 31.17,-201 31.17,-201 94.83,-201 94.83,-201 98.67,-201 102.5,-204.83 102.5,-208.67 102.5,-208.67 102.5,-216.33 102.5,-216.33 102.5,-220.17 98.67,-224 94.83,-224"/>
<text text-anchor="middle" x="63" y="-208.8" font-family="Arial" font-size="14.00" fill="#000000">asserter.ts</text>
</g>
<!-- src/asserter.ts&#45;&gt;src/assertion.ts -->
<!-- src/asserter.ts&#45;&gt;src/assertion.ts -->
<g id="edge10" class="edge">
<title>src/asserter.ts&#45;&gt;src/assertion.ts</title>
<path fill="none" stroke="black" d="M76.69,-200.78C83.93,-193.14 92.35,-182.65 98.67,-173.6"/>
<polygon fill="black" stroke="black" points="101.63,-175.46 104.16,-165.17 95.77,-171.64 101.63,-175.46"/>
</g>
<!-- src/asserter.ts&#45;&gt;src/handler.ts -->
<!-- src/asserter.ts&#45;&gt;src/handler.ts -->
<g id="edge12" class="edge">
<title>src/asserter.ts&#45;&gt;src/handler.ts</title>
<path fill="none" stroke="black" stroke-dasharray="1,5" d="M65.35,-200.9C63.77,-187.06 57.88,-162.23 64,-142 66.99,-132.12 72.85,-122.42 78.03,-114.46"/>
<polygon fill="black" stroke="black" points="81.02,-116.29 83.59,-106.01 75.17,-112.44 81.02,-116.29"/>
</g>
<!-- src/asserter.ts&#45;&gt;exit_src -->
<!-- exit_src&#45;&gt;exit_src -->
<!-- exit_src&#45;&gt;exit_src -->
<!-- exit_src&#45;&gt;exit_src -->
<!-- exit_src&#45;&gt;exit_src -->
<!-- name_src -->
<g id="node5" class="node">
<title>name_src</title>
<path fill="none" stroke="#ff0000" stroke-width="5" d="M182.33,-283C182.33,-283 143.67,-283 143.67,-283 139.83,-283 136,-279.17 136,-275.33 136,-275.33 136,-267.67 136,-267.67 136,-263.83 139.83,-260 143.67,-260 143.67,-260 182.33,-260 182.33,-260 186.17,-260 190,-263.83 190,-267.67 190,-267.67 190,-275.33 190,-275.33 190,-279.17 186.17,-283 182.33,-283"/>
<text text-anchor="middle" x="163" y="-267.8" font-family="Arial" font-size="14.00" fill="#000000">src</text>
</g>
<!-- src/index.ts -->
<g id="node6" class="node">
<title>src/index.ts</title>
<path fill="none" stroke="#ff0000" stroke-width="5" d="M109.83,-283C109.83,-283 62.17,-283 62.17,-283 58.33,-283 54.5,-279.17 54.5,-275.33 54.5,-275.33 54.5,-267.67 54.5,-267.67 54.5,-263.83 58.33,-260 62.17,-260 62.17,-260 109.83,-260 109.83,-260 113.67,-260 117.5,-263.83 117.5,-267.67 117.5,-267.67 117.5,-275.33 117.5,-275.33 117.5,-279.17 113.67,-283 109.83,-283"/>
<text text-anchor="middle" x="86" y="-267.8" font-family="Arial" font-size="14.00" fill="#000000">index.ts</text>
</g>
<!-- src/index.ts&#45;&gt;src/assertion.ts -->
<!-- src/index.ts&#45;&gt;src/assertion.ts -->
<g id="edge18" class="edge">
<title>src/index.ts&#45;&gt;src/assertion.ts</title>
<path fill="none" stroke="black" d="M101.09,-259.68C108.85,-250.64 116.69,-237.15 120,-224 124.09,-207.75 122.58,-188.71 118.9,-174.68"/>
<polygon fill="black" stroke="black" points="122.18,-173.45 115.72,-165.05 115.53,-175.64 122.18,-173.45"/>
</g>
<!-- src/index.ts&#45;&gt;src/handler.ts -->
<!-- src/index.ts&#45;&gt;src/handler.ts -->
<g id="edge20" class="edge">
<title>src/index.ts&#45;&gt;src/handler.ts</title>
<path fill="none" stroke="black" d="M102.5,-259.73C123.06,-241.91 155.72,-204.33 168,-165 171.05,-155.24 172.92,-150.96 168,-142 160.41,-128.17 146.77,-117.86 132.69,-110.51"/>
<polygon fill="black" stroke="black" points="133.97,-107.24 123.44,-106.1 130.96,-113.56 133.97,-107.24"/>
</g>
<!-- src/index.ts&#45;&gt;src/asserter.ts -->
<!-- src/index.ts&#45;&gt;src/asserter.ts -->
<g id="edge16" class="edge">
<title>src/index.ts&#45;&gt;src/asserter.ts</title>
<path fill="none" stroke="black" d="M87.09,-259.78C85.38,-252.29 81.61,-242.09 77.39,-233.16"/>
<polygon fill="black" stroke="black" points="80.43,-231.43 72.71,-224.17 74.22,-234.66 80.43,-231.43"/>
</g>
<!-- src/index.ts&#45;&gt;exit_src -->
</g>
</svg>
