<?xml version="1.0" encoding="UTF-8" standalone="no"?>
<!DOCTYPE svg PUBLIC "-//W3C//DTD SVG 1.1//EN"
 "http://www.w3.org/Graphics/SVG/1.1/DTD/svg11.dtd">
<!-- Generated by graphviz version 14.0.2 (20251019.1705)
 -->
<!-- Title: dependency&#45;graph&#45;@siteimprove/alfa&#45;assert Pages: 1 -->
<svg width="261pt" height="338pt"
 viewBox="0.00 0.00 261.00 338.00" xmlns="http://www.w3.org/2000/svg" xmlns:xlink="http://www.w3.org/1999/xlink">
<g id="graph0" class="graph" transform="scale(1 1) rotate(0) translate(21.6 316.35)">
<title>dependency&#45;graph&#45;@siteimprove/alfa&#45;assert</title>
<polygon fill="#ffffff" stroke="none" points="-21.6,21.6 -21.6,-316.35 239.6,-316.35 239.6,21.6 -21.6,21.6"/>
<g id="clust1" class="cluster">
<title>cluster_src</title>
<polygon fill="#ffffff" stroke="#000000" points="8,-8 8,-286.75 210,-286.75 210,-8 8,-8"/>
</g>
<!-- src/assertion.ts -->
<g id="node1" class="node">
<title>src/assertion.ts</title>
<path fill="none" stroke="#000000" d="M154.46,-159.25C154.46,-159.25 63.54,-159.25 63.54,-159.25 59.58,-159.25 55.63,-155.29 55.63,-151.33 55.63,-151.33 55.63,-143.42 55.63,-143.42 55.63,-139.46 59.58,-135.5 63.54,-135.5 63.54,-135.5 154.46,-135.5 154.46,-135.5 158.42,-135.5 162.38,-139.46 162.38,-143.42 162.38,-143.42 162.38,-151.33 162.38,-151.33 162.38,-155.29 158.42,-159.25 154.46,-159.25"/>
<text xml:space="preserve" text-anchor="middle" x="109" y="-141.95" font-family="Arial" font-size="14.00" fill="#000000">src/assertion.ts</text>
</g>
<!-- src/handler.ts -->
<g id="node2" class="node">
<title>src/handler.ts</title>
<path fill="none" stroke="#000000" d="M149.21,-99.5C149.21,-99.5 68.79,-99.5 68.79,-99.5 64.83,-99.5 60.88,-95.54 60.88,-91.58 60.88,-91.58 60.88,-83.67 60.88,-83.67 60.88,-79.71 64.83,-75.75 68.79,-75.75 68.79,-75.75 149.21,-75.75 149.21,-75.75 153.17,-75.75 157.12,-79.71 157.12,-83.67 157.12,-83.67 157.12,-91.58 157.12,-91.58 157.12,-95.54 153.17,-99.5 149.21,-99.5"/>
<text xml:space="preserve" text-anchor="middle" x="109" y="-82.2" font-family="Arial" font-size="14.00" fill="#000000">src/handler.ts</text>
</g>
<!-- src/assertion.ts&#45;&gt;src/handler.ts -->
<!-- src/assertion.ts&#45;&gt;src/handler.ts -->
<g id="edge10" class="edge">
<title>src/assertion.ts&#45;&gt;src/handler.ts</title>
<path fill="none" stroke="black" stroke-dasharray="1,5" d="M114.46,-135.24C115.62,-128.37 116,-119.31 115.6,-111.01"/>
<polygon fill="black" stroke="black" points="119.1,-110.83 114.6,-101.23 112.13,-111.53 119.1,-110.83"/>
</g>
<!-- exit_src -->
<!-- src/assertion.ts&#45;&gt;exit_src -->
<!-- src/handler.ts&#45;&gt;exit_src -->
<!-- src/asserter.ts -->
<g id="node3" class="node">
<title>src/asserter.ts</title>
<path fill="none" stroke="#000000" d="M121.08,-219C121.08,-219 36.92,-219 36.92,-219 32.96,-219 29,-215.04 29,-211.08 29,-211.08 29,-203.17 29,-203.17 29,-199.21 32.96,-195.25 36.92,-195.25 36.92,-195.25 121.08,-195.25 121.08,-195.25 125.04,-195.25 129,-199.21 129,-203.17 129,-203.17 129,-211.08 129,-211.08 129,-215.04 125.04,-219 121.08,-219"/>
<text xml:space="preserve" text-anchor="middle" x="79" y="-201.7" font-family="Arial" font-size="14.00" fill="#000000">src/asserter.ts</text>
</g>
<!-- src/asserter.ts&#45;&gt;src/assertion.ts -->
<!-- src/asserter.ts&#45;&gt;src/assertion.ts -->
<g id="edge6" class="edge">
<title>src/asserter.ts&#45;&gt;src/assertion.ts</title>
<path fill="none" stroke="black" d="M90.24,-194.99C95.14,-187.88 100.41,-178.43 104.37,-169.89"/>
<polygon fill="black" stroke="black" points="107.52,-171.45 108.11,-160.87 101.05,-168.77 107.52,-171.45"/>
</g>
<!-- src/asserter.ts&#45;&gt;src/handler.ts -->
<!-- src/asserter.ts&#45;&gt;src/handler.ts -->
<g id="edge8" class="edge">
<title>src/asserter.ts&#45;&gt;src/handler.ts</title>
<path fill="none" stroke="black" stroke-dasharray="1,5" d="M73.86,-195C63.68,-180.98 45.69,-156.23 56,-135.5 62.03,-123.38 72.85,-113.57 83.24,-106.11"/>
<polygon fill="black" stroke="black" points="84.88,-109.22 91.26,-100.76 81,-103.4 84.88,-109.22"/>
</g>
<!-- src/asserter.ts&#45;&gt;exit_src -->
<!-- src/index.ts -->
<g id="node5" class="node">
<title>src/index.ts</title>
<path fill="none" stroke="#ff0000" stroke-width="5" d="M182.21,-278.75C182.21,-278.75 113.79,-278.75 113.79,-278.75 109.83,-278.75 105.88,-274.79 105.88,-270.83 105.88,-270.83 105.88,-262.92 105.88,-262.92 105.88,-258.96 109.83,-255 113.79,-255 113.79,-255 182.21,-255 182.21,-255 186.17,-255 190.12,-258.96 190.12,-262.92 190.12,-262.92 190.12,-270.83 190.12,-270.83 190.12,-274.79 186.17,-278.75 182.21,-278.75"/>
<text xml:space="preserve" text-anchor="middle" x="148" y="-261.45" font-family="Arial" font-size="14.00" fill="#000000">src/index.ts</text>
</g>
<!-- src/index.ts&#45;&gt;src/assertion.ts -->
<!-- src/index.ts&#45;&gt;src/assertion.ts -->
<g id="edge14" class="edge">
<title>src/index.ts&#45;&gt;src/assertion.ts</title>
<path fill="none" stroke="black" d="M154.33,-252.73C156.1,-238.25 153.96,-214.46 147,-195.25 143.62,-185.91 138.21,-176.44 132.38,-168.48"/>
<polygon fill="black" stroke="black" points="135.15,-166.33 126.11,-160.8 129.72,-170.76 135.15,-166.33"/>
</g>
<!-- src/index.ts&#45;&gt;src/handler.ts -->
<!-- src/index.ts&#45;&gt;src/handler.ts -->
<g id="edge16" class="edge">
<title>src/index.ts&#45;&gt;src/handler.ts</title>
<path fill="none" stroke="black" d="M160.74,-252.53C177.13,-228.03 199.56,-174.8 180,-135.5 173.85,-123.14 162.71,-113.17 150.97,-105.65"/>
<polygon fill="black" stroke="black" points="152.79,-102.66 142.38,-100.68 149.28,-108.72 152.79,-102.66"/>
</g>
<!-- src/index.ts&#45;&gt;src/asserter.ts -->
<!-- src/index.ts&#45;&gt;src/asserter.ts -->
<g id="edge12" class="edge">
<title>src/index.ts&#45;&gt;src/asserter.ts</title>
<path fill="none" stroke="black" d="M138.1,-252.77C129.82,-244.92 117.94,-234.82 106.93,-226.22"/>
<polygon fill="black" stroke="black" points="109.27,-223.6 99.19,-220.34 105.04,-229.17 109.27,-223.6"/>
</g>
<!-- src/index.ts&#45;&gt;exit_src -->
</g>
</svg>
