<?xml version="1.0" encoding="UTF-8" standalone="no"?>
<!DOCTYPE svg PUBLIC "-//W3C//DTD SVG 1.1//EN"
 "http://www.w3.org/Graphics/SVG/1.1/DTD/svg11.dtd">
<!-- Generated by graphviz version 2.43.0 (0)
 -->
<!-- Title: dependency&#45;graph&#45;[object Object] Pages: 1 -->
<svg width="282pt" height="385pt"
 viewBox="0.00 0.00 281.70 385.20" xmlns="http://www.w3.org/2000/svg" xmlns:xlink="http://www.w3.org/1999/xlink">
<g id="graph0" class="graph" transform="scale(1 1) rotate(0) translate(21.6 363.6)">
<title>dependency&#45;graph&#45;[object Object]</title>
<polygon fill="#ffffff" stroke="transparent" points="-21.6,21.6 -21.6,-363.6 260.1,-363.6 260.1,21.6 -21.6,21.6"/>
<g id="clust1" class="cluster">
<title>cluster_src</title>
<polygon fill="#ffffff" stroke="#000000" points="32.5,-43 32.5,-334 230.5,-334 230.5,-43 32.5,-43"/>
</g>
<g id="clust2" class="cluster">
<title>cluster_src</title>
<polygon fill="#ffffff" stroke="#000000" points="40.5,-51 40.5,-326 222.5,-326 222.5,-51 40.5,-51"/>
</g>
<!-- dependency&#45;graph&#45;[object Object] -->
<!-- src/assertion.ts -->
<g id="node2" class="node">
<title>src/assertion.ts</title>
<path fill="none" stroke="#000000" d="M166.83,-200C166.83,-200 96.17,-200 96.17,-200 92.33,-200 88.5,-196.17 88.5,-192.33 88.5,-192.33 88.5,-184.67 88.5,-184.67 88.5,-180.83 92.33,-177 96.17,-177 96.17,-177 166.83,-177 166.83,-177 170.67,-177 174.5,-180.83 174.5,-184.67 174.5,-184.67 174.5,-192.33 174.5,-192.33 174.5,-196.17 170.67,-200 166.83,-200"/>
<text text-anchor="middle" x="131.5" y="-184.8" font-family="Arial" font-size="14.00" fill="#000000">assertion.ts</text>
</g>
<!-- src/handler.ts -->
<g id="node3" class="node">
<title>src/handler.ts</title>
<path fill="none" stroke="#000000" d="M140.33,-141C140.33,-141 80.67,-141 80.67,-141 76.83,-141 73,-137.17 73,-133.33 73,-133.33 73,-125.67 73,-125.67 73,-121.83 76.83,-118 80.67,-118 80.67,-118 140.33,-118 140.33,-118 144.17,-118 148,-121.83 148,-125.67 148,-125.67 148,-133.33 148,-133.33 148,-137.17 144.17,-141 140.33,-141"/>
<text text-anchor="middle" x="110.5" y="-125.8" font-family="Arial" font-size="14.00" fill="#000000">handler.ts</text>
</g>
<!-- src/assertion.ts&#45;&gt;src/handler.ts -->
<!-- src/assertion.ts&#45;&gt;src/handler.ts -->
<g id="edge15" class="edge">
<title>src/assertion.ts&#45;&gt;src/handler.ts</title>
<path fill="none" stroke="black" d="M132.96,-176.78C131.53,-169.37 128.18,-159.3 124.32,-150.45"/>
<polygon fill="black" stroke="black" points="127.34,-148.65 119.84,-141.17 121.04,-151.7 127.34,-148.65"/>
</g>
<!-- exit_src -->
<!-- src/assertion.ts&#45;&gt;exit_src -->
<!-- src/handler.ts&#45;&gt;exit_src -->
<!-- src/asserter.ts -->
<g id="node4" class="node">
<title>src/asserter.ts</title>
<path fill="none" stroke="#000000" d="M119.33,-259C119.33,-259 55.67,-259 55.67,-259 51.83,-259 48,-255.17 48,-251.33 48,-251.33 48,-243.67 48,-243.67 48,-239.83 51.83,-236 55.67,-236 55.67,-236 119.33,-236 119.33,-236 123.17,-236 127,-239.83 127,-243.67 127,-243.67 127,-251.33 127,-251.33 127,-255.17 123.17,-259 119.33,-259"/>
<text text-anchor="middle" x="87.5" y="-243.8" font-family="Arial" font-size="14.00" fill="#000000">asserter.ts</text>
</g>
<!-- src/asserter.ts&#45;&gt;src/assertion.ts -->
<!-- src/asserter.ts&#45;&gt;src/assertion.ts -->
<g id="edge11" class="edge">
<title>src/asserter.ts&#45;&gt;src/assertion.ts</title>
<path fill="none" stroke="black" d="M101.19,-235.78C108.43,-228.14 116.85,-217.65 123.17,-208.6"/>
<polygon fill="black" stroke="black" points="126.13,-210.46 128.66,-200.17 120.27,-206.64 126.13,-210.46"/>
</g>
<!-- src/asserter.ts&#45;&gt;src/handler.ts -->
<!-- src/asserter.ts&#45;&gt;src/handler.ts -->
<g id="edge13" class="edge">
<title>src/asserter.ts&#45;&gt;src/handler.ts</title>
<path fill="none" stroke="black" d="M89.85,-235.9C88.27,-222.06 82.38,-197.23 88.5,-177 91.49,-167.12 97.35,-157.42 102.53,-149.46"/>
<polygon fill="black" stroke="black" points="105.52,-151.29 108.09,-141.01 99.67,-147.44 105.52,-151.29"/>
</g>
<!-- src/asserter.ts&#45;&gt;exit_src -->
<!-- name_src -->
<g id="node5" class="node">
<title>name_src</title>
<path fill="none" stroke="#ff0000" stroke-width="5" d="M206.83,-318C206.83,-318 168.17,-318 168.17,-318 164.33,-318 160.5,-314.17 160.5,-310.33 160.5,-310.33 160.5,-302.67 160.5,-302.67 160.5,-298.83 164.33,-295 168.17,-295 168.17,-295 206.83,-295 206.83,-295 210.67,-295 214.5,-298.83 214.5,-302.67 214.5,-302.67 214.5,-310.33 214.5,-310.33 214.5,-314.17 210.67,-318 206.83,-318"/>
<text text-anchor="middle" x="187.5" y="-302.8" font-family="Arial" font-size="14.00" fill="#000000">src</text>
</g>
<!-- exit_src&#45;&gt;dependency&#45;graph&#45;[object Object] -->
<!-- exit_src&#45;&gt;exit_src -->
<!-- exit_src&#45;&gt;exit_src -->
<!-- exit_src&#45;&gt;exit_src -->
<!-- exit_src&#45;&gt;exit_src -->
<!-- src/index.ts -->
<g id="node7" class="node">
<title>src/index.ts</title>
<path fill="none" stroke="#ff0000" stroke-width="5" d="M134.33,-318C134.33,-318 86.67,-318 86.67,-318 82.83,-318 79,-314.17 79,-310.33 79,-310.33 79,-302.67 79,-302.67 79,-298.83 82.83,-295 86.67,-295 86.67,-295 134.33,-295 134.33,-295 138.17,-295 142,-298.83 142,-302.67 142,-302.67 142,-310.33 142,-310.33 142,-314.17 138.17,-318 134.33,-318"/>
<text text-anchor="middle" x="110.5" y="-302.8" font-family="Arial" font-size="14.00" fill="#000000">index.ts</text>
</g>
<!-- src/index.ts&#45;&gt;src/assertion.ts -->
<!-- src/index.ts&#45;&gt;src/assertion.ts -->
<g id="edge19" class="edge">
<title>src/index.ts&#45;&gt;src/assertion.ts</title>
<path fill="none" stroke="black" d="M125.59,-294.68C133.35,-285.64 141.19,-272.15 144.5,-259 148.59,-242.75 147.08,-223.71 143.4,-209.68"/>
<polygon fill="black" stroke="black" points="146.68,-208.45 140.22,-200.05 140.03,-210.64 146.68,-208.45"/>
</g>
<!-- src/index.ts&#45;&gt;src/handler.ts -->
<!-- src/index.ts&#45;&gt;src/handler.ts -->
<g id="edge21" class="edge">
<title>src/index.ts&#45;&gt;src/handler.ts</title>
<path fill="none" stroke="black" d="M127,-294.73C147.56,-276.91 180.22,-239.33 192.5,-200 195.55,-190.24 197.42,-185.96 192.5,-177 184.91,-163.17 171.27,-152.86 157.19,-145.51"/>
<polygon fill="black" stroke="black" points="158.47,-142.24 147.94,-141.1 155.46,-148.56 158.47,-142.24"/>
</g>
<!-- src/index.ts&#45;&gt;src/asserter.ts -->
<!-- src/index.ts&#45;&gt;src/asserter.ts -->
<g id="edge17" class="edge">
<title>src/index.ts&#45;&gt;src/asserter.ts</title>
<path fill="none" stroke="black" d="M111.59,-294.78C109.88,-287.29 106.11,-277.09 101.89,-268.16"/>
<polygon fill="black" stroke="black" points="104.93,-266.43 97.21,-259.17 98.72,-269.66 104.93,-266.43"/>
</g>
<!-- src/index.ts&#45;&gt;exit_src -->
</g>
</svg>
