<?xml version="1.0" encoding="UTF-8" standalone="no"?>
<!DOCTYPE svg PUBLIC "-//W3C//DTD SVG 1.1//EN"
 "http://www.w3.org/Graphics/SVG/1.1/DTD/svg11.dtd">
<!-- Generated by graphviz version 14.0.2 (20251019.1705)
 -->
<!-- Title: dependency&#45;graph&#45;@siteimprove/alfa&#45;angular Pages: 1 -->
<svg width="191pt" height="218pt"
 viewBox="0.00 0.00 191.00 218.00" xmlns="http://www.w3.org/2000/svg" xmlns:xlink="http://www.w3.org/1999/xlink">
<g id="graph0" class="graph" transform="scale(1 1) rotate(0) translate(21.6 196.85)">
<title>dependency&#45;graph&#45;@siteimprove/alfa&#45;angular</title>
<polygon fill="#ffffff" stroke="none" points="-21.6,21.6 -21.6,-196.85 169.6,-196.85 169.6,21.6 -21.6,21.6"/>
<g id="clust1" class="cluster">
<title>cluster_src</title>
<polygon fill="#ffffff" stroke="#000000" points="8,-8 8,-167.25 140,-167.25 140,-8 8,-8"/>
</g>
<!-- src/angular.ts -->
<g id="node1" class="node">
<title>src/angular.ts</title>
<path fill="none" stroke="#000000" d="M104.21,-99.5C104.21,-99.5 23.79,-99.5 23.79,-99.5 19.83,-99.5 15.88,-95.54 15.88,-91.58 15.88,-91.58 15.88,-83.67 15.88,-83.67 15.88,-79.71 19.83,-75.75 23.79,-75.75 23.79,-75.75 104.21,-75.75 104.21,-75.75 108.17,-75.75 112.12,-79.71 112.12,-83.67 112.12,-83.67 112.12,-91.58 112.12,-91.58 112.12,-95.54 108.17,-99.5 104.21,-99.5"/>
<text xml:space="preserve" text-anchor="middle" x="64" y="-82.2" font-family="Arial" font-size="14.00" fill="#000000">src/angular.ts</text>
</g>
<!-- exit_src -->
<!-- src/angular.ts&#45;&gt;exit_src -->
<!-- src/index.ts -->
<g id="node3" class="node">
<title>src/index.ts</title>
<path fill="none" stroke="#ff0000" stroke-width="5" d="M98.21,-159.25C98.21,-159.25 29.79,-159.25 29.79,-159.25 25.83,-159.25 21.88,-155.29 21.88,-151.33 21.88,-151.33 21.88,-143.42 21.88,-143.42 21.88,-139.46 25.83,-135.5 29.79,-135.5 29.79,-135.5 98.21,-135.5 98.21,-135.5 102.17,-135.5 106.12,-139.46 106.12,-143.42 106.12,-143.42 106.12,-151.33 106.12,-151.33 106.12,-155.29 102.17,-159.25 98.21,-159.25"/>
<text xml:space="preserve" text-anchor="middle" x="64" y="-141.95" font-family="Arial" font-size="14.00" fill="#000000">src/index.ts</text>
</g>
<!-- src/index.ts&#45;&gt;src/angular.ts -->
<!-- src/index.ts&#45;&gt;src/angular.ts -->
<g id="edge4" class="edge">
<title>src/index.ts&#45;&gt;src/angular.ts</title>
<path fill="none" stroke="black" d="M69.76,-133.27C70.68,-126.71 70.96,-118.58 70.6,-111.07"/>
<polygon fill="black" stroke="black" points="74.09,-110.84 69.61,-101.24 67.13,-111.54 74.09,-110.84"/>
</g>
<!-- src/index.ts&#45;&gt;exit_src -->
</g>
</svg>
