<?xml version="1.0" encoding="UTF-8" standalone="no"?>
<!DOCTYPE svg PUBLIC "-//W3C//DTD SVG 1.1//EN"
 "http://www.w3.org/Graphics/SVG/1.1/DTD/svg11.dtd">
<!-- Generated by graphviz version 14.0.2 (20251019.1705)
 -->
<!-- Title: dependency&#45;graph&#45;@siteimprove/alfa&#45;cypress Pages: 1 -->
<svg width="193pt" height="218pt"
 viewBox="0.00 0.00 193.00 218.00" xmlns="http://www.w3.org/2000/svg" xmlns:xlink="http://www.w3.org/1999/xlink">
<g id="graph0" class="graph" transform="scale(1 1) rotate(0) translate(21.6 196.85)">
<title>dependency&#45;graph&#45;@siteimprove/alfa&#45;cypress</title>
<polygon fill="#ffffff" stroke="none" points="-21.6,21.6 -21.6,-196.85 171.6,-196.85 171.6,21.6 -21.6,21.6"/>
<g id="clust1" class="cluster">
<title>cluster_src</title>
<polygon fill="#ffffff" stroke="#000000" points="8,-8 8,-167.25 142,-167.25 142,-8 8,-8"/>
</g>
<!-- src/cypress.ts -->
<g id="node1" class="node">
<title>src/cypress.ts</title>
<path fill="none" stroke="#000000" d="M106.33,-99.5C106.33,-99.5 23.67,-99.5 23.67,-99.5 19.71,-99.5 15.75,-95.54 15.75,-91.58 15.75,-91.58 15.75,-83.67 15.75,-83.67 15.75,-79.71 19.71,-75.75 23.67,-75.75 23.67,-75.75 106.33,-75.75 106.33,-75.75 110.29,-75.75 114.25,-79.71 114.25,-83.67 114.25,-83.67 114.25,-91.58 114.25,-91.58 114.25,-95.54 110.29,-99.5 106.33,-99.5"/>
<text xml:space="preserve" text-anchor="middle" x="65" y="-82.2" font-family="Arial" font-size="14.00" fill="#000000">src/cypress.ts</text>
</g>
<!-- exit_src -->
<!-- src/cypress.ts&#45;&gt;exit_src -->
<!-- src/index.ts -->
<g id="node2" class="node">
<title>src/index.ts</title>
<path fill="none" stroke="#ff0000" stroke-width="5" d="M99.21,-159.25C99.21,-159.25 30.79,-159.25 30.79,-159.25 26.83,-159.25 22.88,-155.29 22.88,-151.33 22.88,-151.33 22.88,-143.42 22.88,-143.42 22.88,-139.46 26.83,-135.5 30.79,-135.5 30.79,-135.5 99.21,-135.5 99.21,-135.5 103.17,-135.5 107.12,-139.46 107.12,-143.42 107.12,-143.42 107.12,-151.33 107.12,-151.33 107.12,-155.29 103.17,-159.25 99.21,-159.25"/>
<text xml:space="preserve" text-anchor="middle" x="65" y="-141.95" font-family="Arial" font-size="14.00" fill="#000000">src/index.ts</text>
</g>
<!-- src/index.ts&#45;&gt;src/cypress.ts -->
<!-- src/index.ts&#45;&gt;src/cypress.ts -->
<g id="edge4" class="edge">
<title>src/index.ts&#45;&gt;src/cypress.ts</title>
<path fill="none" stroke="black" d="M70.76,-133.27C71.68,-126.71 71.96,-118.58 71.6,-111.07"/>
<polygon fill="black" stroke="black" points="75.09,-110.84 70.61,-101.24 68.13,-111.54 75.09,-110.84"/>
</g>
<!-- src/index.ts&#45;&gt;exit_src -->
</g>
</svg>
