<?xml version="1.0" encoding="UTF-8" standalone="no"?>
<!DOCTYPE svg PUBLIC "-//W3C//DTD SVG 1.1//EN"
 "http://www.w3.org/Graphics/SVG/1.1/DTD/svg11.dtd">
<!-- Generated by graphviz version 2.43.0 (0)
 -->
<!-- Title: dependency&#45;graph&#45;[object Object] Pages: 1 -->
<svg width="264pt" height="267pt"
 viewBox="0.00 0.00 264.20 267.20" xmlns="http://www.w3.org/2000/svg" xmlns:xlink="http://www.w3.org/1999/xlink">
<g id="graph0" class="graph" transform="scale(1 1) rotate(0) translate(21.6 245.6)">
<title>dependency&#45;graph&#45;[object Object]</title>
<polygon fill="#ffffff" stroke="transparent" points="-21.6,21.6 -21.6,-245.6 242.6,-245.6 242.6,21.6 -21.6,21.6"/>
<g id="clust1" class="cluster">
<title>cluster_src</title>
<polygon fill="#ffffff" stroke="#000000" points="35.5,-43 35.5,-216 203.5,-216 203.5,-43 35.5,-43"/>
</g>
<g id="clust2" class="cluster">
<title>cluster_src</title>
<polygon fill="#ffffff" stroke="#000000" points="43.5,-51 43.5,-208 195.5,-208 195.5,-51 43.5,-51"/>
</g>
<!-- dependency&#45;graph&#45;[object Object] -->
<!-- src/unexpected.ts -->
<g id="node2" class="node">
<title>src/unexpected.ts</title>
<path fill="none" stroke="#000000" d="M145.33,-141C145.33,-141 59.67,-141 59.67,-141 55.83,-141 52,-137.17 52,-133.33 52,-133.33 52,-125.67 52,-125.67 52,-121.83 55.83,-118 59.67,-118 59.67,-118 145.33,-118 145.33,-118 149.17,-118 153,-121.83 153,-125.67 153,-125.67 153,-133.33 153,-133.33 153,-137.17 149.17,-141 145.33,-141"/>
<text text-anchor="middle" x="102.5" y="-125.8" font-family="Arial" font-size="14.00" fill="#000000">unexpected.ts</text>
</g>
<!-- exit_src -->
<!-- src/unexpected.ts&#45;&gt;exit_src -->
<!-- name_src -->
<g id="node3" class="node">
<title>name_src</title>
<path fill="none" stroke="#ff0000" stroke-width="5" d="M179.83,-200C179.83,-200 141.17,-200 141.17,-200 137.33,-200 133.5,-196.17 133.5,-192.33 133.5,-192.33 133.5,-184.67 133.5,-184.67 133.5,-180.83 137.33,-177 141.17,-177 141.17,-177 179.83,-177 179.83,-177 183.67,-177 187.5,-180.83 187.5,-184.67 187.5,-184.67 187.5,-192.33 187.5,-192.33 187.5,-196.17 183.67,-200 179.83,-200"/>
<text text-anchor="middle" x="160.5" y="-184.8" font-family="Arial" font-size="14.00" fill="#000000">src</text>
</g>
<!-- exit_src&#45;&gt;dependency&#45;graph&#45;[object Object] -->
<!-- exit_src&#45;&gt;exit_src -->
<!-- exit_src&#45;&gt;exit_src -->
<!-- src/index.ts -->
<g id="node5" class="node">
<title>src/index.ts</title>
<path fill="none" stroke="#ff0000" stroke-width="5" d="M107.33,-200C107.33,-200 59.67,-200 59.67,-200 55.83,-200 52,-196.17 52,-192.33 52,-192.33 52,-184.67 52,-184.67 52,-180.83 55.83,-177 59.67,-177 59.67,-177 107.33,-177 107.33,-177 111.17,-177 115,-180.83 115,-184.67 115,-184.67 115,-192.33 115,-192.33 115,-196.17 111.17,-200 107.33,-200"/>
<text text-anchor="middle" x="83.5" y="-184.8" font-family="Arial" font-size="14.00" fill="#000000">index.ts</text>
</g>
<!-- src/index.ts&#45;&gt;src/unexpected.ts -->
<!-- src/index.ts&#45;&gt;src/unexpected.ts -->
<g id="edge7" class="edge">
<title>src/index.ts&#45;&gt;src/unexpected.ts</title>
<path fill="none" stroke="black" d="M92.49,-176.78C96.17,-169.53 99.8,-159.74 102.17,-151.02"/>
<polygon fill="black" stroke="black" points="105.6,-151.69 104.35,-141.17 98.77,-150.18 105.6,-151.69"/>
</g>
<!-- src/index.ts&#45;&gt;exit_src -->
</g>
</svg>
