<?xml version="1.0" encoding="UTF-8" standalone="no"?>
<!DOCTYPE svg PUBLIC "-//W3C//DTD SVG 1.1//EN"
 "http://www.w3.org/Graphics/SVG/1.1/DTD/svg11.dtd">
<!-- Generated by graphviz version 14.0.2 (20251019.1705)
 -->
<!-- Title: dependency&#45;graph&#45;@siteimprove/alfa&#45;unexpected Pages: 1 -->
<svg width="217pt" height="218pt"
 viewBox="0.00 0.00 217.00 218.00" xmlns="http://www.w3.org/2000/svg" xmlns:xlink="http://www.w3.org/1999/xlink">
<g id="graph0" class="graph" transform="scale(1 1) rotate(0) translate(21.6 196.85)">
<title>dependency&#45;graph&#45;@siteimprove/alfa&#45;unexpected</title>
<polygon fill="#ffffff" stroke="none" points="-21.6,21.6 -21.6,-196.85 195.6,-196.85 195.6,21.6 -21.6,21.6"/>
<g id="clust1" class="cluster">
<title>cluster_src</title>
<polygon fill="#ffffff" stroke="#000000" points="8,-8 8,-167.25 166,-167.25 166,-8 8,-8"/>
</g>
<!-- src/unexpected.ts -->
<g id="node1" class="node">
<title>src/unexpected.ts</title>
<path fill="none" stroke="#000000" d="M129.96,-99.5C129.96,-99.5 24.04,-99.5 24.04,-99.5 20.08,-99.5 16.12,-95.54 16.12,-91.58 16.12,-91.58 16.12,-83.67 16.12,-83.67 16.12,-79.71 20.08,-75.75 24.04,-75.75 24.04,-75.75 129.96,-75.75 129.96,-75.75 133.92,-75.75 137.88,-79.71 137.88,-83.67 137.88,-83.67 137.88,-91.58 137.88,-91.58 137.88,-95.54 133.92,-99.5 129.96,-99.5"/>
<text xml:space="preserve" text-anchor="middle" x="77" y="-82.2" font-family="Arial" font-size="14.00" fill="#000000">src/unexpected.ts</text>
</g>
<!-- exit_src -->
<!-- src/unexpected.ts&#45;&gt;exit_src -->
<!-- src/index.ts -->
<g id="node3" class="node">
<title>src/index.ts</title>
<path fill="none" stroke="#ff0000" stroke-width="5" d="M111.21,-159.25C111.21,-159.25 42.79,-159.25 42.79,-159.25 38.83,-159.25 34.88,-155.29 34.88,-151.33 34.88,-151.33 34.88,-143.42 34.88,-143.42 34.88,-139.46 38.83,-135.5 42.79,-135.5 42.79,-135.5 111.21,-135.5 111.21,-135.5 115.17,-135.5 119.12,-139.46 119.12,-143.42 119.12,-143.42 119.12,-151.33 119.12,-151.33 119.12,-155.29 115.17,-159.25 111.21,-159.25"/>
<text xml:space="preserve" text-anchor="middle" x="77" y="-141.95" font-family="Arial" font-size="14.00" fill="#000000">src/index.ts</text>
</g>
<!-- src/index.ts&#45;&gt;src/unexpected.ts -->
<!-- src/index.ts&#45;&gt;src/unexpected.ts -->
<g id="edge4" class="edge">
<title>src/index.ts&#45;&gt;src/unexpected.ts</title>
<path fill="none" stroke="black" d="M82.76,-133.27C83.68,-126.71 83.96,-118.58 83.6,-111.07"/>
<polygon fill="black" stroke="black" points="87.09,-110.84 82.61,-101.24 80.13,-111.54 87.09,-110.84"/>
</g>
<!-- src/index.ts&#45;&gt;exit_src -->
</g>
</svg>
