<?xml version="1.0" encoding="UTF-8" standalone="no"?>
<!DOCTYPE svg PUBLIC "-//W3C//DTD SVG 1.1//EN"
 "http://www.w3.org/Graphics/SVG/1.1/DTD/svg11.dtd">
<!-- Generated by graphviz version 2.43.0 (0)
 -->
<!-- Title: dependency&#45;graph&#45;Alfa integrations Pages: 1 -->
<svg width="2048pt" height="814pt"
 viewBox="0.00 0.00 2047.99 814.20" xmlns="http://www.w3.org/2000/svg" xmlns:xlink="http://www.w3.org/1999/xlink">
<g id="graph0" class="graph" transform="scale(1 1) rotate(0) translate(21.6 792.6)">
<title>dependency&#45;graph&#45;Alfa integrations</title>
<polygon fill="#ffffff" stroke="transparent" points="-21.6,21.6 -21.6,-792.6 2026.39,-792.6 2026.39,21.6 -21.6,21.6"/>
<g id="clust1" class="cluster">
<title>cluster_Alfa integrations</title>
<polygon fill="#ffffff" stroke="#000000" points="8,-8 8,-763 1992,-763 1992,-8 8,-8"/>
</g>
<g id="clust2" class="cluster">
<title>cluster_Formatters</title>
<polygon fill="#ffffff" stroke="#000000" points="331,-67 331,-224 866,-224 866,-67 331,-67"/>
</g>
<g id="clust3" class="cluster">
<title>cluster_Integrations with frameworks</title>
<polygon fill="#ffffff" stroke="#000000" points="874,-67 874,-409 1952,-409 1952,-67 874,-67"/>
</g>
<g id="clust4" class="cluster">
<title>cluster_Test frameworks</title>
<polygon fill="#ffffff" stroke="#000000" points="1300,-126 1300,-283 1932,-283 1932,-126 1300,-126"/>
</g>
<g id="clust5" class="cluster">
<title>cluster_Browser automations</title>
<polygon fill="#ffffff" stroke="#000000" points="1196,-303 1196,-401 1944,-401 1944,-303 1196,-303"/>
</g>
<g id="clust6" class="cluster">
<title>cluster_Components libraries</title>
<polygon fill="#ffffff" stroke="#000000" points="970,-126 970,-283 1292,-283 1292,-126 970,-126"/>
</g>
<g id="clust7" class="cluster">
<title>cluster_Command line</title>
<polygon fill="#ffffff" stroke="#000000" points="1718,-598 1718,-755 1984,-755 1984,-598 1718,-598"/>
</g>
<g id="clust8" class="cluster">
<title>cluster_Web crawler</title>
<polygon fill="#ffffff" stroke="#000000" points="1744,-421 1744,-578 1972,-578 1972,-421 1744,-421"/>
</g>
<g id="clust9" class="cluster">
<title>cluster_Accessibility Code Checker</title>
<polygon fill="#ffffff" stroke="#000000" points="16,-67 16,-165 323,-165 323,-67 16,-67"/>
</g>
<!-- @siteimprove/alfa&#45;formatter -->
<g id="node1" class="node">
<title>@siteimprove/alfa&#45;formatter</title>
<path fill="none" stroke="#000000" d="M590.33,-157C590.33,-157 507.67,-157 507.67,-157 503.83,-157 500,-153.17 500,-149.33 500,-149.33 500,-141.67 500,-141.67 500,-137.83 503.83,-134 507.67,-134 507.67,-134 590.33,-134 590.33,-134 594.17,-134 598,-137.83 598,-141.67 598,-141.67 598,-149.33 598,-149.33 598,-153.17 594.17,-157 590.33,-157"/>
<text text-anchor="middle" x="549" y="-141.8" font-family="Arial" font-size="14.00" fill="#000000">alfa&#45;formatter</text>
</g>
<!-- exit_Formatters -->
<!-- @siteimprove/alfa&#45;formatter&#45;&gt;exit_Formatters -->
<!-- @siteimprove/alfa&#45;assert -->
<g id="node2" class="node">
<title>@siteimprove/alfa&#45;assert</title>
<path fill="none" stroke="#000000" d="M1599.33,-216C1599.33,-216 1534.67,-216 1534.67,-216 1530.83,-216 1527,-212.17 1527,-208.33 1527,-208.33 1527,-200.67 1527,-200.67 1527,-196.83 1530.83,-193 1534.67,-193 1534.67,-193 1599.33,-193 1599.33,-193 1603.17,-193 1607,-196.83 1607,-200.67 1607,-200.67 1607,-208.33 1607,-208.33 1607,-212.17 1603.17,-216 1599.33,-216"/>
<text text-anchor="middle" x="1567" y="-200.8" font-family="Arial" font-size="14.00" fill="#000000">alfa&#45;assert</text>
</g>
<!-- exit_Test frameworks -->
<!-- @siteimprove/alfa&#45;assert&#45;&gt;exit_Test frameworks -->
<!-- @siteimprove/alfa&#45;puppeteer -->
<g id="node3" class="node">
<title>@siteimprove/alfa&#45;puppeteer</title>
<path fill="none" stroke="#000000" d="M1542.33,-393C1542.33,-393 1453.67,-393 1453.67,-393 1449.83,-393 1446,-389.17 1446,-385.33 1446,-385.33 1446,-377.67 1446,-377.67 1446,-373.83 1449.83,-370 1453.67,-370 1453.67,-370 1542.33,-370 1542.33,-370 1546.17,-370 1550,-373.83 1550,-377.67 1550,-377.67 1550,-385.33 1550,-385.33 1550,-389.17 1546.17,-393 1542.33,-393"/>
<text text-anchor="middle" x="1498" y="-377.8" font-family="Arial" font-size="14.00" fill="#000000">alfa&#45;puppeteer</text>
</g>
<!-- exit_Browser automations -->
<!-- @siteimprove/alfa&#45;puppeteer&#45;&gt;exit_Browser automations -->
<!-- exit_Web crawler -->
<!-- name_Integrations with frameworks -->
<g id="node5" class="node">
<title>name_Integrations with frameworks</title>
<path fill="none" stroke="#00ffaa" stroke-width="5" d="M1178.83,-393C1178.83,-393 1005.17,-393 1005.17,-393 1001.33,-393 997.5,-389.17 997.5,-385.33 997.5,-385.33 997.5,-377.67 997.5,-377.67 997.5,-373.83 1001.33,-370 1005.17,-370 1005.17,-370 1178.83,-370 1178.83,-370 1182.67,-370 1186.5,-373.83 1186.5,-377.67 1186.5,-377.67 1186.5,-385.33 1186.5,-385.33 1186.5,-389.17 1182.67,-393 1178.83,-393"/>
<text text-anchor="middle" x="1092" y="-377.8" font-family="Arial" font-size="14.00" fill="#000000">Integrations with frameworks</text>
</g>
<!-- exit_Web crawler&#45;&gt;name_Integrations with frameworks -->
<g id="edge76" class="edge">
<title>exit_Web crawler&#45;&gt;name_Integrations with frameworks</title>
<path fill="none" stroke="#00ff00" d="M1744,-436.66C1572.82,-432.94 1311.21,-425.08 1202,-410.43"/>
<polygon fill="#00ff00" stroke="#00ff00" points="1202.39,-406.95 1192,-409 1201.41,-413.88 1202.39,-406.95"/>
</g>
<!-- exit_Alfa integrations -->
<!-- exit_Web crawler&#45;&gt;exit_Alfa integrations -->
<!-- exit_Web crawler&#45;&gt;exit_Alfa integrations -->
<!-- exit_Web crawler&#45;&gt;exit_Alfa integrations -->
<!-- @siteimprove/alfa&#45;cheerio -->
<g id="node6" class="node">
<title>@siteimprove/alfa&#45;cheerio</title>
<path fill="none" stroke="#000000" d="M1275.83,-216C1275.83,-216 1204.17,-216 1204.17,-216 1200.33,-216 1196.5,-212.17 1196.5,-208.33 1196.5,-208.33 1196.5,-200.67 1196.5,-200.67 1196.5,-196.83 1200.33,-193 1204.17,-193 1204.17,-193 1275.83,-193 1275.83,-193 1279.67,-193 1283.5,-196.83 1283.5,-200.67 1283.5,-200.67 1283.5,-208.33 1283.5,-208.33 1283.5,-212.17 1279.67,-216 1275.83,-216"/>
<text text-anchor="middle" x="1240" y="-200.8" font-family="Arial" font-size="14.00" fill="#000000">alfa&#45;cheerio</text>
</g>
<!-- exit_Components libraries -->
<!-- @siteimprove/alfa&#45;cheerio&#45;&gt;exit_Components libraries -->
<!-- @siteimprove/alfa&#45;command -->
<g id="node7" class="node">
<title>@siteimprove/alfa&#45;command</title>
<path fill="none" stroke="#000000" d="M1822.33,-688C1822.33,-688 1733.67,-688 1733.67,-688 1729.83,-688 1726,-684.17 1726,-680.33 1726,-680.33 1726,-672.67 1726,-672.67 1726,-668.83 1729.83,-665 1733.67,-665 1733.67,-665 1822.33,-665 1822.33,-665 1826.17,-665 1830,-668.83 1830,-672.67 1830,-672.67 1830,-680.33 1830,-680.33 1830,-684.17 1826.17,-688 1822.33,-688"/>
<text text-anchor="middle" x="1778" y="-672.8" font-family="Arial" font-size="14.00" fill="#000000">alfa&#45;command</text>
</g>
<!-- exit_Command line -->
<!-- @siteimprove/alfa&#45;command&#45;&gt;exit_Command line -->
<!-- name_Formatters -->
<g id="node9" class="node">
<title>name_Formatters</title>
<path fill="none" stroke="#ff0000" stroke-width="5" d="M849.83,-216C849.83,-216 782.17,-216 782.17,-216 778.33,-216 774.5,-212.17 774.5,-208.33 774.5,-208.33 774.5,-200.67 774.5,-200.67 774.5,-196.83 778.33,-193 782.17,-193 782.17,-193 849.83,-193 849.83,-193 853.67,-193 857.5,-196.83 857.5,-200.67 857.5,-200.67 857.5,-208.33 857.5,-208.33 857.5,-212.17 853.67,-216 849.83,-216"/>
<text text-anchor="middle" x="816" y="-200.8" font-family="Arial" font-size="14.00" fill="#000000">Formatters</text>
</g>
<!-- exit_Command line&#45;&gt;name_Formatters -->
<g id="edge83" class="edge">
<title>exit_Command line&#45;&gt;name_Formatters</title>
<path fill="none" stroke="#ff00aa" d="M1718,-614.76C1410.79,-609.39 841,-587.69 841,-500.5 841,-500.5 841,-500.5 841,-321.5 841,-287.35 830.52,-248.8 823.13,-225.85"/>
<polygon fill="#ff00aa" stroke="#ff00aa" points="830.34,-230.42 821.91,-224 824.5,-234.27 830.34,-230.42"/>
</g>
<!-- name_Web crawler -->
<g id="node12" class="node">
<title>name_Web crawler</title>
<path fill="none" stroke="#00ff00" stroke-width="5" d="M1951.33,-570C1951.33,-570 1874.67,-570 1874.67,-570 1870.83,-570 1867,-566.17 1867,-562.33 1867,-562.33 1867,-554.67 1867,-554.67 1867,-550.83 1870.83,-547 1874.67,-547 1874.67,-547 1951.33,-547 1951.33,-547 1955.17,-547 1959,-550.83 1959,-554.67 1959,-554.67 1959,-562.33 1959,-562.33 1959,-566.17 1955.17,-570 1951.33,-570"/>
<text text-anchor="middle" x="1913" y="-554.8" font-family="Arial" font-size="14.00" fill="#000000">Web crawler</text>
</g>
<!-- exit_Command line&#45;&gt;name_Web crawler -->
<g id="edge86" class="edge">
<title>exit_Command line&#45;&gt;name_Web crawler</title>
<path fill="none" stroke="#ff00aa" d="M1910.3,-598C1910.69,-592.35 1911.13,-586.1 1911.54,-580.31"/>
<polygon fill="#ff00aa" stroke="#ff00aa" points="1912.65,-588.59 1912.25,-578 1905.96,-586.53 1912.65,-588.59"/>
</g>
<!-- exit_Command line&#45;&gt;exit_Alfa integrations -->
<!-- exit_Command line&#45;&gt;exit_Alfa integrations -->
<!-- exit_Command line&#45;&gt;exit_Alfa integrations -->
<!-- @siteimprove/alfa&#45;interviewer -->
<g id="node10" class="node">
<title>@siteimprove/alfa&#45;interviewer</title>
<path fill="none" stroke="#000000" d="M1968.33,-688C1968.33,-688 1875.67,-688 1875.67,-688 1871.83,-688 1868,-684.17 1868,-680.33 1868,-680.33 1868,-672.67 1868,-672.67 1868,-668.83 1871.83,-665 1875.67,-665 1875.67,-665 1968.33,-665 1968.33,-665 1972.17,-665 1976,-668.83 1976,-672.67 1976,-672.67 1976,-680.33 1976,-680.33 1976,-684.17 1972.17,-688 1968.33,-688"/>
<text text-anchor="middle" x="1922" y="-672.8" font-family="Arial" font-size="14.00" fill="#000000">alfa&#45;interviewer</text>
</g>
<!-- @siteimprove/alfa&#45;interviewer&#45;&gt;exit_Command line -->
<!-- @siteimprove/alfa&#45;scraper -->
<g id="node11" class="node">
<title>@siteimprove/alfa&#45;scraper</title>
<path fill="none" stroke="#000000" d="M1956.33,-511C1956.33,-511 1883.67,-511 1883.67,-511 1879.83,-511 1876,-507.17 1876,-503.33 1876,-503.33 1876,-495.67 1876,-495.67 1876,-491.83 1879.83,-488 1883.67,-488 1883.67,-488 1956.33,-488 1956.33,-488 1960.17,-488 1964,-491.83 1964,-495.67 1964,-495.67 1964,-503.33 1964,-503.33 1964,-507.17 1960.17,-511 1956.33,-511"/>
<text text-anchor="middle" x="1920" y="-495.8" font-family="Arial" font-size="14.00" fill="#000000">alfa&#45;scraper</text>
</g>
<!-- @siteimprove/alfa&#45;scraper&#45;&gt;exit_Web crawler -->
<!-- @siteimprove/alfa&#45;frontier -->
<g id="node13" class="node">
<title>@siteimprove/alfa&#45;frontier</title>
<path fill="none" stroke="#000000" d="M1829.83,-511C1829.83,-511 1760.17,-511 1760.17,-511 1756.33,-511 1752.5,-507.17 1752.5,-503.33 1752.5,-503.33 1752.5,-495.67 1752.5,-495.67 1752.5,-491.83 1756.33,-488 1760.17,-488 1760.17,-488 1829.83,-488 1829.83,-488 1833.67,-488 1837.5,-491.83 1837.5,-495.67 1837.5,-495.67 1837.5,-503.33 1837.5,-503.33 1837.5,-507.17 1833.67,-511 1829.83,-511"/>
<text text-anchor="middle" x="1795" y="-495.8" font-family="Arial" font-size="14.00" fill="#000000">alfa&#45;frontier</text>
</g>
<!-- @siteimprove/alfa&#45;frontier&#45;&gt;exit_Web crawler -->
<!-- name_Test frameworks -->
<g id="node15" class="node">
<title>name_Test frameworks</title>
<path fill="none" stroke="#aaff00" stroke-width="5" d="M1916.33,-275C1916.33,-275 1815.67,-275 1815.67,-275 1811.83,-275 1808,-271.17 1808,-267.33 1808,-267.33 1808,-259.67 1808,-259.67 1808,-255.83 1811.83,-252 1815.67,-252 1815.67,-252 1916.33,-252 1916.33,-252 1920.17,-252 1924,-255.83 1924,-259.67 1924,-259.67 1924,-267.33 1924,-267.33 1924,-271.17 1920.17,-275 1916.33,-275"/>
<text text-anchor="middle" x="1866" y="-259.8" font-family="Arial" font-size="14.00" fill="#000000">Test frameworks</text>
</g>
<!-- exit_Browser automations&#45;&gt;name_Test frameworks -->
<g id="edge99" class="edge">
<title>exit_Browser automations&#45;&gt;name_Test frameworks</title>
<path fill="none" stroke="#00aaff" d="M1854.52,-303C1856.23,-297.26 1858.13,-290.89 1859.88,-285.02"/>
<polygon fill="#00aaff" stroke="#00aaff" points="1859.79,-293.54 1860.82,-283 1853.44,-290.6 1859.79,-293.54"/>
</g>
<!-- exit_Integrations with frameworks -->
<!-- exit_Browser automations&#45;&gt;exit_Integrations with frameworks -->
<!-- exit_Browser automations&#45;&gt;exit_Integrations with frameworks -->
<!-- exit_Browser automations&#45;&gt;exit_Integrations with frameworks -->
<!-- exit_Browser automations&#45;&gt;exit_Integrations with frameworks -->
<!-- exit_Browser automations&#45;&gt;exit_Integrations with frameworks -->
<!-- exit_Integrations with frameworks&#45;&gt;name_Formatters -->
<g id="edge100" class="edge">
<title>exit_Integrations with frameworks&#45;&gt;name_Formatters</title>
<path fill="none" stroke="#00ffaa" d="M874,-122.62C872,-123.25 870,-123.88 868,-124.5"/>
<polygon fill="#00ffaa" stroke="#00ffaa" points="874.49,-118.8 866,-125.13 876.58,-125.48 874.49,-118.8"/>
</g>
<!-- exit_Integrations with frameworks&#45;&gt;name_Formatters -->
<!-- exit_Integrations with frameworks&#45;&gt;exit_Alfa integrations -->
<!-- exit_Integrations with frameworks&#45;&gt;exit_Alfa integrations -->
<!-- exit_Integrations with frameworks&#45;&gt;exit_Alfa integrations -->
<!-- exit_Integrations with frameworks&#45;&gt;exit_Alfa integrations -->
<!-- exit_Integrations with frameworks&#45;&gt;exit_Alfa integrations -->
<!-- exit_Integrations with frameworks&#45;&gt;exit_Alfa integrations -->
<!-- exit_Integrations with frameworks&#45;&gt;exit_Alfa integrations -->
<!-- exit_Integrations with frameworks&#45;&gt;exit_Alfa integrations -->
<!-- exit_Integrations with frameworks&#45;&gt;exit_Alfa integrations -->
<!-- exit_Integrations with frameworks&#45;&gt;exit_Alfa integrations -->
<!-- exit_Integrations with frameworks&#45;&gt;exit_Alfa integrations -->
<!-- exit_Integrations with frameworks&#45;&gt;exit_Alfa integrations -->
<!-- exit_Integrations with frameworks&#45;&gt;exit_Alfa integrations -->
<!-- exit_Integrations with frameworks&#45;&gt;exit_Alfa integrations -->
<!-- exit_Integrations with frameworks&#45;&gt;exit_Alfa integrations -->
<!-- exit_Integrations with frameworks&#45;&gt;exit_Alfa integrations -->
<!-- @siteimprove/alfa&#45;formatter&#45;earl -->
<g id="node17" class="node">
<title>@siteimprove/alfa&#45;formatter&#45;earl</title>
<path fill="none" stroke="#000000" d="M748.83,-216C748.83,-216 639.17,-216 639.17,-216 635.33,-216 631.5,-212.17 631.5,-208.33 631.5,-208.33 631.5,-200.67 631.5,-200.67 631.5,-196.83 635.33,-193 639.17,-193 639.17,-193 748.83,-193 748.83,-193 752.67,-193 756.5,-196.83 756.5,-200.67 756.5,-200.67 756.5,-208.33 756.5,-208.33 756.5,-212.17 752.67,-216 748.83,-216"/>
<text text-anchor="middle" x="694" y="-200.8" font-family="Arial" font-size="14.00" fill="#000000">alfa&#45;formatter&#45;earl</text>
</g>
<!-- @siteimprove/alfa&#45;formatter&#45;earl&#45;&gt;@siteimprove/alfa&#45;formatter -->
<!-- @siteimprove/alfa&#45;formatter&#45;earl&#45;&gt;@siteimprove/alfa&#45;formatter -->
<g id="edge71" class="edge">
<title>@siteimprove/alfa&#45;formatter&#45;earl&#45;&gt;@siteimprove/alfa&#45;formatter</title>
<path fill="none" stroke="black" d="M672.45,-192.91C650.88,-183.79 617.39,-170.56 590.67,-160.56"/>
<polygon fill="black" stroke="black" points="591.76,-157.23 581.17,-157.03 589.33,-163.79 591.76,-157.23"/>
</g>
<!-- @siteimprove/alfa&#45;formatter&#45;earl&#45;&gt;exit_Formatters -->
<!-- exit_Formatters&#45;&gt;exit_Alfa integrations -->
<!-- exit_Formatters&#45;&gt;exit_Alfa integrations -->
<!-- exit_Formatters&#45;&gt;exit_Alfa integrations -->
<!-- exit_Formatters&#45;&gt;exit_Alfa integrations -->
<!-- @siteimprove/alfa&#45;formatter&#45;sarif -->
<g id="node20" class="node">
<title>@siteimprove/alfa&#45;formatter&#45;sarif</title>
<path fill="none" stroke="#000000" d="M605.33,-216C605.33,-216 492.67,-216 492.67,-216 488.83,-216 485,-212.17 485,-208.33 485,-208.33 485,-200.67 485,-200.67 485,-196.83 488.83,-193 492.67,-193 492.67,-193 605.33,-193 605.33,-193 609.17,-193 613,-196.83 613,-200.67 613,-200.67 613,-208.33 613,-208.33 613,-212.17 609.17,-216 605.33,-216"/>
<text text-anchor="middle" x="549" y="-200.8" font-family="Arial" font-size="14.00" fill="#000000">alfa&#45;formatter&#45;sarif</text>
</g>
<!-- @siteimprove/alfa&#45;formatter&#45;sarif&#45;&gt;@siteimprove/alfa&#45;formatter -->
<!-- @siteimprove/alfa&#45;formatter&#45;sarif&#45;&gt;@siteimprove/alfa&#45;formatter -->
<g id="edge88" class="edge">
<title>@siteimprove/alfa&#45;formatter&#45;sarif&#45;&gt;@siteimprove/alfa&#45;formatter</title>
<path fill="none" stroke="black" d="M554.41,-192.78C555.67,-185.61 556.04,-175.95 555.53,-167.31"/>
<polygon fill="black" stroke="black" points="558.98,-166.73 554.4,-157.17 552.03,-167.5 558.98,-166.73"/>
</g>
<!-- @siteimprove/alfa&#45;formatter&#45;sarif&#45;&gt;exit_Formatters -->
<!-- @siteimprove/alfa&#45;formatter&#45;json -->
<g id="node21" class="node">
<title>@siteimprove/alfa&#45;formatter&#45;json</title>
<path fill="none" stroke="#000000" d="M458.83,-216C458.83,-216 347.17,-216 347.17,-216 343.33,-216 339.5,-212.17 339.5,-208.33 339.5,-208.33 339.5,-200.67 339.5,-200.67 339.5,-196.83 343.33,-193 347.17,-193 347.17,-193 458.83,-193 458.83,-193 462.67,-193 466.5,-196.83 466.5,-200.67 466.5,-200.67 466.5,-208.33 466.5,-208.33 466.5,-212.17 462.67,-216 458.83,-216"/>
<text text-anchor="middle" x="403" y="-200.8" font-family="Arial" font-size="14.00" fill="#000000">alfa&#45;formatter&#45;json</text>
</g>
<!-- @siteimprove/alfa&#45;formatter&#45;json&#45;&gt;@siteimprove/alfa&#45;formatter -->
<!-- @siteimprove/alfa&#45;formatter&#45;json&#45;&gt;@siteimprove/alfa&#45;formatter -->
<g id="edge96" class="edge">
<title>@siteimprove/alfa&#45;formatter&#45;json&#45;&gt;@siteimprove/alfa&#45;formatter</title>
<path fill="none" stroke="black" d="M435.51,-192.91C460.15,-183.91 493.66,-170.91 517.94,-160.95"/>
<polygon fill="black" stroke="black" points="519.51,-164.09 527.4,-157.03 516.83,-157.63 519.51,-164.09"/>
</g>
<!-- @siteimprove/alfa&#45;formatter&#45;json&#45;&gt;exit_Formatters -->
<!-- @siteimprove/alfa&#45;jquery -->
<g id="node22" class="node">
<title>@siteimprove/alfa&#45;jquery</title>
<path fill="none" stroke="#000000" d="M954.33,-157C954.33,-157 889.67,-157 889.67,-157 885.83,-157 882,-153.17 882,-149.33 882,-149.33 882,-141.67 882,-141.67 882,-137.83 885.83,-134 889.67,-134 889.67,-134 954.33,-134 954.33,-134 958.17,-134 962,-137.83 962,-141.67 962,-141.67 962,-149.33 962,-149.33 962,-153.17 958.17,-157 954.33,-157"/>
<text text-anchor="middle" x="922" y="-141.8" font-family="Arial" font-size="14.00" fill="#000000">alfa&#45;jquery</text>
</g>
<!-- @siteimprove/alfa&#45;jquery&#45;&gt;exit_Integrations with frameworks -->
<!-- exit_Test frameworks&#45;&gt;exit_Integrations with frameworks -->
<!-- exit_Test frameworks&#45;&gt;exit_Integrations with frameworks -->
<!-- exit_Test frameworks&#45;&gt;exit_Integrations with frameworks -->
<!-- exit_Test frameworks&#45;&gt;exit_Integrations with frameworks -->
<!-- exit_Test frameworks&#45;&gt;exit_Integrations with frameworks -->
<!-- exit_Test frameworks&#45;&gt;exit_Integrations with frameworks -->
<!-- @siteimprove/alfa&#45;vitest -->
<g id="node24" class="node">
<title>@siteimprove/alfa&#45;vitest</title>
<path fill="none" stroke="#000000" d="M1782.33,-275C1782.33,-275 1723.67,-275 1723.67,-275 1719.83,-275 1716,-271.17 1716,-267.33 1716,-267.33 1716,-259.67 1716,-259.67 1716,-255.83 1719.83,-252 1723.67,-252 1723.67,-252 1782.33,-252 1782.33,-252 1786.17,-252 1790,-255.83 1790,-259.67 1790,-259.67 1790,-267.33 1790,-267.33 1790,-271.17 1786.17,-275 1782.33,-275"/>
<text text-anchor="middle" x="1753" y="-259.8" font-family="Arial" font-size="14.00" fill="#000000">alfa&#45;vitest</text>
</g>
<!-- @siteimprove/alfa&#45;vitest&#45;&gt;@siteimprove/alfa&#45;assert -->
<!-- @siteimprove/alfa&#45;vitest&#45;&gt;@siteimprove/alfa&#45;assert -->
<g id="edge73" class="edge">
<title>@siteimprove/alfa&#45;vitest&#45;&gt;@siteimprove/alfa&#45;assert</title>
<path fill="none" stroke="black" d="M1723.84,-251.91C1695.09,-242.59 1650.81,-228.98 1616.56,-218.9"/>
<polygon fill="black" stroke="black" points="1617.32,-215.48 1606.74,-216.03 1615.36,-222.2 1617.32,-215.48"/>
</g>
<!-- @siteimprove/alfa&#45;vitest&#45;&gt;exit_Test frameworks -->
<!-- @siteimprove/alfa&#45;chai -->
<g id="node25" class="node">
<title>@siteimprove/alfa&#45;chai</title>
<path fill="none" stroke="#000000" d="M1690.33,-275C1690.33,-275 1637.67,-275 1637.67,-275 1633.83,-275 1630,-271.17 1630,-267.33 1630,-267.33 1630,-259.67 1630,-259.67 1630,-255.83 1633.83,-252 1637.67,-252 1637.67,-252 1690.33,-252 1690.33,-252 1694.17,-252 1698,-255.83 1698,-259.67 1698,-259.67 1698,-267.33 1698,-267.33 1698,-271.17 1694.17,-275 1690.33,-275"/>
<text text-anchor="middle" x="1664" y="-259.8" font-family="Arial" font-size="14.00" fill="#000000">alfa&#45;chai</text>
</g>
<!-- @siteimprove/alfa&#45;chai&#45;&gt;@siteimprove/alfa&#45;assert -->
<!-- @siteimprove/alfa&#45;chai&#45;&gt;@siteimprove/alfa&#45;assert -->
<g id="edge75" class="edge">
<title>@siteimprove/alfa&#45;chai&#45;&gt;@siteimprove/alfa&#45;assert</title>
<path fill="none" stroke="black" d="M1651.17,-251.78C1637.92,-243.1 1617.15,-230.76 1599.47,-221.01"/>
<polygon fill="black" stroke="black" points="1601.02,-217.87 1590.57,-216.17 1597.69,-224.02 1601.02,-217.87"/>
</g>
<!-- @siteimprove/alfa&#45;chai&#45;&gt;exit_Test frameworks -->
<!-- @siteimprove/alfa&#45;jasmine -->
<g id="node26" class="node">
<title>@siteimprove/alfa&#45;jasmine</title>
<path fill="none" stroke="#000000" d="M1604.33,-275C1604.33,-275 1529.67,-275 1529.67,-275 1525.83,-275 1522,-271.17 1522,-267.33 1522,-267.33 1522,-259.67 1522,-259.67 1522,-255.83 1525.83,-252 1529.67,-252 1529.67,-252 1604.33,-252 1604.33,-252 1608.17,-252 1612,-255.83 1612,-259.67 1612,-259.67 1612,-267.33 1612,-267.33 1612,-271.17 1608.17,-275 1604.33,-275"/>
<text text-anchor="middle" x="1567" y="-259.8" font-family="Arial" font-size="14.00" fill="#000000">alfa&#45;jasmine</text>
</g>
<!-- @siteimprove/alfa&#45;jasmine&#45;&gt;@siteimprove/alfa&#45;assert -->
<!-- @siteimprove/alfa&#45;jasmine&#45;&gt;@siteimprove/alfa&#45;assert -->
<g id="edge80" class="edge">
<title>@siteimprove/alfa&#45;jasmine&#45;&gt;@siteimprove/alfa&#45;assert</title>
<path fill="none" stroke="black" d="M1572.41,-251.78C1573.67,-244.61 1574.04,-234.95 1573.53,-226.31"/>
<polygon fill="black" stroke="black" points="1576.98,-225.73 1572.4,-216.17 1570.03,-226.5 1576.98,-225.73"/>
</g>
<!-- @siteimprove/alfa&#45;jasmine&#45;&gt;exit_Test frameworks -->
<!-- @siteimprove/alfa&#45;unexpected -->
<g id="node27" class="node">
<title>@siteimprove/alfa&#45;unexpected</title>
<path fill="none" stroke="#000000" d="M1495.83,-275C1495.83,-275 1398.17,-275 1398.17,-275 1394.33,-275 1390.5,-271.17 1390.5,-267.33 1390.5,-267.33 1390.5,-259.67 1390.5,-259.67 1390.5,-255.83 1394.33,-252 1398.17,-252 1398.17,-252 1495.83,-252 1495.83,-252 1499.67,-252 1503.5,-255.83 1503.5,-259.67 1503.5,-259.67 1503.5,-267.33 1503.5,-267.33 1503.5,-271.17 1499.67,-275 1495.83,-275"/>
<text text-anchor="middle" x="1447" y="-259.8" font-family="Arial" font-size="14.00" fill="#000000">alfa&#45;unexpected</text>
</g>
<!-- @siteimprove/alfa&#45;unexpected&#45;&gt;@siteimprove/alfa&#45;assert -->
<!-- @siteimprove/alfa&#45;unexpected&#45;&gt;@siteimprove/alfa&#45;assert -->
<g id="edge94" class="edge">
<title>@siteimprove/alfa&#45;unexpected&#45;&gt;@siteimprove/alfa&#45;assert</title>
<path fill="none" stroke="black" d="M1474.68,-251.91C1494.76,-243.11 1521.57,-230.49 1541.2,-220.62"/>
<polygon fill="black" stroke="black" points="1542.89,-223.69 1550.21,-216.03 1539.71,-217.46 1542.89,-223.69"/>
</g>
<!-- @siteimprove/alfa&#45;unexpected&#45;&gt;exit_Test frameworks -->
<!-- @siteimprove/alfa&#45;jest -->
<g id="node28" class="node">
<title>@siteimprove/alfa&#45;jest</title>
<path fill="none" stroke="#000000" d="M1364.33,-275C1364.33,-275 1315.67,-275 1315.67,-275 1311.83,-275 1308,-271.17 1308,-267.33 1308,-267.33 1308,-259.67 1308,-259.67 1308,-255.83 1311.83,-252 1315.67,-252 1315.67,-252 1364.33,-252 1364.33,-252 1368.17,-252 1372,-255.83 1372,-259.67 1372,-259.67 1372,-267.33 1372,-267.33 1372,-271.17 1368.17,-275 1364.33,-275"/>
<text text-anchor="middle" x="1340" y="-259.8" font-family="Arial" font-size="14.00" fill="#000000">alfa&#45;jest</text>
</g>
<!-- @siteimprove/alfa&#45;jest&#45;&gt;@siteimprove/alfa&#45;assert -->
<!-- @siteimprove/alfa&#45;jest&#45;&gt;@siteimprove/alfa&#45;assert -->
<g id="edge98" class="edge">
<title>@siteimprove/alfa&#45;jest&#45;&gt;@siteimprove/alfa&#45;assert</title>
<path fill="none" stroke="black" d="M1372.45,-255.51C1411.29,-246.35 1476.35,-230.12 1520.5,-218.63"/>
<polygon fill="black" stroke="black" points="1521.62,-221.95 1530.41,-216.04 1519.85,-215.18 1521.62,-221.95"/>
</g>
<!-- @siteimprove/alfa&#45;jest&#45;&gt;exit_Test frameworks -->
<!-- name_Browser automations -->
<g id="node29" class="node">
<title>name_Browser automations</title>
<path fill="none" stroke="#00aaff" stroke-width="5" d="M1812.33,-393C1812.33,-393 1683.67,-393 1683.67,-393 1679.83,-393 1676,-389.17 1676,-385.33 1676,-385.33 1676,-377.67 1676,-377.67 1676,-373.83 1679.83,-370 1683.67,-370 1683.67,-370 1812.33,-370 1812.33,-370 1816.17,-370 1820,-373.83 1820,-377.67 1820,-377.67 1820,-385.33 1820,-385.33 1820,-389.17 1816.17,-393 1812.33,-393"/>
<text text-anchor="middle" x="1748" y="-377.8" font-family="Arial" font-size="14.00" fill="#000000">Browser automations</text>
</g>
<!-- @siteimprove/alfa&#45;playwright -->
<g id="node30" class="node">
<title>@siteimprove/alfa&#45;playwright</title>
<path fill="none" stroke="#000000" d="M1420.33,-393C1420.33,-393 1331.67,-393 1331.67,-393 1327.83,-393 1324,-389.17 1324,-385.33 1324,-385.33 1324,-377.67 1324,-377.67 1324,-373.83 1327.83,-370 1331.67,-370 1331.67,-370 1420.33,-370 1420.33,-370 1424.17,-370 1428,-373.83 1428,-377.67 1428,-377.67 1428,-385.33 1428,-385.33 1428,-389.17 1424.17,-393 1420.33,-393"/>
<text text-anchor="middle" x="1376" y="-377.8" font-family="Arial" font-size="14.00" fill="#000000">alfa&#45;playwright</text>
</g>
<!-- @siteimprove/alfa&#45;playwright&#45;&gt;exit_Browser automations -->
<!-- @siteimprove/alfa&#45;webdriver -->
<g id="node31" class="node">
<title>@siteimprove/alfa&#45;webdriver</title>
<path fill="none" stroke="#000000" d="M1297.83,-393C1297.83,-393 1212.17,-393 1212.17,-393 1208.33,-393 1204.5,-389.17 1204.5,-385.33 1204.5,-385.33 1204.5,-377.67 1204.5,-377.67 1204.5,-373.83 1208.33,-370 1212.17,-370 1212.17,-370 1297.83,-370 1297.83,-370 1301.67,-370 1305.5,-373.83 1305.5,-377.67 1305.5,-377.67 1305.5,-385.33 1305.5,-385.33 1305.5,-389.17 1301.67,-393 1297.83,-393"/>
<text text-anchor="middle" x="1255" y="-377.8" font-family="Arial" font-size="14.00" fill="#000000">alfa&#45;webdriver</text>
</g>
<!-- @siteimprove/alfa&#45;webdriver&#45;&gt;exit_Browser automations -->
<!-- @siteimprove/alfa&#45;selenium -->
<g id="node32" class="node">
<title>@siteimprove/alfa&#45;selenium</title>
<path fill="none" stroke="#000000" d="M1928.33,-393C1928.33,-393 1845.67,-393 1845.67,-393 1841.83,-393 1838,-389.17 1838,-385.33 1838,-385.33 1838,-377.67 1838,-377.67 1838,-373.83 1841.83,-370 1845.67,-370 1845.67,-370 1928.33,-370 1928.33,-370 1932.17,-370 1936,-373.83 1936,-377.67 1936,-377.67 1936,-385.33 1936,-385.33 1936,-389.17 1932.17,-393 1928.33,-393"/>
<text text-anchor="middle" x="1887" y="-377.8" font-family="Arial" font-size="14.00" fill="#000000">alfa&#45;selenium</text>
</g>
<!-- @siteimprove/alfa&#45;selenium&#45;&gt;exit_Browser automations -->
<!-- @siteimprove/alfa&#45;cypress -->
<g id="node33" class="node">
<title>@siteimprove/alfa&#45;cypress</title>
<path fill="none" stroke="#000000" d="M1649.83,-393C1649.83,-393 1576.17,-393 1576.17,-393 1572.33,-393 1568.5,-389.17 1568.5,-385.33 1568.5,-385.33 1568.5,-377.67 1568.5,-377.67 1568.5,-373.83 1572.33,-370 1576.17,-370 1576.17,-370 1649.83,-370 1649.83,-370 1653.67,-370 1657.5,-373.83 1657.5,-377.67 1657.5,-377.67 1657.5,-385.33 1657.5,-385.33 1657.5,-389.17 1653.67,-393 1649.83,-393"/>
<text text-anchor="middle" x="1613" y="-377.8" font-family="Arial" font-size="14.00" fill="#000000">alfa&#45;cypress</text>
</g>
<!-- @siteimprove/alfa&#45;cypress&#45;&gt;exit_Browser automations -->
<!-- name_Components libraries -->
<g id="node34" class="node">
<title>name_Components libraries</title>
<path fill="none" stroke="#ffaa00" stroke-width="5" d="M1275.83,-275C1275.83,-275 1146.17,-275 1146.17,-275 1142.33,-275 1138.5,-271.17 1138.5,-267.33 1138.5,-267.33 1138.5,-259.67 1138.5,-259.67 1138.5,-255.83 1142.33,-252 1146.17,-252 1146.17,-252 1275.83,-252 1275.83,-252 1279.67,-252 1283.5,-255.83 1283.5,-259.67 1283.5,-259.67 1283.5,-267.33 1283.5,-267.33 1283.5,-271.17 1279.67,-275 1275.83,-275"/>
<text text-anchor="middle" x="1211" y="-259.8" font-family="Arial" font-size="14.00" fill="#000000">Components libraries</text>
</g>
<!-- exit_Components libraries&#45;&gt;exit_Integrations with frameworks -->
<!-- exit_Components libraries&#45;&gt;exit_Integrations with frameworks -->
<!-- exit_Components libraries&#45;&gt;exit_Integrations with frameworks -->
<!-- exit_Components libraries&#45;&gt;exit_Integrations with frameworks -->
<!-- @siteimprove/alfa&#45;angular -->
<g id="node36" class="node">
<title>@siteimprove/alfa&#45;angular</title>
<path fill="none" stroke="#000000" d="M1150.33,-216C1150.33,-216 1077.67,-216 1077.67,-216 1073.83,-216 1070,-212.17 1070,-208.33 1070,-208.33 1070,-200.67 1070,-200.67 1070,-196.83 1073.83,-193 1077.67,-193 1077.67,-193 1150.33,-193 1150.33,-193 1154.17,-193 1158,-196.83 1158,-200.67 1158,-200.67 1158,-208.33 1158,-208.33 1158,-212.17 1154.17,-216 1150.33,-216"/>
<text text-anchor="middle" x="1114" y="-200.8" font-family="Arial" font-size="14.00" fill="#000000">alfa&#45;angular</text>
</g>
<!-- @siteimprove/alfa&#45;angular&#45;&gt;exit_Components libraries -->
<!-- @siteimprove/alfa&#45;react -->
<g id="node37" class="node">
<title>@siteimprove/alfa&#45;react</title>
<path fill="none" stroke="#000000" d="M1043.83,-216C1043.83,-216 986.17,-216 986.17,-216 982.33,-216 978.5,-212.17 978.5,-208.33 978.5,-208.33 978.5,-200.67 978.5,-200.67 978.5,-196.83 982.33,-193 986.17,-193 986.17,-193 1043.83,-193 1043.83,-193 1047.67,-193 1051.5,-196.83 1051.5,-200.67 1051.5,-200.67 1051.5,-208.33 1051.5,-208.33 1051.5,-212.17 1047.67,-216 1043.83,-216"/>
<text text-anchor="middle" x="1015" y="-200.8" font-family="Arial" font-size="14.00" fill="#000000">alfa&#45;react</text>
</g>
<!-- @siteimprove/alfa&#45;react&#45;&gt;exit_Components libraries -->
<!-- @siteimprove/alfa&#45;vue -->
<g id="node38" class="node">
<title>@siteimprove/alfa&#45;vue</title>
<path fill="none" stroke="#000000" d="M1112.83,-275C1112.83,-275 1063.17,-275 1063.17,-275 1059.33,-275 1055.5,-271.17 1055.5,-267.33 1055.5,-267.33 1055.5,-259.67 1055.5,-259.67 1055.5,-255.83 1059.33,-252 1063.17,-252 1063.17,-252 1112.83,-252 1112.83,-252 1116.67,-252 1120.5,-255.83 1120.5,-259.67 1120.5,-259.67 1120.5,-267.33 1120.5,-267.33 1120.5,-271.17 1116.67,-275 1112.83,-275"/>
<text text-anchor="middle" x="1088" y="-259.8" font-family="Arial" font-size="14.00" fill="#000000">alfa&#45;vue</text>
</g>
<!-- @siteimprove/alfa&#45;vue&#45;&gt;@siteimprove/alfa&#45;cheerio -->
<!-- @siteimprove/alfa&#45;vue&#45;&gt;@siteimprove/alfa&#45;cheerio -->
<g id="edge78" class="edge">
<title>@siteimprove/alfa&#45;vue&#45;&gt;@siteimprove/alfa&#45;cheerio</title>
<path fill="none" stroke="black" d="M1120.87,-252.18C1146.53,-243.17 1181.84,-230.01 1207.42,-219.95"/>
<polygon fill="black" stroke="black" points="1209.04,-223.08 1217.04,-216.13 1206.46,-216.57 1209.04,-223.08"/>
</g>
<!-- @siteimprove/alfa&#45;vue&#45;&gt;exit_Components libraries -->
<!-- name_Command line -->
<g id="node39" class="node">
<title>name_Command line</title>
<path fill="none" stroke="#ff00aa" stroke-width="5" d="M1967.83,-747C1967.83,-747 1878.17,-747 1878.17,-747 1874.33,-747 1870.5,-743.17 1870.5,-739.33 1870.5,-739.33 1870.5,-731.67 1870.5,-731.67 1870.5,-727.83 1874.33,-724 1878.17,-724 1878.17,-724 1967.83,-724 1967.83,-724 1971.67,-724 1975.5,-727.83 1975.5,-731.67 1975.5,-731.67 1975.5,-739.33 1975.5,-739.33 1975.5,-743.17 1971.67,-747 1967.83,-747"/>
<text text-anchor="middle" x="1923" y="-731.8" font-family="Arial" font-size="14.00" fill="#000000">Command line</text>
</g>
<!-- @siteimprove/alfa&#45;cli -->
<g id="node40" class="node">
<title>@siteimprove/alfa&#45;cli</title>
<path fill="none" stroke="#000000" d="M1844.33,-747C1844.33,-747 1803.67,-747 1803.67,-747 1799.83,-747 1796,-743.17 1796,-739.33 1796,-739.33 1796,-731.67 1796,-731.67 1796,-727.83 1799.83,-724 1803.67,-724 1803.67,-724 1844.33,-724 1844.33,-724 1848.17,-724 1852,-727.83 1852,-731.67 1852,-731.67 1852,-739.33 1852,-739.33 1852,-743.17 1848.17,-747 1844.33,-747"/>
<text text-anchor="middle" x="1824" y="-731.8" font-family="Arial" font-size="14.00" fill="#000000">alfa&#45;cli</text>
</g>
<!-- @siteimprove/alfa&#45;cli&#45;&gt;@siteimprove/alfa&#45;command -->
<!-- @siteimprove/alfa&#45;cli&#45;&gt;@siteimprove/alfa&#45;command -->
<g id="edge82" class="edge">
<title>@siteimprove/alfa&#45;cli&#45;&gt;@siteimprove/alfa&#45;command</title>
<path fill="none" stroke="black" d="M1820.76,-723.78C1815.78,-715.9 1807.29,-704.99 1799.08,-695.75"/>
<polygon fill="black" stroke="black" points="1801.39,-693.1 1792.02,-688.17 1796.27,-697.88 1801.39,-693.1"/>
</g>
<!-- @siteimprove/alfa&#45;cli&#45;&gt;exit_Command line -->
<!-- @siteimprove/alfa&#45;cli&#45;&gt;@siteimprove/alfa&#45;interviewer -->
<!-- @siteimprove/alfa&#45;cli&#45;&gt;@siteimprove/alfa&#45;interviewer -->
<g id="edge85" class="edge">
<title>@siteimprove/alfa&#45;cli&#45;&gt;@siteimprove/alfa&#45;interviewer</title>
<path fill="none" stroke="black" d="M1847.59,-723.91C1863.83,-715.35 1885.02,-703.17 1900.73,-693.44"/>
<polygon fill="black" stroke="black" points="1902.69,-696.34 1909.27,-688.03 1898.95,-690.42 1902.69,-696.34"/>
</g>
<!-- @siteimprove/alfa&#45;crawler -->
<g id="node41" class="node">
<title>@siteimprove/alfa&#45;crawler</title>
<path fill="none" stroke="#000000" d="M1841.33,-570C1841.33,-570 1770.67,-570 1770.67,-570 1766.83,-570 1763,-566.17 1763,-562.33 1763,-562.33 1763,-554.67 1763,-554.67 1763,-550.83 1766.83,-547 1770.67,-547 1770.67,-547 1841.33,-547 1841.33,-547 1845.17,-547 1849,-550.83 1849,-554.67 1849,-554.67 1849,-562.33 1849,-562.33 1849,-566.17 1845.17,-570 1841.33,-570"/>
<text text-anchor="middle" x="1806" y="-554.8" font-family="Arial" font-size="14.00" fill="#000000">alfa&#45;crawler</text>
</g>
<!-- @siteimprove/alfa&#45;crawler&#45;&gt;exit_Web crawler -->
<!-- @siteimprove/alfa&#45;crawler&#45;&gt;@siteimprove/alfa&#45;scraper -->
<!-- @siteimprove/alfa&#45;crawler&#45;&gt;@siteimprove/alfa&#45;scraper -->
<g id="edge92" class="edge">
<title>@siteimprove/alfa&#45;crawler&#45;&gt;@siteimprove/alfa&#45;scraper</title>
<path fill="none" stroke="black" d="M1832.56,-546.91C1851.55,-538.19 1876.74,-525.71 1895.29,-515.89"/>
<polygon fill="black" stroke="black" points="1897.17,-518.85 1904.32,-511.03 1893.85,-512.69 1897.17,-518.85"/>
</g>
<!-- @siteimprove/alfa&#45;crawler&#45;&gt;@siteimprove/alfa&#45;frontier -->
<!-- @siteimprove/alfa&#45;crawler&#45;&gt;@siteimprove/alfa&#45;frontier -->
<g id="edge90" class="edge">
<title>@siteimprove/alfa&#45;crawler&#45;&gt;@siteimprove/alfa&#45;frontier</title>
<path fill="none" stroke="black" d="M1809.34,-546.78C1809.21,-539.45 1807.66,-529.52 1805.4,-520.74"/>
<polygon fill="black" stroke="black" points="1808.74,-519.71 1802.46,-511.17 1802.05,-521.76 1808.74,-519.71"/>
</g>
<!-- name_Accessibility Code Checker -->
<g id="node42" class="node">
<title>name_Accessibility Code Checker</title>
<path fill="none" stroke="#aa00ff" stroke-width="5" d="M307.33,-157C307.33,-157 142.67,-157 142.67,-157 138.83,-157 135,-153.17 135,-149.33 135,-149.33 135,-141.67 135,-141.67 135,-137.83 138.83,-134 142.67,-134 142.67,-134 307.33,-134 307.33,-134 311.17,-134 315,-137.83 315,-141.67 315,-141.67 315,-149.33 315,-149.33 315,-153.17 311.17,-157 307.33,-157"/>
<text text-anchor="middle" x="225" y="-141.8" font-family="Arial" font-size="14.00" fill="#000000">Accessibility Code Checker</text>
</g>
<!-- exit_Accessibility Code Checker -->
<!-- exit_Accessibility Code Checker&#45;&gt;exit_Alfa integrations -->
<!-- @siteimprove/alfa&#45;test&#45;utils -->
<g id="node44" class="node">
<title>@siteimprove/alfa&#45;test&#45;utils</title>
<path fill="none" stroke="#000000" d="M108.83,-157C108.83,-157 31.17,-157 31.17,-157 27.33,-157 23.5,-153.17 23.5,-149.33 23.5,-149.33 23.5,-141.67 23.5,-141.67 23.5,-137.83 27.33,-134 31.17,-134 31.17,-134 108.83,-134 108.83,-134 112.67,-134 116.5,-137.83 116.5,-141.67 116.5,-141.67 116.5,-149.33 116.5,-149.33 116.5,-153.17 112.67,-157 108.83,-157"/>
<text text-anchor="middle" x="70" y="-141.8" font-family="Arial" font-size="14.00" fill="#000000">alfa&#45;test&#45;utils</text>
</g>
<!-- @siteimprove/alfa&#45;test&#45;utils&#45;&gt;exit_Accessibility Code Checker -->
</g>
</svg>
