<?xml version="1.0" encoding="UTF-8" standalone="no"?>
<!DOCTYPE svg PUBLIC "-//W3C//DTD SVG 1.1//EN"
 "http://www.w3.org/Graphics/SVG/1.1/DTD/svg11.dtd">
<!-- Generated by graphviz version 2.43.0 (0)
 -->
<!-- Title: dependency&#45;graph&#45;Alfa integrations Pages: 1 -->
<svg width="2104pt" height="814pt"
 viewBox="0.00 0.00 2103.99 814.20" xmlns="http://www.w3.org/2000/svg" xmlns:xlink="http://www.w3.org/1999/xlink">
<g id="graph0" class="graph" transform="scale(1 1) rotate(0) translate(21.6 792.6)">
<title>dependency&#45;graph&#45;Alfa integrations</title>
<polygon fill="#ffffff" stroke="transparent" points="-21.6,21.6 -21.6,-792.6 2082.39,-792.6 2082.39,21.6 -21.6,21.6"/>
<g id="clust1" class="cluster">
<title>cluster_Alfa integrations</title>
<polygon fill="#ffffff" stroke="#000000" points="8,-8 8,-763 2048,-763 2048,-8 8,-8"/>
</g>
<g id="clust2" class="cluster">
<title>cluster_Formatters</title>
<polygon fill="#ffffff" stroke="#000000" points="331,-67 331,-224 866,-224 866,-67 331,-67"/>
</g>
<g id="clust3" class="cluster">
<title>cluster_Integrations with frameworks</title>
<polygon fill="#ffffff" stroke="#000000" points="874,-67 874,-409 2008,-409 2008,-67 874,-67"/>
</g>
<g id="clust4" class="cluster">
<title>cluster_Test frameworks</title>
<polygon fill="#ffffff" stroke="#000000" points="1356,-126 1356,-283 1988,-283 1988,-126 1356,-126"/>
</g>
<g id="clust5" class="cluster">
<title>cluster_Browser automations</title>
<polygon fill="#ffffff" stroke="#000000" points="1252,-303 1252,-401 2000,-401 2000,-303 1252,-303"/>
</g>
<g id="clust6" class="cluster">
<title>cluster_Components libraries</title>
<polygon fill="#ffffff" stroke="#000000" points="970,-126 970,-283 1348,-283 1348,-126 970,-126"/>
</g>
<g id="clust7" class="cluster">
<title>cluster_Command line</title>
<polygon fill="#ffffff" stroke="#000000" points="1774,-598 1774,-755 2040,-755 2040,-598 1774,-598"/>
</g>
<g id="clust8" class="cluster">
<title>cluster_Web crawler</title>
<polygon fill="#ffffff" stroke="#000000" points="1800,-421 1800,-578 2028,-578 2028,-421 1800,-421"/>
</g>
<g id="clust9" class="cluster">
<title>cluster_Accessibility Code Checker</title>
<polygon fill="#ffffff" stroke="#000000" points="16,-67 16,-165 323,-165 323,-67 16,-67"/>
</g>
<!-- @siteimprove/alfa&#45;formatter -->
<g id="node1" class="node">
<title>@siteimprove/alfa&#45;formatter</title>
<path fill="none" stroke="#000000" d="M658.33,-157C658.33,-157 575.67,-157 575.67,-157 571.83,-157 568,-153.17 568,-149.33 568,-149.33 568,-141.67 568,-141.67 568,-137.83 571.83,-134 575.67,-134 575.67,-134 658.33,-134 658.33,-134 662.17,-134 666,-137.83 666,-141.67 666,-141.67 666,-149.33 666,-149.33 666,-153.17 662.17,-157 658.33,-157"/>
<text text-anchor="middle" x="617" y="-141.8" font-family="Arial" font-size="14.00" fill="#000000">alfa&#45;formatter</text>
</g>
<!-- exit_Formatters -->
<!-- @siteimprove/alfa&#45;formatter&#45;&gt;exit_Formatters -->
<!-- @siteimprove/alfa&#45;assert -->
<g id="node2" class="node">
<title>@siteimprove/alfa&#45;assert</title>
<path fill="none" stroke="#000000" d="M1714.33,-216C1714.33,-216 1649.67,-216 1649.67,-216 1645.83,-216 1642,-212.17 1642,-208.33 1642,-208.33 1642,-200.67 1642,-200.67 1642,-196.83 1645.83,-193 1649.67,-193 1649.67,-193 1714.33,-193 1714.33,-193 1718.17,-193 1722,-196.83 1722,-200.67 1722,-200.67 1722,-208.33 1722,-208.33 1722,-212.17 1718.17,-216 1714.33,-216"/>
<text text-anchor="middle" x="1682" y="-200.8" font-family="Arial" font-size="14.00" fill="#000000">alfa&#45;assert</text>
</g>
<!-- exit_Test frameworks -->
<!-- @siteimprove/alfa&#45;assert&#45;&gt;exit_Test frameworks -->
<!-- @siteimprove/alfa&#45;puppeteer -->
<g id="node3" class="node">
<title>@siteimprove/alfa&#45;puppeteer</title>
<path fill="none" stroke="#000000" d="M1598.33,-393C1598.33,-393 1509.67,-393 1509.67,-393 1505.83,-393 1502,-389.17 1502,-385.33 1502,-385.33 1502,-377.67 1502,-377.67 1502,-373.83 1505.83,-370 1509.67,-370 1509.67,-370 1598.33,-370 1598.33,-370 1602.17,-370 1606,-373.83 1606,-377.67 1606,-377.67 1606,-385.33 1606,-385.33 1606,-389.17 1602.17,-393 1598.33,-393"/>
<text text-anchor="middle" x="1554" y="-377.8" font-family="Arial" font-size="14.00" fill="#000000">alfa&#45;puppeteer</text>
</g>
<!-- exit_Browser automations -->
<!-- @siteimprove/alfa&#45;puppeteer&#45;&gt;exit_Browser automations -->
<!-- exit_Web crawler -->
<!-- name_Integrations with frameworks -->
<g id="node5" class="node">
<title>name_Integrations with frameworks</title>
<path fill="none" stroke="#00ffaa" stroke-width="5" d="M1234.83,-393C1234.83,-393 1061.17,-393 1061.17,-393 1057.33,-393 1053.5,-389.17 1053.5,-385.33 1053.5,-385.33 1053.5,-377.67 1053.5,-377.67 1053.5,-373.83 1057.33,-370 1061.17,-370 1061.17,-370 1234.83,-370 1234.83,-370 1238.67,-370 1242.5,-373.83 1242.5,-377.67 1242.5,-377.67 1242.5,-385.33 1242.5,-385.33 1242.5,-389.17 1238.67,-393 1234.83,-393"/>
<text text-anchor="middle" x="1148" y="-377.8" font-family="Arial" font-size="14.00" fill="#000000">Integrations with frameworks</text>
</g>
<!-- exit_Web crawler&#45;&gt;name_Integrations with frameworks -->
<g id="edge79" class="edge">
<title>exit_Web crawler&#45;&gt;name_Integrations with frameworks</title>
<path fill="none" stroke="#00ff00" d="M1800,-436.66C1628.82,-432.94 1367.21,-425.08 1258,-410.43"/>
<polygon fill="#00ff00" stroke="#00ff00" points="1258.39,-406.95 1248,-409 1257.41,-413.88 1258.39,-406.95"/>
</g>
<!-- exit_Alfa integrations -->
<!-- exit_Web crawler&#45;&gt;exit_Alfa integrations -->
<!-- exit_Web crawler&#45;&gt;exit_Alfa integrations -->
<!-- exit_Web crawler&#45;&gt;exit_Alfa integrations -->
<!-- @siteimprove/alfa&#45;cheerio -->
<g id="node6" class="node">
<title>@siteimprove/alfa&#45;cheerio</title>
<path fill="none" stroke="#000000" d="M1057.83,-216C1057.83,-216 986.17,-216 986.17,-216 982.33,-216 978.5,-212.17 978.5,-208.33 978.5,-208.33 978.5,-200.67 978.5,-200.67 978.5,-196.83 982.33,-193 986.17,-193 986.17,-193 1057.83,-193 1057.83,-193 1061.67,-193 1065.5,-196.83 1065.5,-200.67 1065.5,-200.67 1065.5,-208.33 1065.5,-208.33 1065.5,-212.17 1061.67,-216 1057.83,-216"/>
<text text-anchor="middle" x="1022" y="-200.8" font-family="Arial" font-size="14.00" fill="#000000">alfa&#45;cheerio</text>
</g>
<!-- exit_Components libraries -->
<!-- @siteimprove/alfa&#45;cheerio&#45;&gt;exit_Components libraries -->
<!-- @siteimprove/alfa&#45;angular -->
<g id="node7" class="node">
<title>@siteimprove/alfa&#45;angular</title>
<path fill="none" stroke="#000000" d="M1303.33,-216C1303.33,-216 1230.67,-216 1230.67,-216 1226.83,-216 1223,-212.17 1223,-208.33 1223,-208.33 1223,-200.67 1223,-200.67 1223,-196.83 1226.83,-193 1230.67,-193 1230.67,-193 1303.33,-193 1303.33,-193 1307.17,-193 1311,-196.83 1311,-200.67 1311,-200.67 1311,-208.33 1311,-208.33 1311,-212.17 1307.17,-216 1303.33,-216"/>
<text text-anchor="middle" x="1267" y="-200.8" font-family="Arial" font-size="14.00" fill="#000000">alfa&#45;angular</text>
</g>
<!-- @siteimprove/alfa&#45;angular&#45;&gt;exit_Components libraries -->
<!-- @siteimprove/alfa&#45;command -->
<g id="node8" class="node">
<title>@siteimprove/alfa&#45;command</title>
<path fill="none" stroke="#000000" d="M1878.33,-688C1878.33,-688 1789.67,-688 1789.67,-688 1785.83,-688 1782,-684.17 1782,-680.33 1782,-680.33 1782,-672.67 1782,-672.67 1782,-668.83 1785.83,-665 1789.67,-665 1789.67,-665 1878.33,-665 1878.33,-665 1882.17,-665 1886,-668.83 1886,-672.67 1886,-672.67 1886,-680.33 1886,-680.33 1886,-684.17 1882.17,-688 1878.33,-688"/>
<text text-anchor="middle" x="1834" y="-672.8" font-family="Arial" font-size="14.00" fill="#000000">alfa&#45;command</text>
</g>
<!-- exit_Command line -->
<!-- @siteimprove/alfa&#45;command&#45;&gt;exit_Command line -->
<!-- name_Formatters -->
<g id="node10" class="node">
<title>name_Formatters</title>
<path fill="none" stroke="#ff0000" stroke-width="5" d="M849.83,-216C849.83,-216 782.17,-216 782.17,-216 778.33,-216 774.5,-212.17 774.5,-208.33 774.5,-208.33 774.5,-200.67 774.5,-200.67 774.5,-196.83 778.33,-193 782.17,-193 782.17,-193 849.83,-193 849.83,-193 853.67,-193 857.5,-196.83 857.5,-200.67 857.5,-200.67 857.5,-208.33 857.5,-208.33 857.5,-212.17 853.67,-216 849.83,-216"/>
<text text-anchor="middle" x="816" y="-200.8" font-family="Arial" font-size="14.00" fill="#000000">Formatters</text>
</g>
<!-- exit_Command line&#45;&gt;name_Formatters -->
<g id="edge88" class="edge">
<title>exit_Command line&#45;&gt;name_Formatters</title>
<path fill="none" stroke="#ff00aa" d="M1774,-615.87C1453.23,-612.23 841,-593.16 841,-500.5 841,-500.5 841,-500.5 841,-321.5 841,-287.35 830.52,-248.8 823.13,-225.85"/>
<polygon fill="#ff00aa" stroke="#ff00aa" points="830.34,-230.42 821.91,-224 824.5,-234.27 830.34,-230.42"/>
</g>
<!-- name_Web crawler -->
<g id="node13" class="node">
<title>name_Web crawler</title>
<path fill="none" stroke="#00ff00" stroke-width="5" d="M2007.33,-570C2007.33,-570 1930.67,-570 1930.67,-570 1926.83,-570 1923,-566.17 1923,-562.33 1923,-562.33 1923,-554.67 1923,-554.67 1923,-550.83 1926.83,-547 1930.67,-547 1930.67,-547 2007.33,-547 2007.33,-547 2011.17,-547 2015,-550.83 2015,-554.67 2015,-554.67 2015,-562.33 2015,-562.33 2015,-566.17 2011.17,-570 2007.33,-570"/>
<text text-anchor="middle" x="1969" y="-554.8" font-family="Arial" font-size="14.00" fill="#000000">Web crawler</text>
</g>
<!-- exit_Command line&#45;&gt;name_Web crawler -->
<g id="edge91" class="edge">
<title>exit_Command line&#45;&gt;name_Web crawler</title>
<path fill="none" stroke="#ff00aa" d="M1966.3,-598C1966.69,-592.35 1967.13,-586.1 1967.54,-580.31"/>
<polygon fill="#ff00aa" stroke="#ff00aa" points="1968.65,-588.59 1968.25,-578 1961.96,-586.53 1968.65,-588.59"/>
</g>
<!-- exit_Command line&#45;&gt;exit_Alfa integrations -->
<!-- exit_Command line&#45;&gt;exit_Alfa integrations -->
<!-- exit_Command line&#45;&gt;exit_Alfa integrations -->
<!-- @siteimprove/alfa&#45;interviewer -->
<g id="node11" class="node">
<title>@siteimprove/alfa&#45;interviewer</title>
<path fill="none" stroke="#000000" d="M2024.33,-688C2024.33,-688 1931.67,-688 1931.67,-688 1927.83,-688 1924,-684.17 1924,-680.33 1924,-680.33 1924,-672.67 1924,-672.67 1924,-668.83 1927.83,-665 1931.67,-665 1931.67,-665 2024.33,-665 2024.33,-665 2028.17,-665 2032,-668.83 2032,-672.67 2032,-672.67 2032,-680.33 2032,-680.33 2032,-684.17 2028.17,-688 2024.33,-688"/>
<text text-anchor="middle" x="1978" y="-672.8" font-family="Arial" font-size="14.00" fill="#000000">alfa&#45;interviewer</text>
</g>
<!-- @siteimprove/alfa&#45;interviewer&#45;&gt;exit_Command line -->
<!-- @siteimprove/alfa&#45;scraper -->
<g id="node12" class="node">
<title>@siteimprove/alfa&#45;scraper</title>
<path fill="none" stroke="#000000" d="M2012.33,-511C2012.33,-511 1939.67,-511 1939.67,-511 1935.83,-511 1932,-507.17 1932,-503.33 1932,-503.33 1932,-495.67 1932,-495.67 1932,-491.83 1935.83,-488 1939.67,-488 1939.67,-488 2012.33,-488 2012.33,-488 2016.17,-488 2020,-491.83 2020,-495.67 2020,-495.67 2020,-503.33 2020,-503.33 2020,-507.17 2016.17,-511 2012.33,-511"/>
<text text-anchor="middle" x="1976" y="-495.8" font-family="Arial" font-size="14.00" fill="#000000">alfa&#45;scraper</text>
</g>
<!-- @siteimprove/alfa&#45;scraper&#45;&gt;exit_Web crawler -->
<!-- @siteimprove/alfa&#45;frontier -->
<g id="node14" class="node">
<title>@siteimprove/alfa&#45;frontier</title>
<path fill="none" stroke="#000000" d="M1885.83,-511C1885.83,-511 1816.17,-511 1816.17,-511 1812.33,-511 1808.5,-507.17 1808.5,-503.33 1808.5,-503.33 1808.5,-495.67 1808.5,-495.67 1808.5,-491.83 1812.33,-488 1816.17,-488 1816.17,-488 1885.83,-488 1885.83,-488 1889.67,-488 1893.5,-491.83 1893.5,-495.67 1893.5,-495.67 1893.5,-503.33 1893.5,-503.33 1893.5,-507.17 1889.67,-511 1885.83,-511"/>
<text text-anchor="middle" x="1851" y="-495.8" font-family="Arial" font-size="14.00" fill="#000000">alfa&#45;frontier</text>
</g>
<!-- @siteimprove/alfa&#45;frontier&#45;&gt;exit_Web crawler -->
<!-- name_Test frameworks -->
<g id="node16" class="node">
<title>name_Test frameworks</title>
<path fill="none" stroke="#aaff00" stroke-width="5" d="M1972.33,-275C1972.33,-275 1871.67,-275 1871.67,-275 1867.83,-275 1864,-271.17 1864,-267.33 1864,-267.33 1864,-259.67 1864,-259.67 1864,-255.83 1867.83,-252 1871.67,-252 1871.67,-252 1972.33,-252 1972.33,-252 1976.17,-252 1980,-255.83 1980,-259.67 1980,-259.67 1980,-267.33 1980,-267.33 1980,-271.17 1976.17,-275 1972.33,-275"/>
<text text-anchor="middle" x="1922" y="-259.8" font-family="Arial" font-size="14.00" fill="#000000">Test frameworks</text>
</g>
<!-- exit_Browser automations&#45;&gt;name_Test frameworks -->
<g id="edge104" class="edge">
<title>exit_Browser automations&#45;&gt;name_Test frameworks</title>
<path fill="none" stroke="#00aaff" d="M1910.52,-303C1912.23,-297.26 1914.13,-290.89 1915.88,-285.02"/>
<polygon fill="#00aaff" stroke="#00aaff" points="1915.79,-293.54 1916.82,-283 1909.44,-290.6 1915.79,-293.54"/>
</g>
<!-- exit_Integrations with frameworks -->
<!-- exit_Browser automations&#45;&gt;exit_Integrations with frameworks -->
<!-- exit_Browser automations&#45;&gt;exit_Integrations with frameworks -->
<!-- exit_Browser automations&#45;&gt;exit_Integrations with frameworks -->
<!-- exit_Browser automations&#45;&gt;exit_Integrations with frameworks -->
<!-- exit_Browser automations&#45;&gt;exit_Integrations with frameworks -->
<!-- exit_Integrations with frameworks&#45;&gt;name_Formatters -->
<g id="edge105" class="edge">
<title>exit_Integrations with frameworks&#45;&gt;name_Formatters</title>
<path fill="none" stroke="#00ffaa" d="M874,-122.61C872,-123.24 870,-123.87 868,-124.5"/>
<polygon fill="#00ffaa" stroke="#00ffaa" points="874.49,-118.79 866,-125.13 876.59,-125.47 874.49,-118.79"/>
</g>
<!-- exit_Integrations with frameworks&#45;&gt;name_Formatters -->
<!-- exit_Integrations with frameworks&#45;&gt;exit_Alfa integrations -->
<!-- exit_Integrations with frameworks&#45;&gt;exit_Alfa integrations -->
<!-- exit_Integrations with frameworks&#45;&gt;exit_Alfa integrations -->
<!-- exit_Integrations with frameworks&#45;&gt;exit_Alfa integrations -->
<!-- exit_Integrations with frameworks&#45;&gt;exit_Alfa integrations -->
<!-- exit_Integrations with frameworks&#45;&gt;exit_Alfa integrations -->
<!-- exit_Integrations with frameworks&#45;&gt;exit_Alfa integrations -->
<!-- exit_Integrations with frameworks&#45;&gt;exit_Alfa integrations -->
<!-- exit_Integrations with frameworks&#45;&gt;exit_Alfa integrations -->
<!-- exit_Integrations with frameworks&#45;&gt;exit_Alfa integrations -->
<!-- exit_Integrations with frameworks&#45;&gt;exit_Alfa integrations -->
<!-- exit_Integrations with frameworks&#45;&gt;exit_Alfa integrations -->
<!-- exit_Integrations with frameworks&#45;&gt;exit_Alfa integrations -->
<!-- exit_Integrations with frameworks&#45;&gt;exit_Alfa integrations -->
<!-- exit_Integrations with frameworks&#45;&gt;exit_Alfa integrations -->
<!-- exit_Integrations with frameworks&#45;&gt;exit_Alfa integrations -->
<!-- exit_Integrations with frameworks&#45;&gt;exit_Alfa integrations -->
<!-- @siteimprove/alfa&#45;formatter&#45;earl -->
<g id="node18" class="node">
<title>@siteimprove/alfa&#45;formatter&#45;earl</title>
<path fill="none" stroke="#000000" d="M748.83,-216C748.83,-216 639.17,-216 639.17,-216 635.33,-216 631.5,-212.17 631.5,-208.33 631.5,-208.33 631.5,-200.67 631.5,-200.67 631.5,-196.83 635.33,-193 639.17,-193 639.17,-193 748.83,-193 748.83,-193 752.67,-193 756.5,-196.83 756.5,-200.67 756.5,-200.67 756.5,-208.33 756.5,-208.33 756.5,-212.17 752.67,-216 748.83,-216"/>
<text text-anchor="middle" x="694" y="-200.8" font-family="Arial" font-size="14.00" fill="#000000">alfa&#45;formatter&#45;earl</text>
</g>
<!-- @siteimprove/alfa&#45;formatter&#45;earl&#45;&gt;@siteimprove/alfa&#45;formatter -->
<!-- @siteimprove/alfa&#45;formatter&#45;earl&#45;&gt;@siteimprove/alfa&#45;formatter -->
<g id="edge74" class="edge">
<title>@siteimprove/alfa&#45;formatter&#45;earl&#45;&gt;@siteimprove/alfa&#45;formatter</title>
<path fill="none" stroke="black" d="M684.93,-192.78C675.01,-184.34 659.18,-172.44 645.21,-162.82"/>
<polygon fill="black" stroke="black" points="647.07,-159.85 636.82,-157.17 643.17,-165.66 647.07,-159.85"/>
</g>
<!-- @siteimprove/alfa&#45;formatter&#45;earl&#45;&gt;exit_Formatters -->
<!-- exit_Formatters&#45;&gt;exit_Alfa integrations -->
<!-- exit_Formatters&#45;&gt;exit_Alfa integrations -->
<!-- exit_Formatters&#45;&gt;exit_Alfa integrations -->
<!-- exit_Formatters&#45;&gt;exit_Alfa integrations -->
<!-- @siteimprove/alfa&#45;formatter&#45;sarif -->
<g id="node21" class="node">
<title>@siteimprove/alfa&#45;formatter&#45;sarif</title>
<path fill="none" stroke="#000000" d="M605.33,-216C605.33,-216 492.67,-216 492.67,-216 488.83,-216 485,-212.17 485,-208.33 485,-208.33 485,-200.67 485,-200.67 485,-196.83 488.83,-193 492.67,-193 492.67,-193 605.33,-193 605.33,-193 609.17,-193 613,-196.83 613,-200.67 613,-200.67 613,-208.33 613,-208.33 613,-212.17 609.17,-216 605.33,-216"/>
<text text-anchor="middle" x="549" y="-200.8" font-family="Arial" font-size="14.00" fill="#000000">alfa&#45;formatter&#45;sarif</text>
</g>
<!-- @siteimprove/alfa&#45;formatter&#45;sarif&#45;&gt;@siteimprove/alfa&#45;formatter -->
<!-- @siteimprove/alfa&#45;formatter&#45;sarif&#45;&gt;@siteimprove/alfa&#45;formatter -->
<g id="edge93" class="edge">
<title>@siteimprove/alfa&#45;formatter&#45;sarif&#45;&gt;@siteimprove/alfa&#45;formatter</title>
<path fill="none" stroke="black" d="M567.2,-192.78C578.21,-184.74 591.84,-173.55 602.19,-164.19"/>
<polygon fill="black" stroke="black" points="604.77,-166.57 609.67,-157.17 599.98,-161.47 604.77,-166.57"/>
</g>
<!-- @siteimprove/alfa&#45;formatter&#45;sarif&#45;&gt;exit_Formatters -->
<!-- @siteimprove/alfa&#45;formatter&#45;json -->
<g id="node22" class="node">
<title>@siteimprove/alfa&#45;formatter&#45;json</title>
<path fill="none" stroke="#000000" d="M458.83,-216C458.83,-216 347.17,-216 347.17,-216 343.33,-216 339.5,-212.17 339.5,-208.33 339.5,-208.33 339.5,-200.67 339.5,-200.67 339.5,-196.83 343.33,-193 347.17,-193 347.17,-193 458.83,-193 458.83,-193 462.67,-193 466.5,-196.83 466.5,-200.67 466.5,-200.67 466.5,-208.33 466.5,-208.33 466.5,-212.17 462.67,-216 458.83,-216"/>
<text text-anchor="middle" x="403" y="-200.8" font-family="Arial" font-size="14.00" fill="#000000">alfa&#45;formatter&#45;json</text>
</g>
<!-- @siteimprove/alfa&#45;formatter&#45;json&#45;&gt;@siteimprove/alfa&#45;formatter -->
<!-- @siteimprove/alfa&#45;formatter&#45;json&#45;&gt;@siteimprove/alfa&#45;formatter -->
<g id="edge101" class="edge">
<title>@siteimprove/alfa&#45;formatter&#45;json&#45;&gt;@siteimprove/alfa&#45;formatter</title>
<path fill="none" stroke="black" d="M447.88,-192.98C484.65,-183.63 536.29,-169.91 572.86,-159.81"/>
<polygon fill="black" stroke="black" points="574.05,-163.11 582.75,-157.06 572.18,-156.36 574.05,-163.11"/>
</g>
<!-- @siteimprove/alfa&#45;formatter&#45;json&#45;&gt;exit_Formatters -->
<!-- @siteimprove/alfa&#45;jquery -->
<g id="node23" class="node">
<title>@siteimprove/alfa&#45;jquery</title>
<path fill="none" stroke="#000000" d="M954.33,-157C954.33,-157 889.67,-157 889.67,-157 885.83,-157 882,-153.17 882,-149.33 882,-149.33 882,-141.67 882,-141.67 882,-137.83 885.83,-134 889.67,-134 889.67,-134 954.33,-134 954.33,-134 958.17,-134 962,-137.83 962,-141.67 962,-141.67 962,-149.33 962,-149.33 962,-153.17 958.17,-157 954.33,-157"/>
<text text-anchor="middle" x="922" y="-141.8" font-family="Arial" font-size="14.00" fill="#000000">alfa&#45;jquery</text>
</g>
<!-- @siteimprove/alfa&#45;jquery&#45;&gt;exit_Integrations with frameworks -->
<!-- exit_Test frameworks&#45;&gt;exit_Integrations with frameworks -->
<!-- exit_Test frameworks&#45;&gt;exit_Integrations with frameworks -->
<!-- exit_Test frameworks&#45;&gt;exit_Integrations with frameworks -->
<!-- exit_Test frameworks&#45;&gt;exit_Integrations with frameworks -->
<!-- exit_Test frameworks&#45;&gt;exit_Integrations with frameworks -->
<!-- exit_Test frameworks&#45;&gt;exit_Integrations with frameworks -->
<!-- @siteimprove/alfa&#45;vitest -->
<g id="node25" class="node">
<title>@siteimprove/alfa&#45;vitest</title>
<path fill="none" stroke="#000000" d="M1838.33,-275C1838.33,-275 1779.67,-275 1779.67,-275 1775.83,-275 1772,-271.17 1772,-267.33 1772,-267.33 1772,-259.67 1772,-259.67 1772,-255.83 1775.83,-252 1779.67,-252 1779.67,-252 1838.33,-252 1838.33,-252 1842.17,-252 1846,-255.83 1846,-259.67 1846,-259.67 1846,-267.33 1846,-267.33 1846,-271.17 1842.17,-275 1838.33,-275"/>
<text text-anchor="middle" x="1809" y="-259.8" font-family="Arial" font-size="14.00" fill="#000000">alfa&#45;vitest</text>
</g>
<!-- @siteimprove/alfa&#45;vitest&#45;&gt;@siteimprove/alfa&#45;assert -->
<!-- @siteimprove/alfa&#45;vitest&#45;&gt;@siteimprove/alfa&#45;assert -->
<g id="edge76" class="edge">
<title>@siteimprove/alfa&#45;vitest&#45;&gt;@siteimprove/alfa&#45;assert</title>
<path fill="none" stroke="black" d="M1790.8,-251.91C1772.35,-242.91 1743.56,-229.91 1720.17,-219.95"/>
<polygon fill="black" stroke="black" points="1721.42,-216.68 1710.84,-216.03 1718.7,-223.14 1721.42,-216.68"/>
</g>
<!-- @siteimprove/alfa&#45;vitest&#45;&gt;exit_Test frameworks -->
<!-- @siteimprove/alfa&#45;chai -->
<g id="node26" class="node">
<title>@siteimprove/alfa&#45;chai</title>
<path fill="none" stroke="#000000" d="M1746.33,-275C1746.33,-275 1693.67,-275 1693.67,-275 1689.83,-275 1686,-271.17 1686,-267.33 1686,-267.33 1686,-259.67 1686,-259.67 1686,-255.83 1689.83,-252 1693.67,-252 1693.67,-252 1746.33,-252 1746.33,-252 1750.17,-252 1754,-255.83 1754,-259.67 1754,-259.67 1754,-267.33 1754,-267.33 1754,-271.17 1750.17,-275 1746.33,-275"/>
<text text-anchor="middle" x="1720" y="-259.8" font-family="Arial" font-size="14.00" fill="#000000">alfa&#45;chai</text>
</g>
<!-- @siteimprove/alfa&#45;chai&#45;&gt;@siteimprove/alfa&#45;assert -->
<!-- @siteimprove/alfa&#45;chai&#45;&gt;@siteimprove/alfa&#45;assert -->
<g id="edge78" class="edge">
<title>@siteimprove/alfa&#45;chai&#45;&gt;@siteimprove/alfa&#45;assert</title>
<path fill="none" stroke="black" d="M1718.26,-251.78C1714.43,-243.98 1707.58,-233.21 1700.72,-224.03"/>
<polygon fill="black" stroke="black" points="1703.46,-221.85 1694.52,-216.17 1697.97,-226.19 1703.46,-221.85"/>
</g>
<!-- @siteimprove/alfa&#45;chai&#45;&gt;exit_Test frameworks -->
<!-- @siteimprove/alfa&#45;jasmine -->
<g id="node27" class="node">
<title>@siteimprove/alfa&#45;jasmine</title>
<path fill="none" stroke="#000000" d="M1660.33,-275C1660.33,-275 1585.67,-275 1585.67,-275 1581.83,-275 1578,-271.17 1578,-267.33 1578,-267.33 1578,-259.67 1578,-259.67 1578,-255.83 1581.83,-252 1585.67,-252 1585.67,-252 1660.33,-252 1660.33,-252 1664.17,-252 1668,-255.83 1668,-259.67 1668,-259.67 1668,-267.33 1668,-267.33 1668,-271.17 1664.17,-275 1660.33,-275"/>
<text text-anchor="middle" x="1623" y="-259.8" font-family="Arial" font-size="14.00" fill="#000000">alfa&#45;jasmine</text>
</g>
<!-- @siteimprove/alfa&#45;jasmine&#45;&gt;@siteimprove/alfa&#45;assert -->
<!-- @siteimprove/alfa&#45;jasmine&#45;&gt;@siteimprove/alfa&#45;assert -->
<g id="edge83" class="edge">
<title>@siteimprove/alfa&#45;jasmine&#45;&gt;@siteimprove/alfa&#45;assert</title>
<path fill="none" stroke="black" d="M1639.51,-251.78C1649.05,-243.9 1660.65,-232.99 1669.45,-223.75"/>
<polygon fill="black" stroke="black" points="1672.21,-225.92 1676.36,-216.17 1667.03,-221.21 1672.21,-225.92"/>
</g>
<!-- @siteimprove/alfa&#45;jasmine&#45;&gt;exit_Test frameworks -->
<!-- @siteimprove/alfa&#45;unexpected -->
<g id="node28" class="node">
<title>@siteimprove/alfa&#45;unexpected</title>
<path fill="none" stroke="#000000" d="M1551.83,-275C1551.83,-275 1454.17,-275 1454.17,-275 1450.33,-275 1446.5,-271.17 1446.5,-267.33 1446.5,-267.33 1446.5,-259.67 1446.5,-259.67 1446.5,-255.83 1450.33,-252 1454.17,-252 1454.17,-252 1551.83,-252 1551.83,-252 1555.67,-252 1559.5,-255.83 1559.5,-259.67 1559.5,-259.67 1559.5,-267.33 1559.5,-267.33 1559.5,-271.17 1555.67,-275 1551.83,-275"/>
<text text-anchor="middle" x="1503" y="-259.8" font-family="Arial" font-size="14.00" fill="#000000">alfa&#45;unexpected</text>
</g>
<!-- @siteimprove/alfa&#45;unexpected&#45;&gt;@siteimprove/alfa&#45;assert -->
<!-- @siteimprove/alfa&#45;unexpected&#45;&gt;@siteimprove/alfa&#45;assert -->
<g id="edge99" class="edge">
<title>@siteimprove/alfa&#45;unexpected&#45;&gt;@siteimprove/alfa&#45;assert</title>
<path fill="none" stroke="black" d="M1541.64,-251.91C1572.16,-242.71 1614.35,-229.33 1644.56,-219.29"/>
<polygon fill="black" stroke="black" points="1645.94,-222.52 1654.31,-216.03 1643.71,-215.89 1645.94,-222.52"/>
</g>
<!-- @siteimprove/alfa&#45;unexpected&#45;&gt;exit_Test frameworks -->
<!-- @siteimprove/alfa&#45;jest -->
<g id="node29" class="node">
<title>@siteimprove/alfa&#45;jest</title>
<path fill="none" stroke="#000000" d="M1420.33,-275C1420.33,-275 1371.67,-275 1371.67,-275 1367.83,-275 1364,-271.17 1364,-267.33 1364,-267.33 1364,-259.67 1364,-259.67 1364,-255.83 1367.83,-252 1371.67,-252 1371.67,-252 1420.33,-252 1420.33,-252 1424.17,-252 1428,-255.83 1428,-259.67 1428,-259.67 1428,-267.33 1428,-267.33 1428,-271.17 1424.17,-275 1420.33,-275"/>
<text text-anchor="middle" x="1396" y="-259.8" font-family="Arial" font-size="14.00" fill="#000000">alfa&#45;jest</text>
</g>
<!-- @siteimprove/alfa&#45;jest&#45;&gt;@siteimprove/alfa&#45;assert -->
<!-- @siteimprove/alfa&#45;jest&#45;&gt;@siteimprove/alfa&#45;assert -->
<g id="edge103" class="edge">
<title>@siteimprove/alfa&#45;jest&#45;&gt;@siteimprove/alfa&#45;assert</title>
<path fill="none" stroke="black" d="M1428.2,-256.38C1434.51,-254.88 1440.98,-253.32 1447,-252 1510.56,-238.01 1583.99,-224.35 1631.71,-215.5"/>
<polygon fill="black" stroke="black" points="1632.59,-218.9 1641.78,-213.63 1631.31,-212.01 1632.59,-218.9"/>
</g>
<!-- @siteimprove/alfa&#45;jest&#45;&gt;exit_Test frameworks -->
<!-- name_Browser automations -->
<g id="node30" class="node">
<title>name_Browser automations</title>
<path fill="none" stroke="#00aaff" stroke-width="5" d="M1868.33,-393C1868.33,-393 1739.67,-393 1739.67,-393 1735.83,-393 1732,-389.17 1732,-385.33 1732,-385.33 1732,-377.67 1732,-377.67 1732,-373.83 1735.83,-370 1739.67,-370 1739.67,-370 1868.33,-370 1868.33,-370 1872.17,-370 1876,-373.83 1876,-377.67 1876,-377.67 1876,-385.33 1876,-385.33 1876,-389.17 1872.17,-393 1868.33,-393"/>
<text text-anchor="middle" x="1804" y="-377.8" font-family="Arial" font-size="14.00" fill="#000000">Browser automations</text>
</g>
<!-- @siteimprove/alfa&#45;playwright -->
<g id="node31" class="node">
<title>@siteimprove/alfa&#45;playwright</title>
<path fill="none" stroke="#000000" d="M1476.33,-393C1476.33,-393 1387.67,-393 1387.67,-393 1383.83,-393 1380,-389.17 1380,-385.33 1380,-385.33 1380,-377.67 1380,-377.67 1380,-373.83 1383.83,-370 1387.67,-370 1387.67,-370 1476.33,-370 1476.33,-370 1480.17,-370 1484,-373.83 1484,-377.67 1484,-377.67 1484,-385.33 1484,-385.33 1484,-389.17 1480.17,-393 1476.33,-393"/>
<text text-anchor="middle" x="1432" y="-377.8" font-family="Arial" font-size="14.00" fill="#000000">alfa&#45;playwright</text>
</g>
<!-- @siteimprove/alfa&#45;playwright&#45;&gt;exit_Browser automations -->
<!-- @siteimprove/alfa&#45;webdriver -->
<g id="node32" class="node">
<title>@siteimprove/alfa&#45;webdriver</title>
<path fill="none" stroke="#000000" d="M1353.83,-393C1353.83,-393 1268.17,-393 1268.17,-393 1264.33,-393 1260.5,-389.17 1260.5,-385.33 1260.5,-385.33 1260.5,-377.67 1260.5,-377.67 1260.5,-373.83 1264.33,-370 1268.17,-370 1268.17,-370 1353.83,-370 1353.83,-370 1357.67,-370 1361.5,-373.83 1361.5,-377.67 1361.5,-377.67 1361.5,-385.33 1361.5,-385.33 1361.5,-389.17 1357.67,-393 1353.83,-393"/>
<text text-anchor="middle" x="1311" y="-377.8" font-family="Arial" font-size="14.00" fill="#000000">alfa&#45;webdriver</text>
</g>
<!-- @siteimprove/alfa&#45;webdriver&#45;&gt;exit_Browser automations -->
<!-- @siteimprove/alfa&#45;selenium -->
<g id="node33" class="node">
<title>@siteimprove/alfa&#45;selenium</title>
<path fill="none" stroke="#000000" d="M1984.33,-393C1984.33,-393 1901.67,-393 1901.67,-393 1897.83,-393 1894,-389.17 1894,-385.33 1894,-385.33 1894,-377.67 1894,-377.67 1894,-373.83 1897.83,-370 1901.67,-370 1901.67,-370 1984.33,-370 1984.33,-370 1988.17,-370 1992,-373.83 1992,-377.67 1992,-377.67 1992,-385.33 1992,-385.33 1992,-389.17 1988.17,-393 1984.33,-393"/>
<text text-anchor="middle" x="1943" y="-377.8" font-family="Arial" font-size="14.00" fill="#000000">alfa&#45;selenium</text>
</g>
<!-- @siteimprove/alfa&#45;selenium&#45;&gt;exit_Browser automations -->
<!-- @siteimprove/alfa&#45;cypress -->
<g id="node34" class="node">
<title>@siteimprove/alfa&#45;cypress</title>
<path fill="none" stroke="#000000" d="M1705.83,-393C1705.83,-393 1632.17,-393 1632.17,-393 1628.33,-393 1624.5,-389.17 1624.5,-385.33 1624.5,-385.33 1624.5,-377.67 1624.5,-377.67 1624.5,-373.83 1628.33,-370 1632.17,-370 1632.17,-370 1705.83,-370 1705.83,-370 1709.67,-370 1713.5,-373.83 1713.5,-377.67 1713.5,-377.67 1713.5,-385.33 1713.5,-385.33 1713.5,-389.17 1709.67,-393 1705.83,-393"/>
<text text-anchor="middle" x="1669" y="-377.8" font-family="Arial" font-size="14.00" fill="#000000">alfa&#45;cypress</text>
</g>
<!-- @siteimprove/alfa&#45;cypress&#45;&gt;exit_Browser automations -->
<!-- name_Components libraries -->
<g id="node35" class="node">
<title>name_Components libraries</title>
<path fill="none" stroke="#ffaa00" stroke-width="5" d="M1331.83,-275C1331.83,-275 1202.17,-275 1202.17,-275 1198.33,-275 1194.5,-271.17 1194.5,-267.33 1194.5,-267.33 1194.5,-259.67 1194.5,-259.67 1194.5,-255.83 1198.33,-252 1202.17,-252 1202.17,-252 1331.83,-252 1331.83,-252 1335.67,-252 1339.5,-255.83 1339.5,-259.67 1339.5,-259.67 1339.5,-267.33 1339.5,-267.33 1339.5,-271.17 1335.67,-275 1331.83,-275"/>
<text text-anchor="middle" x="1267" y="-259.8" font-family="Arial" font-size="14.00" fill="#000000">Components libraries</text>
</g>
<!-- exit_Components libraries&#45;&gt;exit_Integrations with frameworks -->
<!-- exit_Components libraries&#45;&gt;exit_Integrations with frameworks -->
<!-- exit_Components libraries&#45;&gt;exit_Integrations with frameworks -->
<!-- exit_Components libraries&#45;&gt;exit_Integrations with frameworks -->
<!-- exit_Components libraries&#45;&gt;exit_Integrations with frameworks -->
<!-- @siteimprove/alfa&#45;react -->
<g id="node37" class="node">
<title>@siteimprove/alfa&#45;react</title>
<path fill="none" stroke="#000000" d="M1196.83,-216C1196.83,-216 1139.17,-216 1139.17,-216 1135.33,-216 1131.5,-212.17 1131.5,-208.33 1131.5,-208.33 1131.5,-200.67 1131.5,-200.67 1131.5,-196.83 1135.33,-193 1139.17,-193 1139.17,-193 1196.83,-193 1196.83,-193 1200.67,-193 1204.5,-196.83 1204.5,-200.67 1204.5,-200.67 1204.5,-208.33 1204.5,-208.33 1204.5,-212.17 1200.67,-216 1196.83,-216"/>
<text text-anchor="middle" x="1168" y="-200.8" font-family="Arial" font-size="14.00" fill="#000000">alfa&#45;react</text>
</g>
<!-- @siteimprove/alfa&#45;react&#45;&gt;exit_Components libraries -->
<!-- @siteimprove/alfa&#45;vue -->
<g id="node38" class="node">
<title>@siteimprove/alfa&#45;vue</title>
<path fill="none" stroke="#000000" d="M1035.83,-275C1035.83,-275 986.17,-275 986.17,-275 982.33,-275 978.5,-271.17 978.5,-267.33 978.5,-267.33 978.5,-259.67 978.5,-259.67 978.5,-255.83 982.33,-252 986.17,-252 986.17,-252 1035.83,-252 1035.83,-252 1039.67,-252 1043.5,-255.83 1043.5,-259.67 1043.5,-259.67 1043.5,-267.33 1043.5,-267.33 1043.5,-271.17 1039.67,-275 1035.83,-275"/>
<text text-anchor="middle" x="1011" y="-259.8" font-family="Arial" font-size="14.00" fill="#000000">alfa&#45;vue</text>
</g>
<!-- @siteimprove/alfa&#45;vue&#45;&gt;@siteimprove/alfa&#45;cheerio -->
<!-- @siteimprove/alfa&#45;vue&#45;&gt;@siteimprove/alfa&#45;cheerio -->
<g id="edge81" class="edge">
<title>@siteimprove/alfa&#45;vue&#45;&gt;@siteimprove/alfa&#45;cheerio</title>
<path fill="none" stroke="black" d="M1018.48,-251.78C1021.12,-244.61 1023.36,-234.95 1024.51,-226.31"/>
<polygon fill="black" stroke="black" points="1028.01,-226.43 1025.34,-216.17 1021.04,-225.85 1028.01,-226.43"/>
</g>
<!-- @siteimprove/alfa&#45;vue&#45;&gt;exit_Components libraries -->
<!-- @siteimprove/alfa&#45;angular&#45;test -->
<g id="node39" class="node">
<title>@siteimprove/alfa&#45;angular&#45;test</title>
<path fill="none" stroke="#000000" d="M1168.33,-275C1168.33,-275 1069.67,-275 1069.67,-275 1065.83,-275 1062,-271.17 1062,-267.33 1062,-267.33 1062,-259.67 1062,-259.67 1062,-255.83 1065.83,-252 1069.67,-252 1069.67,-252 1168.33,-252 1168.33,-252 1172.17,-252 1176,-255.83 1176,-259.67 1176,-259.67 1176,-267.33 1176,-267.33 1176,-271.17 1172.17,-275 1168.33,-275"/>
<text text-anchor="middle" x="1119" y="-259.8" font-family="Arial" font-size="14.00" fill="#000000">alfa&#45;angular&#45;test</text>
</g>
<!-- @siteimprove/alfa&#45;angular&#45;test&#45;&gt;@siteimprove/alfa&#45;angular -->
<!-- @siteimprove/alfa&#45;angular&#45;test&#45;&gt;@siteimprove/alfa&#45;angular -->
<g id="edge85" class="edge">
<title>@siteimprove/alfa&#45;angular&#45;test&#45;&gt;@siteimprove/alfa&#45;angular</title>
<path fill="none" stroke="black" stroke-dasharray="1,5" d="M1151.88,-251.91C1176.95,-242.87 1211.1,-229.79 1235.76,-219.82"/>
<polygon fill="black" stroke="black" points="1237.1,-223.05 1245.03,-216.03 1234.45,-216.57 1237.1,-223.05"/>
</g>
<!-- @siteimprove/alfa&#45;angular&#45;test&#45;&gt;exit_Components libraries -->
<!-- name_Command line -->
<g id="node40" class="node">
<title>name_Command line</title>
<path fill="none" stroke="#ff00aa" stroke-width="5" d="M2023.83,-747C2023.83,-747 1934.17,-747 1934.17,-747 1930.33,-747 1926.5,-743.17 1926.5,-739.33 1926.5,-739.33 1926.5,-731.67 1926.5,-731.67 1926.5,-727.83 1930.33,-724 1934.17,-724 1934.17,-724 2023.83,-724 2023.83,-724 2027.67,-724 2031.5,-727.83 2031.5,-731.67 2031.5,-731.67 2031.5,-739.33 2031.5,-739.33 2031.5,-743.17 2027.67,-747 2023.83,-747"/>
<text text-anchor="middle" x="1979" y="-731.8" font-family="Arial" font-size="14.00" fill="#000000">Command line</text>
</g>
<!-- @siteimprove/alfa&#45;cli -->
<g id="node41" class="node">
<title>@siteimprove/alfa&#45;cli</title>
<path fill="none" stroke="#000000" d="M1900.33,-747C1900.33,-747 1859.67,-747 1859.67,-747 1855.83,-747 1852,-743.17 1852,-739.33 1852,-739.33 1852,-731.67 1852,-731.67 1852,-727.83 1855.83,-724 1859.67,-724 1859.67,-724 1900.33,-724 1900.33,-724 1904.17,-724 1908,-727.83 1908,-731.67 1908,-731.67 1908,-739.33 1908,-739.33 1908,-743.17 1904.17,-747 1900.33,-747"/>
<text text-anchor="middle" x="1880" y="-731.8" font-family="Arial" font-size="14.00" fill="#000000">alfa&#45;cli</text>
</g>
<!-- @siteimprove/alfa&#45;cli&#45;&gt;@siteimprove/alfa&#45;command -->
<!-- @siteimprove/alfa&#45;cli&#45;&gt;@siteimprove/alfa&#45;command -->
<g id="edge87" class="edge">
<title>@siteimprove/alfa&#45;cli&#45;&gt;@siteimprove/alfa&#45;command</title>
<path fill="none" stroke="black" d="M1876.76,-723.78C1871.78,-715.9 1863.29,-704.99 1855.08,-695.75"/>
<polygon fill="black" stroke="black" points="1857.39,-693.1 1848.02,-688.17 1852.27,-697.88 1857.39,-693.1"/>
</g>
<!-- @siteimprove/alfa&#45;cli&#45;&gt;exit_Command line -->
<!-- @siteimprove/alfa&#45;cli&#45;&gt;@siteimprove/alfa&#45;interviewer -->
<!-- @siteimprove/alfa&#45;cli&#45;&gt;@siteimprove/alfa&#45;interviewer -->
<g id="edge90" class="edge">
<title>@siteimprove/alfa&#45;cli&#45;&gt;@siteimprove/alfa&#45;interviewer</title>
<path fill="none" stroke="black" d="M1903.59,-723.91C1919.83,-715.35 1941.02,-703.17 1956.73,-693.44"/>
<polygon fill="black" stroke="black" points="1958.69,-696.34 1965.27,-688.03 1954.95,-690.42 1958.69,-696.34"/>
</g>
<!-- @siteimprove/alfa&#45;crawler -->
<g id="node42" class="node">
<title>@siteimprove/alfa&#45;crawler</title>
<path fill="none" stroke="#000000" d="M1897.33,-570C1897.33,-570 1826.67,-570 1826.67,-570 1822.83,-570 1819,-566.17 1819,-562.33 1819,-562.33 1819,-554.67 1819,-554.67 1819,-550.83 1822.83,-547 1826.67,-547 1826.67,-547 1897.33,-547 1897.33,-547 1901.17,-547 1905,-550.83 1905,-554.67 1905,-554.67 1905,-562.33 1905,-562.33 1905,-566.17 1901.17,-570 1897.33,-570"/>
<text text-anchor="middle" x="1862" y="-554.8" font-family="Arial" font-size="14.00" fill="#000000">alfa&#45;crawler</text>
</g>
<!-- @siteimprove/alfa&#45;crawler&#45;&gt;exit_Web crawler -->
<!-- @siteimprove/alfa&#45;crawler&#45;&gt;@siteimprove/alfa&#45;scraper -->
<!-- @siteimprove/alfa&#45;crawler&#45;&gt;@siteimprove/alfa&#45;scraper -->
<g id="edge97" class="edge">
<title>@siteimprove/alfa&#45;crawler&#45;&gt;@siteimprove/alfa&#45;scraper</title>
<path fill="none" stroke="black" d="M1888.56,-546.91C1907.55,-538.19 1932.74,-525.71 1951.29,-515.89"/>
<polygon fill="black" stroke="black" points="1953.17,-518.85 1960.32,-511.03 1949.85,-512.69 1953.17,-518.85"/>
</g>
<!-- @siteimprove/alfa&#45;crawler&#45;&gt;@siteimprove/alfa&#45;frontier -->
<!-- @siteimprove/alfa&#45;crawler&#45;&gt;@siteimprove/alfa&#45;frontier -->
<g id="edge95" class="edge">
<title>@siteimprove/alfa&#45;crawler&#45;&gt;@siteimprove/alfa&#45;frontier</title>
<path fill="none" stroke="black" d="M1865.34,-546.78C1865.21,-539.45 1863.66,-529.52 1861.4,-520.74"/>
<polygon fill="black" stroke="black" points="1864.74,-519.71 1858.46,-511.17 1858.05,-521.76 1864.74,-519.71"/>
</g>
<!-- name_Accessibility Code Checker -->
<g id="node43" class="node">
<title>name_Accessibility Code Checker</title>
<path fill="none" stroke="#aa00ff" stroke-width="5" d="M307.33,-157C307.33,-157 142.67,-157 142.67,-157 138.83,-157 135,-153.17 135,-149.33 135,-149.33 135,-141.67 135,-141.67 135,-137.83 138.83,-134 142.67,-134 142.67,-134 307.33,-134 307.33,-134 311.17,-134 315,-137.83 315,-141.67 315,-141.67 315,-149.33 315,-149.33 315,-153.17 311.17,-157 307.33,-157"/>
<text text-anchor="middle" x="225" y="-141.8" font-family="Arial" font-size="14.00" fill="#000000">Accessibility Code Checker</text>
</g>
<!-- exit_Accessibility Code Checker -->
<!-- exit_Accessibility Code Checker&#45;&gt;exit_Alfa integrations -->
<!-- @siteimprove/alfa&#45;test&#45;utils -->
<g id="node45" class="node">
<title>@siteimprove/alfa&#45;test&#45;utils</title>
<path fill="none" stroke="#000000" d="M108.83,-157C108.83,-157 31.17,-157 31.17,-157 27.33,-157 23.5,-153.17 23.5,-149.33 23.5,-149.33 23.5,-141.67 23.5,-141.67 23.5,-137.83 27.33,-134 31.17,-134 31.17,-134 108.83,-134 108.83,-134 112.67,-134 116.5,-137.83 116.5,-141.67 116.5,-141.67 116.5,-149.33 116.5,-149.33 116.5,-153.17 112.67,-157 108.83,-157"/>
<text text-anchor="middle" x="70" y="-141.8" font-family="Arial" font-size="14.00" fill="#000000">alfa&#45;test&#45;utils</text>
</g>
<!-- @siteimprove/alfa&#45;test&#45;utils&#45;&gt;exit_Accessibility Code Checker -->
</g>
</svg>
