<?xml version="1.0" encoding="UTF-8" standalone="no"?>
<!DOCTYPE svg PUBLIC "-//W3C//DTD SVG 1.1//EN"
 "http://www.w3.org/Graphics/SVG/1.1/DTD/svg11.dtd">
<!-- Generated by graphviz version 2.43.0 (0)
 -->
<!-- Title: %3 Pages: 1 -->
<svg width="4526pt" height="365pt"
 viewBox="0.00 0.00 4526.14 365.00" xmlns="http://www.w3.org/2000/svg" xmlns:xlink="http://www.w3.org/1999/xlink">
<g id="graph0" class="graph" transform="scale(1 1) rotate(0) translate(4 361)">
<title>%3</title>
<polygon fill="white" stroke="transparent" points="-4,4 -4,-361 4522.14,-361 4522.14,4 -4,4"/>
<g id="clust1" class="cluster">
<title>cluster_Command_line</title>
<polygon fill="none" stroke="#000000" points="150.14,-202 150.14,-349 772.14,-349 772.14,-202 150.14,-202"/>
<text text-anchor="middle" x="461.14" y="-333.8" font-family="Times,serif" font-size="14.00">Command line</text>
</g>
<g id="clust2" class="cluster">
<title>cluster_Formatters</title>
<polygon fill="none" stroke="#00007f" points="23.14,-16 23.14,-163 1067.14,-163 1067.14,-16 23.14,-16"/>
<text text-anchor="middle" x="545.14" y="-147.8" font-family="Times,serif" font-size="14.00">Formatters</text>
</g>
<g id="clust3" class="cluster">
<title>cluster_Integrations_with_frameworks</title>
<polygon fill="none" stroke="#0000ff" points="1075.14,-8 1075.14,-194 4510.14,-194 4510.14,-8 1075.14,-8"/>
<text text-anchor="middle" x="2792.64" y="-178.8" font-family="Times,serif" font-size="14.00">Integrations with frameworks</text>
</g>
<g id="clust4" class="cluster">
<title>cluster_Test_frameworks</title>
<polygon fill="none" stroke="#007f00" points="3112.14,-16 3112.14,-163 4502.14,-163 4502.14,-16 3112.14,-16"/>
<text text-anchor="middle" x="3807.14" y="-147.8" font-family="Times,serif" font-size="14.00">Test frameworks</text>
</g>
<g id="clust5" class="cluster">
<title>cluster_Components_libraries</title>
<polygon fill="none" stroke="#007f7f" points="2288.14,-16 2288.14,-163 3104.14,-163 3104.14,-16 2288.14,-16"/>
<text text-anchor="middle" x="2696.14" y="-147.8" font-family="Times,serif" font-size="14.00">Components libraries</text>
</g>
<g id="clust6" class="cluster">
<title>cluster_Browser_automations</title>
<polygon fill="none" stroke="#007fff" points="1349.14,-88 1349.14,-163 2280.14,-163 2280.14,-88 1349.14,-88"/>
<text text-anchor="middle" x="1814.64" y="-147.8" font-family="Times,serif" font-size="14.00">Browser automations</text>
</g>
<g id="clust7" class="cluster">
<title>cluster_Web_crawler</title>
<polygon fill="none" stroke="#00ff00" points="1289.14,-202 1289.14,-349 1857.14,-349 1857.14,-202 1289.14,-202"/>
<text text-anchor="middle" x="1573.14" y="-333.8" font-family="Times,serif" font-size="14.00">Web crawler</text>
</g>
<!-- _siteimprove_alfa_cli -->
<g id="node1" class="node">
<title>_siteimprove_alfa_cli</title>
<ellipse fill="none" stroke="#7f00ff" cx="457.14" cy="-300" rx="108.58" ry="18"/>
<text text-anchor="middle" x="457.14" y="-296.3" font-family="Times,serif" font-size="14.00">@siteimprove/alfa&#45;cli</text>
</g>
<!-- _siteimprove_alfa_command -->
<g id="node2" class="node">
<title>_siteimprove_alfa_command</title>
<ellipse fill="none" stroke="#7f7f00" cx="301.14" cy="-228" rx="142.97" ry="18"/>
<text text-anchor="middle" x="301.14" y="-224.3" font-family="Times,serif" font-size="14.00">@siteimprove/alfa&#45;command</text>
</g>
<!-- _siteimprove_alfa_cli&#45;&gt;_siteimprove_alfa_command -->
<g id="edge2" class="edge">
<title>_siteimprove_alfa_cli&#45;&gt;_siteimprove_alfa_command</title>
<path fill="none" stroke="#7f7f00" d="M421.35,-282.94C399.27,-273.03 370.74,-260.23 347.01,-249.58"/>
<polygon fill="#7f7f00" stroke="#7f7f00" points="348.4,-246.37 337.84,-245.47 345.54,-252.76 348.4,-246.37"/>
</g>
<!-- _siteimprove_alfa_interviewer -->
<g id="node3" class="node">
<title>_siteimprove_alfa_interviewer</title>
<ellipse fill="none" stroke="#7f7fff" cx="613.14" cy="-228" rx="151.37" ry="18"/>
<text text-anchor="middle" x="613.14" y="-224.3" font-family="Times,serif" font-size="14.00">@siteimprove/alfa&#45;interviewer</text>
</g>
<!-- _siteimprove_alfa_cli&#45;&gt;_siteimprove_alfa_interviewer -->
<g id="edge4" class="edge">
<title>_siteimprove_alfa_cli&#45;&gt;_siteimprove_alfa_interviewer</title>
<path fill="none" stroke="#7f7fff" d="M492.93,-282.94C515,-273.03 543.54,-260.23 567.26,-249.58"/>
<polygon fill="#7f7fff" stroke="#7f7fff" points="568.74,-252.76 576.43,-245.47 565.88,-246.37 568.74,-252.76"/>
</g>
<!-- _siteimprove_alfa_formatter -->
<g id="node4" class="node">
<title>_siteimprove_alfa_formatter</title>
<ellipse fill="none" stroke="#7f7f7f" cx="544.14" cy="-42" rx="142.97" ry="18"/>
<text text-anchor="middle" x="544.14" y="-38.3" font-family="Times,serif" font-size="14.00">@siteimprove/alfa&#45;formatter</text>
</g>
<!-- _siteimprove_alfa_cli&#45;&gt;_siteimprove_alfa_formatter -->
<g id="edge3" class="edge">
<title>_siteimprove_alfa_cli&#45;&gt;_siteimprove_alfa_formatter</title>
<path fill="none" stroke="#00007f" d="M150.14,-255.59C89.84,-240.3 39.7,-220.17 22.14,-194 -2.17,-157.79 -8.77,-127.53 16.46,-94.9"/>
<polygon fill="#00007f" stroke="#00007f" points="19.35,-96.89 23.14,-87 14.01,-92.37 19.35,-96.89"/>
</g>
<!-- _siteimprove_alfa_scraper -->
<g id="node25" class="node">
<title>_siteimprove_alfa_scraper</title>
<ellipse fill="none" stroke="#7fff00" cx="1430.14" cy="-228" rx="133.48" ry="18"/>
<text text-anchor="middle" x="1430.14" y="-224.3" font-family="Times,serif" font-size="14.00">@siteimprove/alfa&#45;scraper</text>
</g>
<!-- _siteimprove_alfa_cli&#45;&gt;_siteimprove_alfa_scraper -->
<g id="edge5" class="edge">
<title>_siteimprove_alfa_cli&#45;&gt;_siteimprove_alfa_scraper</title>
<path fill="none" stroke="#00ff00" d="M772.14,-276.34C942.11,-264.11 1144.1,-249.58 1279.04,-239.87"/>
<polygon fill="#00ff00" stroke="#00ff00" points="1279.42,-243.35 1289.14,-239.14 1278.91,-236.37 1279.42,-243.35"/>
</g>
<!-- _siteimprove_alfa_formatter_earl -->
<g id="node5" class="node">
<title>_siteimprove_alfa_formatter_earl</title>
<ellipse fill="none" stroke="#ff00ff" cx="195.14" cy="-114" rx="163.57" ry="18"/>
<text text-anchor="middle" x="195.14" y="-110.3" font-family="Times,serif" font-size="14.00">@siteimprove/alfa&#45;formatter&#45;earl</text>
</g>
<!-- _siteimprove_alfa_formatter_earl&#45;&gt;_siteimprove_alfa_formatter -->
<g id="edge11" class="edge">
<title>_siteimprove_alfa_formatter_earl&#45;&gt;_siteimprove_alfa_formatter</title>
<path fill="none" stroke="#7f7f7f" d="M270.01,-97.98C326.33,-86.69 403.49,-71.21 461.6,-59.56"/>
<polygon fill="#7f7f7f" stroke="#7f7f7f" points="462.37,-62.97 471.49,-57.57 460.99,-56.11 462.37,-62.97"/>
</g>
<!-- _siteimprove_alfa_formatter_json -->
<g id="node6" class="node">
<title>_siteimprove_alfa_formatter_json</title>
<ellipse fill="none" stroke="#ffff00" cx="894.14" cy="-114" rx="165.17" ry="18"/>
<text text-anchor="middle" x="894.14" y="-110.3" font-family="Times,serif" font-size="14.00">@siteimprove/alfa&#45;formatter&#45;json</text>
</g>
<!-- _siteimprove_alfa_formatter_json&#45;&gt;_siteimprove_alfa_formatter -->
<g id="edge12" class="edge">
<title>_siteimprove_alfa_formatter_json&#45;&gt;_siteimprove_alfa_formatter</title>
<path fill="none" stroke="#7f7f7f" d="M818.62,-97.9C762.11,-86.59 684.86,-71.15 626.71,-59.52"/>
<polygon fill="#7f7f7f" stroke="#7f7f7f" points="627.31,-56.07 616.82,-57.54 625.94,-62.93 627.31,-56.07"/>
</g>
<!-- _siteimprove_alfa_formatter_sarif -->
<g id="node7" class="node">
<title>_siteimprove_alfa_formatter_sarif</title>
<ellipse fill="none" stroke="#000000" cx="544.14" cy="-114" rx="167.07" ry="18"/>
<text text-anchor="middle" x="544.14" y="-110.3" font-family="Times,serif" font-size="14.00">@siteimprove/alfa&#45;formatter&#45;sarif</text>
</g>
<!-- _siteimprove_alfa_formatter_sarif&#45;&gt;_siteimprove_alfa_formatter -->
<g id="edge13" class="edge">
<title>_siteimprove_alfa_formatter_sarif&#45;&gt;_siteimprove_alfa_formatter</title>
<path fill="none" stroke="#7f7f7f" d="M544.14,-95.7C544.14,-87.98 544.14,-78.71 544.14,-70.11"/>
<polygon fill="#7f7f7f" stroke="#7f7f7f" points="547.64,-70.1 544.14,-60.1 540.64,-70.1 547.64,-70.1"/>
</g>
<!-- _siteimprove_alfa_jquery -->
<g id="node8" class="node">
<title>_siteimprove_alfa_jquery</title>
<ellipse fill="none" stroke="#007f00" cx="1211.14" cy="-114" rx="128.08" ry="18"/>
<text text-anchor="middle" x="1211.14" y="-110.3" font-family="Times,serif" font-size="14.00">@siteimprove/alfa&#45;jquery</text>
</g>
<!-- _siteimprove_alfa_assert -->
<g id="node9" class="node">
<title>_siteimprove_alfa_assert</title>
<ellipse fill="none" stroke="#00ffff" cx="3809.14" cy="-42" rx="126.98" ry="18"/>
<text text-anchor="middle" x="3809.14" y="-38.3" font-family="Times,serif" font-size="14.00">@siteimprove/alfa&#45;assert</text>
</g>
<!-- _siteimprove_alfa_chai -->
<g id="node10" class="node">
<title>_siteimprove_alfa_chai</title>
<ellipse fill="none" stroke="#7f0000" cx="3809.14" cy="-114" rx="116.98" ry="18"/>
<text text-anchor="middle" x="3809.14" y="-110.3" font-family="Times,serif" font-size="14.00">@siteimprove/alfa&#45;chai</text>
</g>
<!-- _siteimprove_alfa_chai&#45;&gt;_siteimprove_alfa_assert -->
<g id="edge1" class="edge">
<title>_siteimprove_alfa_chai&#45;&gt;_siteimprove_alfa_assert</title>
<path fill="none" stroke="#00ffff" d="M3809.14,-95.7C3809.14,-87.98 3809.14,-78.71 3809.14,-70.11"/>
<polygon fill="#00ffff" stroke="#00ffff" points="3812.64,-70.1 3809.14,-60.1 3805.64,-70.1 3812.64,-70.1"/>
</g>
<!-- _siteimprove_alfa_cypress -->
<g id="node11" class="node">
<title>_siteimprove_alfa_cypress</title>
<ellipse fill="none" stroke="#ff007f" cx="3254.14" cy="-114" rx="133.78" ry="18"/>
<text text-anchor="middle" x="3254.14" y="-110.3" font-family="Times,serif" font-size="14.00">@siteimprove/alfa&#45;cypress</text>
</g>
<!-- _siteimprove_alfa_cypress&#45;&gt;_siteimprove_alfa_formatter -->
<g id="edge9" class="edge">
<title>_siteimprove_alfa_cypress&#45;&gt;_siteimprove_alfa_formatter</title>
<path fill="none" stroke="#00007f" d="M1075.14,-48.03C1073.14,-48 1071.14,-47.98 1069.14,-47.95"/>
<polygon fill="#00007f" stroke="#00007f" points="1077.18,-44.56 1067.13,-47.92 1077.09,-51.56 1077.18,-44.56"/>
</g>
<!-- _siteimprove_alfa_cypress&#45;&gt;_siteimprove_alfa_assert -->
<g id="edge8" class="edge">
<title>_siteimprove_alfa_cypress&#45;&gt;_siteimprove_alfa_assert</title>
<path fill="none" stroke="#00ffff" d="M3328.95,-98.99C3350.88,-95.13 3374.93,-91.15 3397.14,-88 3497.67,-73.74 3612.56,-61.53 3695.43,-53.44"/>
<polygon fill="#00ffff" stroke="#00ffff" points="3696.01,-56.9 3705.62,-52.45 3695.33,-49.93 3696.01,-56.9"/>
</g>
<!-- _siteimprove_alfa_jasmine -->
<g id="node12" class="node">
<title>_siteimprove_alfa_jasmine</title>
<ellipse fill="none" stroke="#00007f" cx="3540.14" cy="-114" rx="133.78" ry="18"/>
<text text-anchor="middle" x="3540.14" y="-110.3" font-family="Times,serif" font-size="14.00">@siteimprove/alfa&#45;jasmine</text>
</g>
<!-- _siteimprove_alfa_jasmine&#45;&gt;_siteimprove_alfa_assert -->
<g id="edge14" class="edge">
<title>_siteimprove_alfa_jasmine&#45;&gt;_siteimprove_alfa_assert</title>
<path fill="none" stroke="#00ffff" d="M3598.84,-97.72C3640.81,-86.8 3697.39,-72.08 3741.29,-60.65"/>
<polygon fill="#00ffff" stroke="#00ffff" points="3742.23,-64.03 3751.03,-58.12 3740.47,-57.25 3742.23,-64.03"/>
</g>
<!-- _siteimprove_alfa_jest -->
<g id="node13" class="node">
<title>_siteimprove_alfa_jest</title>
<ellipse fill="none" stroke="#0000ff" cx="4379.14" cy="-114" rx="115.08" ry="18"/>
<text text-anchor="middle" x="4379.14" y="-110.3" font-family="Times,serif" font-size="14.00">@siteimprove/alfa&#45;jest</text>
</g>
<!-- _siteimprove_alfa_jest&#45;&gt;_siteimprove_alfa_assert -->
<g id="edge15" class="edge">
<title>_siteimprove_alfa_jest&#45;&gt;_siteimprove_alfa_assert</title>
<path fill="none" stroke="#00ffff" d="M4315.63,-98.95C4296.28,-95 4274.9,-90.98 4255.14,-88 4145.18,-71.41 4019.02,-59.32 3929,-51.87"/>
<polygon fill="#00ffff" stroke="#00ffff" points="3929.28,-48.39 3919.03,-51.06 3928.71,-55.36 3929.28,-48.39"/>
</g>
<!-- _siteimprove_alfa_unexpected -->
<g id="node14" class="node">
<title>_siteimprove_alfa_unexpected</title>
<ellipse fill="none" stroke="#00ff00" cx="4095.14" cy="-114" rx="151.37" ry="18"/>
<text text-anchor="middle" x="4095.14" y="-110.3" font-family="Times,serif" font-size="14.00">@siteimprove/alfa&#45;unexpected</text>
</g>
<!-- _siteimprove_alfa_unexpected&#45;&gt;_siteimprove_alfa_assert -->
<g id="edge17" class="edge">
<title>_siteimprove_alfa_unexpected&#45;&gt;_siteimprove_alfa_assert</title>
<path fill="none" stroke="#00ffff" d="M4032.02,-97.55C3987.02,-86.54 3926.49,-71.72 3879.86,-60.31"/>
<polygon fill="#00ffff" stroke="#00ffff" points="3880.68,-56.91 3870.13,-57.93 3879.01,-63.71 3880.68,-56.91"/>
</g>
<!-- _siteimprove_alfa_angular -->
<g id="node15" class="node">
<title>_siteimprove_alfa_angular</title>
<ellipse fill="none" stroke="#00ff7f" cx="2962.14" cy="-114" rx="133.78" ry="18"/>
<text text-anchor="middle" x="2962.14" y="-110.3" font-family="Times,serif" font-size="14.00">@siteimprove/alfa&#45;angular</text>
</g>
<!-- _siteimprove_alfa_cheerio -->
<g id="node16" class="node">
<title>_siteimprove_alfa_cheerio</title>
<ellipse fill="none" stroke="#7f007f" cx="2428.14" cy="-42" rx="131.88" ry="18"/>
<text text-anchor="middle" x="2428.14" y="-38.3" font-family="Times,serif" font-size="14.00">@siteimprove/alfa&#45;cheerio</text>
</g>
<!-- _siteimprove_alfa_enzyme -->
<g id="node17" class="node">
<title>_siteimprove_alfa_enzyme</title>
<ellipse fill="none" stroke="#ff7f00" cx="2676.14" cy="-114" rx="133.78" ry="18"/>
<text text-anchor="middle" x="2676.14" y="-110.3" font-family="Times,serif" font-size="14.00">@siteimprove/alfa&#45;enzyme</text>
</g>
<!-- _siteimprove_alfa_react -->
<g id="node18" class="node">
<title>_siteimprove_alfa_react</title>
<ellipse fill="none" stroke="#ff7f7f" cx="2700.14" cy="-42" rx="122.38" ry="18"/>
<text text-anchor="middle" x="2700.14" y="-38.3" font-family="Times,serif" font-size="14.00">@siteimprove/alfa&#45;react</text>
</g>
<!-- _siteimprove_alfa_enzyme&#45;&gt;_siteimprove_alfa_react -->
<g id="edge10" class="edge">
<title>_siteimprove_alfa_enzyme&#45;&gt;_siteimprove_alfa_react</title>
<path fill="none" stroke="#ff7f7f" d="M2682.07,-95.7C2684.74,-87.9 2687.96,-78.51 2690.94,-69.83"/>
<polygon fill="#ff7f7f" stroke="#ff7f7f" points="2694.34,-70.7 2694.27,-60.1 2687.72,-68.43 2694.34,-70.7"/>
</g>
<!-- _siteimprove_alfa_vue -->
<g id="node19" class="node">
<title>_siteimprove_alfa_vue</title>
<ellipse fill="none" stroke="#00ff7f" cx="2410.14" cy="-114" rx="114.28" ry="18"/>
<text text-anchor="middle" x="2410.14" y="-110.3" font-family="Times,serif" font-size="14.00">@siteimprove/alfa&#45;vue</text>
</g>
<!-- _siteimprove_alfa_vue&#45;&gt;_siteimprove_alfa_cheerio -->
<g id="edge18" class="edge">
<title>_siteimprove_alfa_vue&#45;&gt;_siteimprove_alfa_cheerio</title>
<path fill="none" stroke="#7f007f" d="M2414.59,-95.7C2416.59,-87.9 2419.01,-78.51 2421.24,-69.83"/>
<polygon fill="#7f007f" stroke="#7f007f" points="2424.64,-70.66 2423.74,-60.1 2417.86,-68.92 2424.64,-70.66"/>
</g>
<!-- _siteimprove_alfa_playwright -->
<g id="node20" class="node">
<title>_siteimprove_alfa_playwright</title>
<ellipse fill="none" stroke="#007f7f" cx="2124.14" cy="-114" rx="148.37" ry="18"/>
<text text-anchor="middle" x="2124.14" y="-110.3" font-family="Times,serif" font-size="14.00">@siteimprove/alfa&#45;playwright</text>
</g>
<!-- _siteimprove_alfa_puppeteer -->
<g id="node21" class="node">
<title>_siteimprove_alfa_puppeteer</title>
<ellipse fill="none" stroke="#007fff" cx="1812.14" cy="-114" rx="145.67" ry="18"/>
<text text-anchor="middle" x="1812.14" y="-110.3" font-family="Times,serif" font-size="14.00">@siteimprove/alfa&#45;puppeteer</text>
</g>
<!-- _siteimprove_alfa_webdriver -->
<g id="node22" class="node">
<title>_siteimprove_alfa_webdriver</title>
<ellipse fill="none" stroke="#00ffff" cx="1503.14" cy="-114" rx="145.67" ry="18"/>
<text text-anchor="middle" x="1503.14" y="-110.3" font-family="Times,serif" font-size="14.00">@siteimprove/alfa&#45;webdriver</text>
</g>
<!-- _siteimprove_alfa_crawler -->
<g id="node23" class="node">
<title>_siteimprove_alfa_crawler</title>
<ellipse fill="none" stroke="#7fff7f" cx="1572.14" cy="-300" rx="133.48" ry="18"/>
<text text-anchor="middle" x="1572.14" y="-296.3" font-family="Times,serif" font-size="14.00">@siteimprove/alfa&#45;crawler</text>
</g>
<!-- _siteimprove_alfa_frontier -->
<g id="node24" class="node">
<title>_siteimprove_alfa_frontier</title>
<ellipse fill="none" stroke="#ff0000" cx="1715.14" cy="-228" rx="133.78" ry="18"/>
<text text-anchor="middle" x="1715.14" y="-224.3" font-family="Times,serif" font-size="14.00">@siteimprove/alfa&#45;frontier</text>
</g>
<!-- _siteimprove_alfa_crawler&#45;&gt;_siteimprove_alfa_frontier -->
<g id="edge6" class="edge">
<title>_siteimprove_alfa_crawler&#45;&gt;_siteimprove_alfa_frontier</title>
<path fill="none" stroke="#ff0000" d="M1606.03,-282.41C1625.88,-272.69 1651.15,-260.32 1672.37,-249.94"/>
<polygon fill="#ff0000" stroke="#ff0000" points="1674.05,-253.01 1681.49,-245.47 1670.97,-246.72 1674.05,-253.01"/>
</g>
<!-- _siteimprove_alfa_crawler&#45;&gt;_siteimprove_alfa_scraper -->
<g id="edge7" class="edge">
<title>_siteimprove_alfa_crawler&#45;&gt;_siteimprove_alfa_scraper</title>
<path fill="none" stroke="#7fff00" d="M1538.49,-282.41C1518.77,-272.69 1493.68,-260.32 1472.61,-249.94"/>
<polygon fill="#7fff00" stroke="#7fff00" points="1474.07,-246.75 1463.55,-245.47 1470.97,-253.03 1474.07,-246.75"/>
</g>
<!-- _siteimprove_alfa_scraper&#45;&gt;_siteimprove_alfa_puppeteer -->
<g id="edge16" class="edge">
<title>_siteimprove_alfa_scraper&#45;&gt;_siteimprove_alfa_puppeteer</title>
<path fill="none" stroke="#0000ff" d="M1572.14,-202C1606.62,-197.37 1618.96,-203.38 1648.41,-196.55"/>
<polygon fill="#0000ff" stroke="#0000ff" points="1649.36,-199.92 1658.14,-194 1647.58,-193.15 1649.36,-199.92"/>
</g>
</g>
</svg>
